{
.appVersion = "113";
DisplayStrings = (
note,
code,
mole,
lololol,
joke,
wipe,
shoe,
quiz,
foxy,
gaze,
brew,
vary
);
copyright = "Copyright 2017, The Mozilla Foundation";
date = "2017-03-10 17:17:55 +0000";
designer = Typotheque.com;
designerURL = "http://www.typotheque.com";
familyName = "Zilla Zans Regular";
featurePrefixes = (
{
automatic = 1;
code = "languagesystem DFLT dflt;\012languagesystem latn dflt;\012languagesystem latn CAT;\012languagesystem latn ROM;\012languagesystem latn MOL;\012languagesystem latn KAZ;\012languagesystem latn TAT;\012languagesystem latn TRK;\012languagesystem latn CRT;\012languagesystem latn AZE;\012";
name = Languagesystems;
}
);
features = (
{
automatic = 1;
code = "feature locl;\012feature frac;\012feature ordn;\012feature smcp;\012";
name = aalt;
},
{
automatic = 1;
code = "script latn;\012language CAT;\012sub  l' periodcentered' l by ldot;\012sub  L' periodcentered' L by Ldot;\012language ROM;\012sub Scedilla by Scommaaccent;\012sub scedilla by scommaaccent;\012sub Tcedilla by Tcommaaccent;\012sub tcedilla by tcommaaccent;\012language MOL;\012sub Scedilla by Scommaaccent;\012sub scedilla by scommaaccent;\012sub Tcedilla by Tcommaaccent;\012sub tcedilla by tcommaaccent;\012language KAZ;\012sub i by i.TRK;\012language TAT;\012sub i by i.TRK;\012language TRK;\012sub i by i.TRK;\012language CRT;\012sub i by i.TRK;\012language AZE;\012sub i by i.TRK;\012";
name = locl;
},
{
automatic = 1;
code = "sub one slash eight by oneeighth;\012sub one slash four by onequarter;\012sub one slash two by onehalf;\012sub three slash four by threequarters;\012sub one slash three by onethird;\012sub two slash three by twothirds;\012";
name = frac;
},
{
automatic = 1;
code = "sub [zero one two three four five six seven eight nine] [A a]' by ordfeminine;\012sub [zero one two three four five six seven eight nine] [O o]' by ordmasculine;\012sub N o period by numero;\012";
name = ordn;
},
{
automatic = 1;

glyphs = (
{
glyphname = A;
layers = (
{
layerId = "35E6D5AF-F775-49E3-B2B8-5BA74BD20843";
paths = (
{
closed = 1;
nodes = (
"655 0 LINE",
"655 64 LINE",
"589 64 LINE",
"356 650 LINE",
"171 650 LINE",
"171 586 LINE",
"275 586 LINE",
"62 64 LINE",
"1 64 LINE",
"1 0 LINE",
"230 0 LINE",
"230 64 LINE",
"136 64 LINE",
"186 189 LINE",
"464 189 LINE",
"511 64 LINE",
"424 64 LINE",
"424 0 LINE"
);
},
{
closed = 1;
nodes = (
"443 246 LINE",
"208 246 LINE",
"325 544 LINE",
"331 544 LINE"
);
}
);
userData = {
assembly = "NPUSHB[ ]	/* 58 values pushed */\01219 1 9 6 1 74 10 1 9 0 2 1 9 2 101 0 6 6 7 93 0 7 7 89 75 8 5 3 3 1 1 0 93 4 1 0 0 90 0 76 18 18 18 21 18 21 17 17 17 17 17 17 17 17 16 11 11 29 \012CALL[ ]	/* CallFunction */";
};
width = 648;
}
);
leftKerningGroup = A;
note = uni0041;
rightKerningGroup = A;
unicode = 0041;
},
{
glyphname = Aacute;
layers = (
{
layerId = "35E6D5AF-F775-49E3-B2B8-5BA74BD20843";
paths = (
{
closed = 1;
nodes = (
"482 745 LINE",
"465 813 LINE",
"274 740 LINE",
"285 703 LINE"
);
},
{
closed = 1;
nodes = (
"655 0 LINE",
"655 64 LINE",
"589 64 LINE",
"356 650 LINE",
"171 650 LINE",
"171 586 LINE",
"275 586 LINE",
"62 64 LINE",
"1 64 LINE",
"1 0 LINE",
"230 0 LINE",
"230 64 LINE",
"136 64 LINE",
"186 189 LINE",
"464 189 LINE",
"511 64 LINE",
"424 64 LINE",
"424 0 LINE"
);
},
{
closed = 1;
nodes = (
"443 246 LINE",
"208 246 LINE",
"325 544 LINE",
"331 544 LINE"
);
}
);
userData = {
assembly = "NPUSHB[ ]	/* 64 values pushed */\01223 1 9 6 1 74 3 2 1 3 7 72 10 1 9 0 2 1 9 2 101 0 6 6 7 93 0 7 7 89 75 8 5 3 3 1 1 0 93 4 1 0 0 90 0 76 22 22 22 25 22 25 17 17 17 17 17 17 17 17 20 11 11 29 \012CALL[ ]	/* CallFunction */";
};
width = 648;
}
);
leftKerningGroup = A;
note = uni00C1;
rightKerningGroup = A;
unicode = 00C1;
},
{
glyphname = Abreve;
layers = (
{
layerId = "35E6D5AF-F775-49E3-B2B8-5BA74BD20843";
paths = (
{
closed = 1;
nodes = (
"392 816 LINE",
"392 770 OFFCURVE",
"370.667 747 OFFCURVE",
"328 747 CURVE SMOOTH",
"286.667 747 OFFCURVE",
"264 762.667 OFFCURVE",
"264 816 CURVE",
"206 816 LINE",
"206 738 OFFCURVE",
"246.667 699 OFFCURVE",
"328 699 CURVE SMOOTH",
"409.333 699 OFFCURVE",
"450 738 OFFCURVE",
"450 816 CURVE"
);
},
{
closed = 1;
nodes = (
"655 0 LINE",
"655 64 LINE",
"589 64 LINE",
"356 650 LINE",
"171 650 LINE",
"171 586 LINE",
"275 586 LINE",
"62 64 LINE",
"1 64 LINE",
"1 0 LINE",
"230 0 LINE",
"230 64 LINE",
"136 64 LINE",
"186 189 LINE",
"464 189 LINE",
"511 64 LINE",
"424 64 LINE",
"424 0 LINE"
);
},
{
closed = 1;
nodes = (
"443 246 LINE",
"208 246 LINE",
"325 544 LINE",
"331 544 LINE"
);
}
);
userData = {
assembly = "PUSHB[ ]	/* 6 values pushed */\01230 1 13 10 1 74 \012MPPEM[ ]	/* MeasurePixelPerEm */\012PUSHB[ ]	/* 1 value pushed */\01219 \012LT[ ]	/* LessThan */\012IF[ ]	/* If */\012NPUSHB[ ]	/* 50 values pushed */\01214 3 2 1 2 2 1 110 0 2 0 0 11 2 0 104 15 1 13 0 6 5 13 6 101 0 10 10 11 93 0 11 11 89 75 12 9 7 3 5 5 4 93 8 1 4 4 90 4 76 \012ELSE[ ]	/* Else */\012NPUSHB[ ]	/* 49 values pushed */\01214 3 2 1 2 1 131 0 2 0 0 11 2 0 104 15 1 13 0 6 5 13 6 101 0 10 10 11 93 0 11 11 89 75 12 9 7 3 5 5 4 93 8 1 4 4 90 4 76 \012EIF[ ]	/* EndIf */\012NPUSHB[ ]	/* 36 values pushed */\01229 29 0 0 29 32 29 32 28 27 26 25 24 23 22 21 20 19 18 17 16 15 14 13 12 11 0 10 0 10 34 17 33 16 11 23 \012CALL[ ]	/* CallFunction */";
};
width = 648;
}
);
leftKerningGroup = A;
note = uni0102;
rightKerningGroup = A;
unicode = 0102;
},
{
glyphname = Acircumflex;
layers = (
{
layerId = "35E6D5AF-F775-49E3-B2B8-5BA74BD20843";
paths = (
{
closed = 1;
nodes = (
"460 737 LINE",
"334 827 LINE",
"313 827 LINE",
"186 734 LINE",
"205 701 LINE",
"321 764 LINE",
"441 702 LINE"
);
},
{
closed = 1;
nodes = (
"655 0 LINE",
"655 64 LINE",
"589 64 LINE",
"356 650 LINE",
"171 650 LINE",
"171 586 LINE",
"275 586 LINE",
"62 64 LINE",
"1 64 LINE",
"1 0 LINE",
"230 0 LINE",
"230 64 LINE",
"136 64 LINE",
"186 189 LINE",
"464 189 LINE",
"511 64 LINE",
"424 64 LINE",
"424 0 LINE"
);
},
{
closed = 1;
nodes = (
"443 246 LINE",
"208 246 LINE",
"325 544 LINE",
"331 544 LINE"
);
}
);
userData = {
assembly = "NPUSHB[ ]	/* 72 values pushed */\0124 3 2 1 4 8 0 26 1 10 7 2 74 0 0 8 0 131 11 1 10 0 3 2 10 3 101 0 7 7 8 93 0 8 8 89 75 9 6 4 3 2 2 1 93 5 1 1 1 90 1 76 25 25 25 28 25 28 24 23 17 17 17 17 17 17 17 17 21 12 11 29 \012CALL[ ]	/* CallFunction */";
};
width = 648;
}
);
leftKerningGroup = A;
note = uni00C2;
rightKerningGroup = A;
unicode = 00C2;
},
{
glyphname = Adieresis;
layers = (
{
layerId = "35E6D5AF-F775-49E3-B2B8-5BA74BD20843";
paths = (
{
closed = 1;
nodes = (
"197 718 LINE",
"278 718 LINE",
"278 803 LINE",
"197 803 LINE"
);
},
{
closed = 1;
nodes = (
"369 718 LINE",
"449 718 LINE",
"449 803 LINE",
"369 803 LINE"
);
},
{
closed = 1;
nodes = (
"655 0 LINE",
"655 64 LINE",
"589 64 LINE",
"356 650 LINE",
"171 650 LINE",
"171 586 LINE",
"275 586 LINE",
"62 64 LINE",
"1 64 LINE",
"1 0 LINE",
"230 0 LINE",
"230 64 LINE",
"136 64 LINE",
"186 189 LINE",
"464 189 LINE",
"511 64 LINE",
"424 64 LINE",
"424 0 LINE"
);
},
{
closed = 1;
nodes = (
"443 246 LINE",
"208 246 LINE",
"325 544 LINE",
"331 544 LINE"
);
}
);
userData = {
assembly = "NPUSHB[ ]	/* 94 values pushed */\01227 1 13 10 1 74 2 1 0 15 3 14 3 1 11 0 1 101 16 1 13 0 6 5 13 6 101 0 10 10 11 93 0 11 11 89 75 12 9 7 3 5 5 4 93 8 1 4 4 90 4 76 26 26 4 4 0 0 26 29 26 29 25 24 23 22 21 20 19 18 17 16 15 14 13 12 11 10 9 8 4 7 4 7 6 5 0 3 0 3 17 17 11 21 \012CALL[ ]	/* CallFunction */";
};
width = 648;
}
);
leftKerningGroup = A;
note = uni00C4;
rightKerningGroup = A;
unicode = 00C4;
},
{
glyphname = Agrave;
layers = (
{
layerId = "35E6D5AF-F775-49E3-B2B8-5BA74BD20843";
paths = (
{
closed = 1;
nodes = (
"372 740 LINE",
"181 813 LINE",
"164 745 LINE",
"362 703 LINE"
);
},
{
closed = 1;
nodes = (
"655 0 LINE",
"655 64 LINE",
"589 64 LINE",
"356 650 LINE",
"171 650 LINE",
"171 586 LINE",
"275 586 LINE",
"62 64 LINE",
"1 64 LINE",
"1 0 LINE",
"230 0 LINE",
"230 64 LINE",
"136 64 LINE",
"186 189 LINE",
"464 189 LINE",
"511 64 LINE",
"424 64 LINE",
"424 0 LINE"
);
},
{
closed = 1;
nodes = (
"443 246 LINE",
"208 246 LINE",
"325 544 LINE",
"331 544 LINE"
);
}
);
userData = {
assembly = "NPUSHB[ ]	/* 64 values pushed */\01223 1 9 6 1 74 3 2 1 3 7 72 10 1 9 0 2 1 9 2 101 0 6 6 7 93 0 7 7 89 75 8 5 3 3 1 1 0 93 4 1 0 0 90 0 76 22 22 22 25 22 25 17 17 17 17 17 17 17 17 20 11 11 29 \012CALL[ ]	/* CallFunction */";
};
width = 648;
}
);
leftKerningGroup = A;
note = uni00C0;
rightKerningGroup = A;
unicode = 00C0;
},
{
glyphname = Amacron;
layers = (
{
layerId = "35E6D5AF-F775-49E3-B2B8-5BA74BD20843";
paths = (
{
closed = 1;
nodes = (
"461 733 LINE",
"461 790 LINE",
"182 790 LINE",
"182 733 LINE"
);
},
{
closed = 1;
nodes = (
"655 0 LINE",
"655 64 LINE",
"589 64 LINE",
"356 650 LINE",
"171 650 LINE",
"171 586 LINE",
"275 586 LINE",
"62 64 LINE",
"1 64 LINE",
"1 0 LINE",
"230 0 LINE",
"230 64 LINE",
"136 64 LINE",
"186 189 LINE",
"464 189 LINE",
"511 64 LINE",
"424 64 LINE",
"424 0 LINE"
);
},
{
closed = 1;
nodes = (
"443 246 LINE",
"208 246 LINE",
"325 544 LINE",
"331 544 LINE"
);
}
);
userData = {
assembly = "NPUSHB[ ]	/* 70 values pushed */\01223 1 11 8 1 74 0 1 0 0 9 1 0 101 12 1 11 0 4 3 11 4 101 0 8 8 9 93 0 9 9 89 75 10 7 5 3 3 3 2 93 6 1 2 2 90 2 76 22 22 22 25 22 25 21 20 19 18 17 17 17 17 17 17 17 17 16 13 11 29 \012CALL[ ]	/* CallFunction */";
};
width = 648;
}
);
leftKerningGroup = A;
note = uni0100;
rightKerningGroup = A;
unicode = 0100;
},
{
glyphname = Aogonek;
layers = (
{
layerId = "35E6D5AF-F775-49E3-B2B8-5BA74BD20843";
paths = (
{
closed = 1;
nodes = (
"638 -140 LINE",
"621.333 -150 OFFCURVE",
"603.333 -155 OFFCURVE",
"584 -155 CURVE SMOOTH",
"545.333 -155 OFFCURVE",
"526 -136.333 OFFCURVE",
"526 -99 CURVE SMOOTH",
"526 -65.667 OFFCURVE",
"542 -29.333 OFFCURVE",
"590 0 CURVE",
"655 0 LINE",
"655 64 LINE",
"589 64 LINE",
"356 650 LINE",
"171 650 LINE",
"171 586 LINE",
"275 586 LINE",
"62 64 LINE",
"1 64 LINE",
"1 0 LINE",
"230 0 LINE",
"230 64 LINE",
"136 64 LINE",
"186 189 LINE",
"464 189 LINE",
"511 64 LINE",
"424 64 LINE",
"424 0 LINE",
"536 0 LINE",
"494.667 -25.333 OFFCURVE",
"464 -67.333 OFFCURVE",
"464 -118 CURVE SMOOTH",
"464 -175.333 OFFCURVE",
"506.667 -209 OFFCURVE",
"568 -209 CURVE SMOOTH",
"596 -209 OFFCURVE",
"622.333 -202.333 OFFCURVE",
"647 -189 CURVE"
);
},
{
closed = 1;
nodes = (
"443 246 LINE",
"208 246 LINE",
"325 544 LINE",
"331 544 LINE"
);
}
);
userData = {
assembly = "NPUSHB[ ]	/* 79 values pushed */\01236 1 12 7 34 1 11 1 2 74 13 1 12 0 3 2 12 3 101 0 7 7 8 93 0 8 8 89 75 9 6 4 3 2 2 1 93 10 5 2 1 1 90 75 0 11 11 0 95 0 0 0 94 0 76 35 35 35 38 35 38 33 31 27 26 25 24 17 17 17 17 17 17 17 21 33 14 11 29 \012CALL[ ]	/* CallFunction */";
};
width = 648;
}
);
leftKerningGroup = A;
note = uni0104;
rightKerningGroup = A;
unicode = 0104;
},
{
glyphname = Aring;
layers = (
{
layerId = "35E6D5AF-F775-49E3-B2B8-5BA74BD20843";
paths = (
{
closed = 1;
nodes = (
"421 836 OFFCURVE",
"391 874 OFFCURVE",
"323 874 CURVE SMOOTH",
"260.333 874 OFFCURVE",
"224 836.667 OFFCURVE",
"224 782 CURVE SMOOTH",
"224 720.667 OFFCURVE",
"256.667 690 OFFCURVE",
"322 690 CURVE SMOOTH",
"388.667 690 OFFCURVE",
"421 729.333 OFFCURVE",
"421 784 CURVE SMOOTH"
);
},
{
closed = 1;
nodes = (
"372 748 OFFCURVE",
"355.333 730 OFFCURVE",
"322 730 CURVE SMOOTH",
"289.333 730 OFFCURVE",
"273 747.333 OFFCURVE",
"273 782 CURVE SMOOTH",
"273 816.667 OFFCURVE",
"289.333 834 OFFCURVE",
"322 834 CURVE SMOOTH",
"359.333 834 OFFCURVE",
"372 810.667 OFFCURVE",
"372 784 CURVE SMOOTH"
);
},
{
closed = 1;
nodes = (
"655 0 LINE",
"655 64 LINE",
"589 64 LINE",
"356 650 LINE",
"171 650 LINE",
"171 586 LINE",
"275 586 LINE",
"62 64 LINE",
"1 64 LINE",
"1 0 LINE",
"230 0 LINE",
"230 64 LINE",
"136 64 LINE",
"186 189 LINE",
"464 189 LINE",
"511 64 LINE",
"424 64 LINE",
"424 0 LINE"
);
},
{
closed = 1;
nodes = (
"443 246 LINE",
"208 246 LINE",
"325 544 LINE",
"331 544 LINE"
);
}
);
userData = {
assembly = "NPUSHB[ ]	/* 82 values pushed */\01239 1 13 10 1 74 0 1 0 2 3 1 2 103 0 3 0 0 11 3 0 103 14 1 13 0 6 5 13 6 101 0 10 10 11 93 0 11 11 89 75 12 9 7 3 5 5 4 93 8 1 4 4 90 4 76 38 38 38 41 38 41 37 36 35 34 33 32 31 30 17 17 17 17 17 34 36 35 34 15 11 29 \012CALL[ ]	/* CallFunction */";
};
width = 648;
}
);
leftKerningGroup = A;
note = uni00C5;
rightKerningGroup = A;
unicode = 00C5;
},
{
glyphname = Atilde;
layers = (
{
layerId = "35E6D5AF-F775-49E3-B2B8-5BA74BD20843";
paths = (
{
closed = 1;
nodes = (
"418 807 LINE",
"407.333 769.667 OFFCURVE",
"388.333 765 OFFCURVE",
"371 765 CURVE SMOOTH",
"347 765 OFFCURVE",
"326.667 770.833 OFFCURVE",
"310 782.5 CURVE SMOOTH",
"293.333 794.167 OFFCURVE",
"274 800 OFFCURVE",
"252 800 CURVE SMOOTH",
"201.333 800 OFFCURVE",
"175.333 752.667 OFFCURVE",
"170 718 CURVE",
"203 705 LINE",
"212.333 737 OFFCURVE",
"234.333 744 OFFCURVE",
"253 744 CURVE SMOOTH",
"272.333 744 OFFCURVE",
"291.333 738.167 OFFCURVE",
"310 726.5 CURVE SMOOTH",
"328.667 714.833 OFFCURVE",
"350.667 709 OFFCURVE",
"376 709 CURVE SMOOTH",
"424 709 OFFCURVE",
"443.333 744.667 OFFCURVE",
"454 798 CURVE"
);
},
{
closed = 1;
nodes = (
"655 0 LINE",
"655 64 LINE",
"589 64 LINE",
"356 650 LINE",
"171 650 LINE",
"171 586 LINE",
"275 586 LINE",
"62 64 LINE",
"1 64 LINE",
"1 0 LINE",
"230 0 LINE",
"230 64 LINE",
"136 64 LINE",
"186 189 LINE",
"464 189 LINE",
"511 64 LINE",
"424 64 LINE",
"424 0 LINE"
);
},
{
closed = 1;
nodes = (
"443 246 LINE",
"208 246 LINE",
"325 544 LINE",
"331 544 LINE"
);
}
);
userData = {
assembly = "NPUSHB[ ]	/* 94 values pushed */\01210 1 0 1 9 1 11 0 39 1 13 10 3 74 19 1 2 72 0 2 0 1 0 2 1 103 0 3 0 0 11 3 0 103 14 1 13 0 6 5 13 6 101 0 10 10 11 93 0 11 11 89 75 12 9 7 3 5 5 4 93 8 1 4 4 90 4 76 38 38 38 41 38 41 37 36 35 34 33 32 31 30 17 17 17 17 19 33 37 33 34 15 11 29 \012CALL[ ]	/* CallFunction */";
};
width = 648;
}
);
leftKerningGroup = A;
note = uni00C3;
rightKerningGroup = A;
unicode = 00C3;
},
{
glyphname = AE;
layers = (
{
layerId = "35E6D5AF-F775-49E3-B2B8-5BA74BD20843";
paths = (
{
closed = 1;
nodes = (
"855 0 LINE",
"874 184 LINE",
"810 191 LINE",
"790 64 LINE",
"527 64 LINE",
"527 298 LINE",
"833 298 LINE",
"833 362 LINE",
"527 362 LINE",
"527 586 LINE",
"781 586 LINE",
"801 459 LINE",
"865 467 LINE",
"846 650 LINE",
"220 650 LINE",
"220 586 LINE",
"317 586 LINE",
"59 64 LINE",
"-7 64 LINE",
"-7 0 LINE",
"222 0 LINE",
"222 64 LINE",
"132 64 LINE",
"194 189 LINE",
"453 189 LINE",
"453 64 LINE",
"372 64 LINE",
"372 0 LINE"
);
},
{
closed = 1;
nodes = (
"453 246 LINE",
"221 246 LINE",
"387 586 LINE",
"453 586 LINE"
);
}
);
userData = {
assembly = "NPUSHB[ ]	/* 85 values pushed */\01217 16 2 9 6 26 1 2 13 27 1 1 2 3 74 0 9 0 10 13 9 10 101 14 1 13 0 2 1 13 2 101 12 8 2 6 6 7 93 0 7 7 89 75 11 5 3 3 1 1 0 93 4 1 0 0 90 0 76 28 28 28 31 28 31 30 29 25 24 23 22 21 20 19 17 17 17 17 17 17 17 16 15 11 29 \012CALL[ ]	/* CallFunction */";
};
width = 919;
}
);
leftKerningGroup = AE;
note = uni00C6;
rightKerningGroup = E;
unicode = 00C6;
},
{
glyphname = AEacute;
layers = (
{
layerId = "35E6D5AF-F775-49E3-B2B8-5BA74BD20843";
paths = (
{
closed = 1;
nodes = (
"804 745 LINE",
"787 813 LINE",
"596 740 LINE",
"607 703 LINE"
);
},
{
closed = 1;
nodes = (
"855 0 LINE",
"874 184 LINE",
"810 191 LINE",
"790 64 LINE",
"527 64 LINE",
"527 298 LINE",
"833 298 LINE",
"833 362 LINE",
"527 362 LINE",
"527 586 LINE",
"781 586 LINE",
"801 459 LINE",
"865 467 LINE",
"846 650 LINE",
"220 650 LINE",
"220 586 LINE",
"317 586 LINE",
"59 64 LINE",
"-7 64 LINE",
"-7 0 LINE",
"222 0 LINE",
"222 64 LINE",
"132 64 LINE",
"194 189 LINE",
"453 189 LINE",
"453 64 LINE",
"372 64 LINE",
"372 0 LINE"
);
},
{
closed = 1;
nodes = (
"453 246 LINE",
"221 246 LINE",
"387 586 LINE",
"453 586 LINE"
);
}
);
userData = {
assembly = "NPUSHB[ ]	/* 91 values pushed */\01221 20 2 9 6 30 1 2 13 31 1 1 2 3 74 3 2 1 3 7 72 0 9 0 10 13 9 10 101 14 1 13 0 2 1 13 2 101 12 8 2 6 6 7 93 0 7 7 89 75 11 5 3 3 1 1 0 93 4 1 0 0 90 0 76 32 32 32 35 32 35 34 33 29 28 27 26 25 24 19 17 17 17 17 17 17 17 20 15 11 29 \012CALL[ ]	/* CallFunction */";
};
width = 919;
}
);
leftKerningGroup = AE;
note = uni01FC;
rightKerningGroup = E;
unicode = 01FC;
},
{
glyphname = AEmacron;
layers = (
{
layerId = "35E6D5AF-F775-49E3-B2B8-5BA74BD20843";
paths = (
{
closed = 1;
nodes = (
"798 733 LINE",
"798 790 LINE",
"519 790 LINE",
"519 733 LINE"
);
},
{
closed = 1;
nodes = (
"855 0 LINE",
"874 184 LINE",
"810 191 LINE",
"790 64 LINE",
"527 64 LINE",
"527 298 LINE",
"833 298 LINE",
"833 362 LINE",
"527 362 LINE",
"527 586 LINE",
"781 586 LINE",
"801 459 LINE",
"865 467 LINE",
"846 650 LINE",
"220 650 LINE",
"220 586 LINE",
"317 586 LINE",
"59 64 LINE",
"-7 64 LINE",
"-7 0 LINE",
"222 0 LINE",
"222 64 LINE",
"132 64 LINE",
"194 189 LINE",
"453 189 LINE",
"453 64 LINE",
"372 64 LINE",
"372 0 LINE"
);
},
{
closed = 1;
nodes = (
"453 246 LINE",
"221 246 LINE",
"387 586 LINE",
"453 586 LINE"
);
}
);
userData = {
assembly = "NPUSHB[ ]	/* 97 values pushed */\01221 20 2 11 8 30 1 4 15 31 1 3 4 3 74 0 1 0 0 9 1 0 101 0 11 0 12 15 11 12 101 16 1 15 0 4 3 15 4 101 14 10 2 8 8 9 93 0 9 9 89 75 13 7 5 3 3 3 2 93 6 1 2 2 90 2 76 32 32 32 35 32 35 34 33 29 28 27 26 25 24 23 22 19 18 17 17 17 17 17 17 17 17 16 17 11 29 \012CALL[ ]	/* CallFunction */";
};
width = 919;
}
);
note = uni01E2;
unicode = 01E2;
},
{
glyphname = B;
layers = (
{
layerId = "35E6D5AF-F775-49E3-B2B8-5BA74BD20843";
paths = (
{
closed = 1;
nodes = (
"564 266.667 OFFCURVE",
"519.667 335.333 OFFCURVE",
"425 350 CURVE",
"425 354 LINE",
"491.667 367.333 OFFCURVE",
"537 424.667 OFFCURVE",
"537 494 CURVE SMOOTH",
"537 587.333 OFFCURVE",
"473 650 OFFCURVE",
"341 650 CURVE SMOOTH",
"42 650 LINE",
"42 586 LINE",
"124 586 LINE",
"124 64 LINE",
"42 64 LINE",
"42 0 LINE",
"346 0 LINE SMOOTH",
"490 0 OFFCURVE",
"564 81.333 OFFCURVE",
"564 184 CURVE SMOOTH"
);
},
{
closed = 1;
nodes = (
"459 405 OFFCURVE",
"403.333 366 OFFCURVE",
"326 366 CURVE SMOOTH",
"197 366 LINE",
"197 586 LINE",
"329 586 LINE SMOOTH",
"410.333 586 OFFCURVE",
"459 558.333 OFFCURVE",
"459 477 CURVE SMOOTH"
);
},
{
closed = 1;
nodes = (
"486 101.333 OFFCURVE",
"426.333 64 OFFCURVE",
"333 64 CURVE SMOOTH",
"197 64 LINE",
"197 306 LINE",
"357 306 LINE SMOOTH",
"442.333 306 OFFCURVE",
"486 261.333 OFFCURVE",
"486 188 CURVE SMOOTH"
);
}
);
userData = {
assembly = "NPUSHB[ ]	/* 48 values pushed */\01216 1 6 5 1 74 0 5 0 6 1 5 6 101 4 1 2 2 3 93 0 3 3 89 75 7 1 1 1 0 93 0 0 0 90 0 76 33 36 33 43 33 17 17 34 8 11 28 \012CALL[ ]	/* CallFunction */";
};
width = 604;
}
);
leftKerningGroup = B;
note = uni0042;
rightKerningGroup = B;
unicode = 0042;
},
{
glyphname = C;
layers = (
{
layerId = "35E6D5AF-F775-49E3-B2B8-5BA74BD20843";
paths = (
{
closed = 1;
nodes = (
"592 175 LINE",
"530 181 LINE",
"511 85 LINE",
"472.333 65.667 OFFCURVE",
"424.667 56 OFFCURVE",
"368 56 CURVE SMOOTH",
"213.333 56 OFFCURVE",
"117 162.667 OFFCURVE",
"117 324 CURVE SMOOTH",
"117 481.333 OFFCURVE",
"212.333 594 OFFCURVE",
"355 594 CURVE SMOOTH",
"428.333 594 OFFCURVE",
"473.333 576 OFFCURVE",
"516 548 CURVE",
"534 453 LINE",
"597 459 LINE",
"579 584 LINE",
"525.667 629.333 OFFCURVE",
"457 660 OFFCURVE",
"349 660 CURVE SMOOTH",
"285.667 660 OFFCURVE",
"231 644.333 OFFCURVE",
"185 613 CURVE SMOOTH",
"93 550.333 OFFCURVE",
"40 441 OFFCURVE",
"40 321 CURVE SMOOTH",
"40 131.667 OFFCURVE",
"168.667 -10 OFFCURVE",
"358 -10 CURVE SMOOTH",
"450.667 -10 OFFCURVE",
"523 10 OFFCURVE",
"575 50 CURVE"
);
}
);
userData = {
assembly = "NPUSHB[ ]	/* 35 values pushed */\01228 13 2 3 2 1 74 0 2 2 1 95 0 1 1 97 75 0 3 3 0 95 0 0 0 98 0 76 36 39 37 33 4 11 24 \012CALL[ ]	/* CallFunction */";
};
width = 646;
}
);
leftKerningGroup = C;
note = uni0043;
rightKerningGroup = C;
unicode = 0043;
},
{
glyphname = Cacute;
layers = (
{
layerId = "35E6D5AF-F775-49E3-B2B8-5BA74BD20843";
paths = (
{
closed = 1;
nodes = (
"509 745 LINE",
"492 813 LINE",
"301 740 LINE",
"312 703 LINE"
);
},
{
closed = 1;
nodes = (
"592 175 LINE",
"530 181 LINE",
"511 85 LINE",
"472.333 65.667 OFFCURVE",
"424.667 56 OFFCURVE",
"368 56 CURVE SMOOTH",
"213.333 56 OFFCURVE",
"117 162.667 OFFCURVE",
"117 324 CURVE SMOOTH",
"117 481.333 OFFCURVE",
"212.333 594 OFFCURVE",
"355 594 CURVE SMOOTH",
"428.333 594 OFFCURVE",
"473.333 576 OFFCURVE",
"516 548 CURVE",
"534 453 LINE",
"597 459 LINE",
"579 584 LINE",
"525.667 629.333 OFFCURVE",
"457 660 OFFCURVE",
"349 660 CURVE SMOOTH",
"285.667 660 OFFCURVE",
"231 644.333 OFFCURVE",
"185 613 CURVE SMOOTH",
"93 550.333 OFFCURVE",
"40 441 OFFCURVE",
"40 321 CURVE SMOOTH",
"40 131.667 OFFCURVE",
"168.667 -10 OFFCURVE",
"358 -10 CURVE SMOOTH",
"450.667 -10 OFFCURVE",
"523 10 OFFCURVE",
"575 50 CURVE"
);
}
);
userData = {
assembly = "NPUSHB[ ]	/* 41 values pushed */\01232 17 2 3 2 1 74 3 2 1 3 1 72 0 2 2 1 95 0 1 1 97 75 0 3 3 0 95 0 0 0 98 0 76 36 39 37 37 4 11 24 \012CALL[ ]	/* CallFunction */";
};
width = 646;
}
);
leftKerningGroup = C;
note = uni0106;
rightKerningGroup = C;
unicode = 0106;
},
{
glyphname = Ccaron;
layers = (
{
layerId = "35E6D5AF-F775-49E3-B2B8-5BA74BD20843";
paths = (
{
closed = 1;
nodes = (
"494 792 LINE",
"475 827 LINE",
"360 763 LINE",
"240 824 LINE",
"220 790 LINE",
"346 701 LINE",
"368 701 LINE"
);
},
{
closed = 1;
nodes = (
"592 175 LINE",
"530 181 LINE",
"511 85 LINE",
"472.333 65.667 OFFCURVE",
"424.667 56 OFFCURVE",
"368 56 CURVE SMOOTH",
"213.333 56 OFFCURVE",
"117 162.667 OFFCURVE",
"117 324 CURVE SMOOTH",
"117 481.333 OFFCURVE",
"212.333 594 OFFCURVE",
"355 594 CURVE SMOOTH",
"428.333 594 OFFCURVE",
"473.333 576 OFFCURVE",
"516 548 CURVE",
"534 453 LINE",
"597 459 LINE",
"579 584 LINE",
"525.667 629.333 OFFCURVE",
"457 660 OFFCURVE",
"349 660 CURVE SMOOTH",
"285.667 660 OFFCURVE",
"231 644.333 OFFCURVE",
"185 613 CURVE SMOOTH",
"93 550.333 OFFCURVE",
"40 441 OFFCURVE",
"40 321 CURVE SMOOTH",
"40 131.667 OFFCURVE",
"168.667 -10 OFFCURVE",
"358 -10 CURVE SMOOTH",
"450.667 -10 OFFCURVE",
"523 10 OFFCURVE",
"575 50 CURVE"
);
}
);
userData = {
assembly = "NPUSHB[ ]	/* 48 values pushed */\01235 20 2 4 3 1 74 6 5 4 3 4 0 72 0 0 2 0 131 0 3 3 2 95 0 2 2 97 75 0 4 4 1 95 0 1 1 98 1 76 36 39 37 38 17 5 11 25 \012CALL[ ]	/* CallFunction */";
};
width = 646;
}
);
leftKerningGroup = C;
note = uni010C;
rightKerningGroup = C;
unicode = 010C;
},
{
glyphname = Ccedilla;
layers = (
{
layerId = "35E6D5AF-F775-49E3-B2B8-5BA74BD20843";
paths = (
{
closed = 1;
nodes = (
"463 -81 OFFCURVE",
"435.333 -47 OFFCURVE",
"374 -47 CURVE SMOOTH",
"366 -47 LINE",
"366 -10 LINE",
"455.333 -8 OFFCURVE",
"524.667 12 OFFCURVE",
"574 50 CURVE",
"591 175 LINE",
"529 181 LINE",
"510 85 LINE",
"471.333 65.667 OFFCURVE",
"423.667 56 OFFCURVE",
"367 56 CURVE SMOOTH",
"212.333 56 OFFCURVE",
"116 162.667 OFFCURVE",
"116 324 CURVE SMOOTH",
"116 481.333 OFFCURVE",
"212.667 594 OFFCURVE",
"354 594 CURVE SMOOTH",
"427.333 594 OFFCURVE",
"473.667 576 OFFCURVE",
"515 548 CURVE",
"533 453 LINE",
"596 459 LINE",
"578 584 LINE",
"524.667 629.333 OFFCURVE",
"456 660 OFFCURVE",
"348 660 CURVE SMOOTH",
"285.333 660 OFFCURVE",
"230.833 644.333 OFFCURVE",
"184.5 613 CURVE SMOOTH",
"91.833 550.333 OFFCURVE",
"39 441 OFFCURVE",
"39 321 CURVE SMOOTH",
"39 146.333 OFFCURVE",
"148.667 11.667 OFFCURVE",
"314 -7 CURVE",
"314 -80 LINE",
"344 -80 LINE SMOOTH",
"376 -80 OFFCURVE",
"402 -86.667 OFFCURVE",
"402 -120 CURVE SMOOTH",
"402 -147.333 OFFCURVE",
"385 -161 OFFCURVE",
"351 -161 CURVE SMOOTH",
"321 -161 OFFCURVE",
"296 -153.333 OFFCURVE",
"276 -138 CURVE",
"259 -179 LINE",
"283 -199 OFFCURVE",
"315 -209 OFFCURVE",
"355 -209 CURVE SMOOTH",
"412.333 -209 OFFCURVE",
"463 -185 OFFCURVE",
"463 -125 CURVE SMOOTH"
);
}
);
userData = {
assembly = "NPUSHB[ ]	/* 19 values pushed */\01241 26 2 5 4 15 1 6 5 6 1 1 2 5 1 0 1 4 74 \012MPPEM[ ]	/* MeasurePixelPerEm */\012PUSHB[ ]	/* 1 value pushed */\01210 \012LT[ ]	/* LessThan */\012IF[ ]	/* If */\012NPUSHB[ ]	/* 44 values pushed */\0120 7 6 2 1 7 112 0 2 1 6 2 110 0 4 4 3 95 0 3 3 97 75 0 5 5 6 95 0 6 6 98 75 0 1 1 0 96 0 0 0 94 0 76 \012ELSE[ ]	/* Else */\012MPPEM[ ]	/* MeasurePixelPerEm */\012PUSHB[ ]	/* 1 value pushed */\01217 \012LT[ ]	/* LessThan */\012IF[ ]	/* If */\012NPUSHB[ ]	/* 45 values pushed */\0120 7 6 2 6 7 2 126 0 2 1 6 2 110 0 4 4 3 95 0 3 3 97 75 0 5 5 6 95 0 6 6 98 75 0 1 1 0 96 0 0 0 94 0 76 \012ELSE[ ]	/* Else */\012NPUSHB[ ]	/* 46 values pushed */\0120 7 6 2 6 7 2 126 0 2 1 6 2 1 124 0 4 4 3 95 0 3 3 97 75 0 5 5 6 95 0 6 6 98 75 0 1 1 0 96 0 0 0 94 0 76 \012EIF[ ]	/* EndIf */\012EIF[ ]	/* EndIf */\012NPUSHB[ ]	/* 11 values pushed */\01233 21 36 39 39 35 35 34 8 11 28 \012CALL[ ]	/* CallFunction */";
};
width = 646;
}
);
leftKerningGroup = C;
note = uni00C7;
rightKerningGroup = C;
unicode = 00C7;
},
{
glyphname = Ccircumflex;
layers = (
{
layerId = "35E6D5AF-F775-49E3-B2B8-5BA74BD20843";
paths = (
{
closed = 1;
nodes = (
"497 737 LINE",
"371 827 LINE",
"350 827 LINE",
"223 734 LINE",
"242 701 LINE",
"358 764 LINE",
"478 702 LINE"
);
},
{
closed = 1;
nodes = (
"592 175 LINE",
"530 181 LINE",
"511 85 LINE",
"472.333 65.667 OFFCURVE",
"424.667 56 OFFCURVE",
"368 56 CURVE SMOOTH",
"213.333 56 OFFCURVE",
"117 162.667 OFFCURVE",
"117 324 CURVE SMOOTH",
"117 481.333 OFFCURVE",
"212.333 594 OFFCURVE",
"355 594 CURVE SMOOTH",
"428.333 594 OFFCURVE",
"473.333 576 OFFCURVE",
"516 548 CURVE",
"534 453 LINE",
"597 459 LINE",
"579 584 LINE",
"525.667 629.333 OFFCURVE",
"457 660 OFFCURVE",
"349 660 CURVE SMOOTH",
"285.667 660 OFFCURVE",
"231 644.333 OFFCURVE",
"185 613 CURVE SMOOTH",
"93 550.333 OFFCURVE",
"40 441 OFFCURVE",
"40 321 CURVE SMOOTH",
"40 131.667 OFFCURVE",
"168.667 -10 OFFCURVE",
"358 -10 CURVE SMOOTH",
"450.667 -10 OFFCURVE",
"523 10 OFFCURVE",
"575 50 CURVE"
);
}
);
userData = {
assembly = "NPUSHB[ ]	/* 48 values pushed */\0124 3 2 1 4 2 0 35 20 2 4 3 2 74 0 0 2 0 131 0 3 3 2 95 0 2 2 97 75 0 4 4 1 95 0 1 1 98 1 76 36 39 37 34 21 5 11 25 \012CALL[ ]	/* CallFunction */";
};
width = 646;
}
);
leftKerningGroup = C;
note = uni0108;
rightKerningGroup = C;
unicode = 0108;
},
{
glyphname = Cdotaccent;
layers = (
{
layerId = "35E6D5AF-F775-49E3-B2B8-5BA74BD20843";
paths = (
{
closed = 1;
nodes = (
"312 718 LINE",
"393 718 LINE",
"393 803 LINE",
"312 803 LINE"
);
},
{
closed = 1;
nodes = (
"592 175 LINE",
"530 181 LINE",
"511 85 LINE",
"472.333 65.667 OFFCURVE",
"424.667 56 OFFCURVE",
"368 56 CURVE SMOOTH",
"213.333 56 OFFCURVE",
"117 162.667 OFFCURVE",
"117 324 CURVE SMOOTH",
"117 481.333 OFFCURVE",
"212.333 594 OFFCURVE",
"355 594 CURVE SMOOTH",
"428.333 594 OFFCURVE",
"473.333 576 OFFCURVE",
"516 548 CURVE",
"534 453 LINE",
"597 459 LINE",
"579 584 LINE",
"525.667 629.333 OFFCURVE",
"457 660 OFFCURVE",
"349 660 CURVE SMOOTH",
"285.667 660 OFFCURVE",
"231 644.333 OFFCURVE",
"185 613 CURVE SMOOTH",
"93 550.333 OFFCURVE",
"40 441 OFFCURVE",
"40 321 CURVE SMOOTH",
"40 131.667 OFFCURVE",
"168.667 -10 OFFCURVE",
"358 -10 CURVE SMOOTH",
"450.667 -10 OFFCURVE",
"523 10 OFFCURVE",
"575 50 CURVE"
);
}
);
userData = {
assembly = "NPUSHB[ ]	/* 55 values pushed */\01232 17 2 5 4 1 74 0 0 6 1 1 3 0 1 101 0 4 4 3 95 0 3 3 97 75 0 5 5 2 95 0 2 2 98 2 76 0 0 29 27 23 21 14 12 7 5 0 3 0 3 17 7 11 21 \012CALL[ ]	/* CallFunction */";
};
width = 646;
}
);
leftKerningGroup = C;
note = uni010A;
rightKerningGroup = C;
unicode = 010A;
},
{
glyphname = D;
layers = (
{
layerId = "35E6D5AF-F775-49E3-B2B8-5BA74BD20843";
paths = (
{
closed = 1;
nodes = (
"665 514 OFFCURVE",
"545 650 OFFCURVE",
"333 650 CURVE SMOOTH",
"42 650 LINE",
"42 587 LINE",
"124 587 LINE",
"124 63 LINE",
"42 63 LINE",
"42 0 LINE",
"336 0 LINE SMOOTH",
"541.333 0 OFFCURVE",
"665 135.333 OFFCURVE",
"665 326 CURVE SMOOTH"
);
},
{
closed = 1;
nodes = (
"587 163.667 OFFCURVE",
"497.333 63 OFFCURVE",
"332 63 CURVE SMOOTH",
"197 63 LINE",
"197 587 LINE",
"332 587 LINE SMOOTH",
"497.333 587 OFFCURVE",
"587 482.333 OFFCURVE",
"587 325 CURVE SMOOTH"
);
}
);
userData = {
assembly = "NPUSHB[ ]	/* 32 values pushed */\0124 1 2 2 3 93 0 3 3 89 75 5 1 1 1 0 93 0 0 0 90 0 76 33 36 33 17 17 34 6 11 26 \012CALL[ ]	/* CallFunction */";
};
width = 705;
}
);
leftKerningGroup = B;
note = uni0044;
rightKerningGroup = D;
unicode = 0044;
},
{
glyphname = DZ;
layers = (
{
layerId = "35E6D5AF-F775-49E3-B2B8-5BA74BD20843";
paths = (
{
closed = 1;
nodes = (
"1215 0 LINE",
"1241 193 LINE",
"1178 202 LINE",
"1150 64 LINE",
"836 64 LINE",
"836 67 LINE",
"1222 610 LINE",
"1220 650 LINE",
"772 650 LINE",
"747 462 LINE",
"809 453 LINE",
"837 586 LINE",
"1117 586 LINE",
"1117 583 LINE",
"733 44 LINE",
"735 0 LINE"
);
},
{
closed = 1;
nodes = (
"665 514 OFFCURVE",
"545 650 OFFCURVE",
"333 650 CURVE SMOOTH",
"42 650 LINE",
"42 587 LINE",
"124 587 LINE",
"124 63 LINE",
"42 63 LINE",
"42 0 LINE",
"336 0 LINE SMOOTH",
"541.333 0 OFFCURVE",
"665 135.333 OFFCURVE",
"665 326 CURVE SMOOTH"
);
},
{
closed = 1;
nodes = (
"587 163.667 OFFCURVE",
"497.333 63 OFFCURVE",
"332 63 CURVE SMOOTH",
"197 63 LINE",
"197 587 LINE",
"332 587 LINE SMOOTH",
"497.333 587 OFFCURVE",
"587 482.333 OFFCURVE",
"587 325 CURVE SMOOTH"
);
}
);
userData = {
assembly = "NPUSHB[ ]	/* 58 values pushed */\01210 1 1 2 15 14 7 6 4 3 1 2 1 0 3 3 74 8 6 2 1 1 2 93 7 1 2 2 89 75 9 5 2 3 3 0 93 4 1 0 0 90 0 76 36 34 36 33 17 17 37 34 19 34 16 10 11 29 \012CALL[ ]	/* CallFunction */";
};
width = 1279;
}
);
leftKerningGroup = B;
note = uni01F1;
rightKerningGroup = Z;
unicode = 01F1;
},
{
glyphname = DZcaron;
layers = (
{
layerId = "35E6D5AF-F775-49E3-B2B8-5BA74BD20843";
paths = (
{
closed = 1;
nodes = (
"1134 792 LINE",
"1115 827 LINE",
"1000 763 LINE",
"880 824 LINE",
"860 790 LINE",
"986 701 LINE",
"1008 701 LINE"
);
},
{
closed = 1;
nodes = (
"1218 0 LINE",
"1244 193 LINE",
"1181 202 LINE",
"1153 64 LINE",
"839 64 LINE",
"839 67 LINE",
"1225 610 LINE",
"1223 650 LINE",
"775 650 LINE",
"750 462 LINE",
"812 453 LINE",
"840 586 LINE",
"1120 586 LINE",
"1120 583 LINE",
"736 44 LINE",
"738 0 LINE"
);
},
{
closed = 1;
nodes = (
"665 514 OFFCURVE",
"545 650 OFFCURVE",
"333 650 CURVE SMOOTH",
"42 650 LINE",
"42 587 LINE",
"124 587 LINE",
"124 63 LINE",
"42 63 LINE",
"42 0 LINE",
"336 0 LINE SMOOTH",
"541.333 0 OFFCURVE",
"665 135.333 OFFCURVE",
"665 326 CURVE SMOOTH"
);
},
{
closed = 1;
nodes = (
"587 163.667 OFFCURVE",
"497.333 63 OFFCURVE",
"332 63 CURVE SMOOTH",
"197 63 LINE",
"197 587 LINE",
"332 587 LINE SMOOTH",
"497.333 587 OFFCURVE",
"587 482.333 OFFCURVE",
"587 325 CURVE SMOOTH"
);
}
);
userData = {
assembly = "NPUSHB[ ]	/* 72 values pushed */\01217 1 2 3 22 21 14 13 4 4 2 9 1 1 4 3 74 6 5 4 3 4 0 72 0 0 3 0 131 9 7 2 2 2 3 93 8 1 3 3 89 75 10 6 2 4 4 1 93 5 1 1 1 90 1 76 43 41 40 38 33 17 17 37 34 19 34 21 17 11 11 29 \012CALL[ ]	/* CallFunction */";
};
width = 1281;
}
);
leftKerningGroup = B;
note = uni01C4;
rightKerningGroup = Z;
unicode = 01C4;
},
{
glyphname = Eth;
layers = (
{
layerId = "35E6D5AF-F775-49E3-B2B8-5BA74BD20843";
paths = (
{
closed = 1;
nodes = (
"665 514 OFFCURVE",
"545 650 OFFCURVE",
"333 650 CURVE SMOOTH",
"42 650 LINE",
"42 587 LINE",
"124 587 LINE",
"124 370 LINE",
"46 370 LINE",
"46 308 LINE",
"124 308 LINE",
"124 63 LINE",
"42 63 LINE",
"42 0 LINE",
"336 0 LINE SMOOTH",
"541.333 0 OFFCURVE",
"665 135.333 OFFCURVE",
"665 326 CURVE SMOOTH"
);
},
{
closed = 1;
nodes = (
"587 163.667 OFFCURVE",
"497.333 63 OFFCURVE",
"332 63 CURVE SMOOTH",
"197 63 LINE",
"197 308 LINE",
"332 308 LINE",
"332 370 LINE",
"197 370 LINE",
"197 587 LINE",
"332 587 LINE SMOOTH",
"497.333 587 OFFCURVE",
"587 482.333 OFFCURVE",
"587 325 CURVE SMOOTH"
);
}
);
userData = {
assembly = "NPUSHB[ ]	/* 47 values pushed */\0127 1 3 8 1 2 1 3 2 101 6 1 4 4 5 93 0 5 5 89 75 9 1 1 1 0 93 0 0 0 90 0 76 28 26 17 17 36 33 17 17 17 17 34 10 11 29 \012CALL[ ]	/* CallFunction */";
};
width = 706;
}
);
leftKerningGroup = B;
note = uni00D0;
rightKerningGroup = D;
unicode = 00D0;
},
{
glyphname = Dcaron;
layers = (
{
layerId = "35E6D5AF-F775-49E3-B2B8-5BA74BD20843";
paths = (
{
closed = 1;
nodes = (
"441 792 LINE",
"422 827 LINE",
"307 763 LINE",
"187 824 LINE",
"167 790 LINE",
"293 701 LINE",
"315 701 LINE"
);
},
{
closed = 1;
nodes = (
"665 514 OFFCURVE",
"545 650 OFFCURVE",
"333 650 CURVE SMOOTH",
"42 650 LINE",
"42 587 LINE",
"124 587 LINE",
"124 63 LINE",
"42 63 LINE",
"42 0 LINE",
"336 0 LINE SMOOTH",
"541.333 0 OFFCURVE",
"665 135.333 OFFCURVE",
"665 326 CURVE SMOOTH"
);
},
{
closed = 1;
nodes = (
"587 163.667 OFFCURVE",
"497.333 63 OFFCURVE",
"332 63 CURVE SMOOTH",
"197 63 LINE",
"197 587 LINE",
"332 587 LINE SMOOTH",
"497.333 587 OFFCURVE",
"587 482.333 OFFCURVE",
"587 325 CURVE SMOOTH"
);
}
);
userData = {
assembly = "NPUSHB[ ]	/* 45 values pushed */\0126 5 4 3 4 0 72 0 0 4 0 131 5 1 3 3 4 93 0 4 4 89 75 6 1 2 2 1 93 0 1 1 90 1 76 33 36 33 17 17 39 17 7 11 27 \012CALL[ ]	/* CallFunction */";
};
width = 705;
}
);
leftKerningGroup = B;
note = uni010E;
rightKerningGroup = D;
unicode = 010E;
},
{
glyphname = Dcroat;
layers = (
{
layerId = "35E6D5AF-F775-49E3-B2B8-5BA74BD20843";
paths = (
{
closed = 1;
nodes = (
"665 514 OFFCURVE",
"545 650 OFFCURVE",
"333 650 CURVE SMOOTH",
"42 650 LINE",
"42 587 LINE",
"124 587 LINE",
"124 370 LINE",
"46 370 LINE",
"46 308 LINE",
"124 308 LINE",
"124 63 LINE",
"42 63 LINE",
"42 0 LINE",
"336 0 LINE SMOOTH",
"541.333 0 OFFCURVE",
"665 135.333 OFFCURVE",
"665 326 CURVE SMOOTH"
);
},
{
closed = 1;
nodes = (
"587 163.667 OFFCURVE",
"497.333 63 OFFCURVE",
"332 63 CURVE SMOOTH",
"197 63 LINE",
"197 308 LINE",
"332 308 LINE",
"332 370 LINE",
"197 370 LINE",
"197 587 LINE",
"332 587 LINE SMOOTH",
"497.333 587 OFFCURVE",
"587 482.333 OFFCURVE",
"587 325 CURVE SMOOTH"
);
}
);
userData = {
assembly = "NPUSHB[ ]	/* 47 values pushed */\0127 1 3 8 1 2 1 3 2 101 6 1 4 4 5 93 0 5 5 89 75 9 1 1 1 0 93 0 0 0 90 0 76 28 26 17 17 36 33 17 17 17 17 34 10 11 29 \012CALL[ ]	/* CallFunction */";
};
width = 706;
}
);
leftKerningGroup = B;
note = uni0110;
rightKerningGroup = D;
unicode = 0110;
},
{
glyphname = Dz;
layers = (
{
layerId = "35E6D5AF-F775-49E3-B2B8-5BA74BD20843";
paths = (
{
closed = 1;
nodes = (
"665 514 OFFCURVE",
"545 650 OFFCURVE",
"333 650 CURVE SMOOTH",
"42 650 LINE",
"42 587 LINE",
"124 587 LINE",
"124 63 LINE",
"42 63 LINE",
"42 0 LINE",
"336 0 LINE SMOOTH",
"541.333 0 OFFCURVE",
"665 135.333 OFFCURVE",
"665 326 CURVE SMOOTH"
);
},
{
closed = 1;
nodes = (
"587 163.667 OFFCURVE",
"497.333 63 OFFCURVE",
"332 63 CURVE SMOOTH",
"197 63 LINE",
"197 587 LINE",
"332 587 LINE SMOOTH",
"497.333 587 OFFCURVE",
"587 482.333 OFFCURVE",
"587 325 CURVE SMOOTH"
);
},
{
closed = 1;
nodes = (
"1117 0 LINE",
"1141 138 LINE",
"1084 147 LINE",
"1061 57 LINE",
"832 57 LINE",
"1114 403 LINE",
"1111 445 LINE",
"753 445 LINE",
"741 306 LINE",
"797 299 LINE",
"810 388 LINE",
"1020 388 LINE",
"740 43 LINE",
"743 0 LINE"
);
}
);
userData = {
assembly = "MPPEM[ ]	/* MeasurePixelPerEm */\012PUSHB[ ]	/* 1 value pushed */\01239 \012LT[ ]	/* LessThan */\012IF[ ]	/* If */\012NPUSHB[ ]	/* 13 values pushed */\01235 34 28 27 4 1 7 24 1 0 1 2 74 \012ELSE[ ]	/* Else */\012NPUSHB[ ]	/* 13 values pushed */\01235 34 28 27 4 1 7 24 1 0 9 2 74 \012EIF[ ]	/* EndIf */\012MPPEM[ ]	/* MeasurePixelPerEm */\012PUSHB[ ]	/* 1 value pushed */\01239 \012LT[ ]	/* LessThan */\012IF[ ]	/* If */\012NPUSHB[ ]	/* 35 values pushed */\0124 1 2 2 3 93 0 3 3 89 75 0 7 7 8 93 0 8 8 92 75 9 5 2 1 1 0 93 6 1 0 0 90 0 76 \012ELSE[ ]	/* Else */\012NPUSHB[ ]	/* 45 values pushed */\0124 1 2 2 3 93 0 3 3 89 75 0 7 7 8 93 0 8 8 92 75 5 1 1 1 0 93 6 1 0 0 90 75 0 9 9 0 93 6 1 0 0 90 0 76 \012EIF[ ]	/* EndIf */\012NPUSHB[ ]	/* 14 values pushed */\01233 32 19 18 18 33 36 33 17 17 34 10 11 29 \012CALL[ ]	/* CallFunction */";
};
width = 1169;
}
);
note = uni01F2;
rightKerningGroup = z;
unicode = 01F2;
},
{
glyphname = Dzcaron;
layers = (
{
layerId = "35E6D5AF-F775-49E3-B2B8-5BA74BD20843";
paths = (
{
closed = 1;
nodes = (
"1075 638 LINE",
"1049 671 LINE",
"947 586 LINE",
"837 670 LINE",
"811 636 LINE",
"932 519 LINE",
"954 519 LINE"
);
},
{
closed = 1;
nodes = (
"665 514 OFFCURVE",
"545 650 OFFCURVE",
"333 650 CURVE SMOOTH",
"42 650 LINE",
"42 587 LINE",
"124 587 LINE",
"124 63 LINE",
"42 63 LINE",
"42 0 LINE",
"336 0 LINE SMOOTH",
"541.333 0 OFFCURVE",
"665 135.333 OFFCURVE",
"665 326 CURVE SMOOTH"
);
},
{
closed = 1;
nodes = (
"587 163.667 OFFCURVE",
"497.333 63 OFFCURVE",
"332 63 CURVE SMOOTH",
"197 63 LINE",
"197 587 LINE",
"332 587 LINE SMOOTH",
"497.333 587 OFFCURVE",
"587 482.333 OFFCURVE",
"587 325 CURVE SMOOTH"
);
},
{
closed = 1;
nodes = (
"1117 0 LINE",
"1141 138 LINE",
"1084 147 LINE",
"1061 57 LINE",
"832 57 LINE",
"1114 403 LINE",
"1111 445 LINE",
"753 445 LINE",
"741 306 LINE",
"797 299 LINE",
"810 388 LINE",
"1020 388 LINE",
"740 43 LINE",
"743 0 LINE"
);
}
);
userData = {
assembly = "MPPEM[ ]	/* MeasurePixelPerEm */\012PUSHB[ ]	/* 1 value pushed */\01239 \012LT[ ]	/* LessThan */\012IF[ ]	/* If */\012NPUSHB[ ]	/* 26 values pushed */\0123 1 3 4 5 1 0 3 42 41 35 34 4 2 8 31 1 1 2 4 74 6 4 2 4 72 \012ELSE[ ]	/* Else */\012NPUSHB[ ]	/* 26 values pushed */\0123 1 3 4 5 1 0 3 42 41 35 34 4 2 8 31 1 1 10 4 74 6 4 2 4 72 \012EIF[ ]	/* EndIf */\012MPPEM[ ]	/* MeasurePixelPerEm */\012PUSHB[ ]	/* 1 value pushed */\01239 \012LT[ ]	/* LessThan */\012IF[ ]	/* If */\012NPUSHB[ ]	/* 43 values pushed */\0120 0 3 9 3 0 9 126 5 1 3 3 4 93 0 4 4 89 75 0 8 8 9 93 0 9 9 92 75 10 6 2 2 2 1 93 7 1 1 1 90 1 76 \012ELSE[ ]	/* Else */\012NPUSHB[ ]	/* 53 values pushed */\0120 0 3 9 3 0 9 126 5 1 3 3 4 93 0 4 4 89 75 0 8 8 9 93 0 9 9 92 75 6 1 2 2 1 93 7 1 1 1 90 75 0 10 10 1 93 7 1 1 1 90 1 76 \012EIF[ ]	/* EndIf */\012NPUSHB[ ]	/* 16 values pushed */\01240 39 37 36 18 18 33 36 33 17 17 39 17 11 11 29 \012CALL[ ]	/* CallFunction */";
};
width = 1169;
}
);
note = uni01C5;
rightKerningGroup = z;
unicode = 01C5;
},
{
glyphname = E;
layers = (
{
layerId = "35E6D5AF-F775-49E3-B2B8-5BA74BD20843";
paths = (
{
closed = 1;
nodes = (
"526 0 LINE",
"545 184 LINE",
"482 191 LINE",
"462 64 LINE",
"197 64 LINE",
"197 298 LINE",
"504 298 LINE",
"504 362 LINE",
"197 362 LINE",
"197 586 LINE",
"453 586 LINE",
"473 459 LINE",
"537 466 LINE",
"517 650 LINE",
"42 650 LINE",
"42 586 LINE",
"124 586 LINE",
"124 64 LINE",
"42 64 LINE",
"42 0 LINE"
);
}
);
userData = {
assembly = "NPUSHB[ ]	/* 54 values pushed */\0129 8 2 5 2 19 18 2 1 6 2 74 0 5 0 6 1 5 6 101 4 1 2 2 3 93 0 3 3 89 75 7 1 1 1 0 93 0 0 0 90 0 76 17 17 17 19 17 17 17 16 8 11 28 \012CALL[ ]	/* CallFunction */";
};
width = 588;
}
);
leftKerningGroup = B;
note = uni0045;
rightKerningGroup = E;
unicode = 0045;
},
{
glyphname = Eacute;
layers = (
{
layerId = "35E6D5AF-F775-49E3-B2B8-5BA74BD20843";
paths = (
{
closed = 1;
nodes = (
"465 745 LINE",
"448 813 LINE",
"257 740 LINE",
"268 703 LINE"
);
},
{
closed = 1;
nodes = (
"526 0 LINE",
"545 184 LINE",
"482 191 LINE",
"462 64 LINE",
"197 64 LINE",
"197 298 LINE",
"504 298 LINE",
"504 362 LINE",
"197 362 LINE",
"197 586 LINE",
"453 586 LINE",
"473 459 LINE",
"537 466 LINE",
"517 650 LINE",
"42 650 LINE",
"42 586 LINE",
"124 586 LINE",
"124 64 LINE",
"42 64 LINE",
"42 0 LINE"
);
}
);
userData = {
assembly = "NPUSHB[ ]	/* 60 values pushed */\01213 12 2 5 2 23 22 2 1 6 2 74 3 2 1 3 3 72 0 5 0 6 1 5 6 101 4 1 2 2 3 93 0 3 3 89 75 7 1 1 1 0 93 0 0 0 90 0 76 17 17 17 19 17 17 17 20 8 11 28 \012CALL[ ]	/* CallFunction */";
};
width = 589;
}
);
leftKerningGroup = B;
note = uni00C9;
rightKerningGroup = E;
unicode = 00C9;
},
{
glyphname = Ebreve;
layers = (
{
layerId = "35E6D5AF-F775-49E3-B2B8-5BA74BD20843";
paths = (
{
closed = 1;
nodes = (
"391 816 LINE",
"391 770 OFFCURVE",
"369.667 747 OFFCURVE",
"327 747 CURVE SMOOTH",
"285.667 747 OFFCURVE",
"263 762.667 OFFCURVE",
"263 816 CURVE",
"205 816 LINE",
"205 738 OFFCURVE",
"245.667 699 OFFCURVE",
"327 699 CURVE SMOOTH",
"408.333 699 OFFCURVE",
"449 738 OFFCURVE",
"449 816 CURVE"
);
},
{
closed = 1;
nodes = (
"526 0 LINE",
"545 184 LINE",
"482 191 LINE",
"462 64 LINE",
"197 64 LINE",
"197 298 LINE",
"504 298 LINE",
"504 362 LINE",
"197 362 LINE",
"197 586 LINE",
"453 586 LINE",
"473 459 LINE",
"537 466 LINE",
"517 650 LINE",
"42 650 LINE",
"42 586 LINE",
"124 586 LINE",
"124 64 LINE",
"42 64 LINE",
"42 0 LINE"
);
}
);
userData = {
assembly = "NPUSHB[ ]	/* 12 values pushed */\01220 19 2 9 6 30 29 2 5 10 2 74 \012MPPEM[ ]	/* MeasurePixelPerEm */\012PUSHB[ ]	/* 1 value pushed */\01219 \012LT[ ]	/* LessThan */\012IF[ ]	/* If */\012NPUSHB[ ]	/* 47 values pushed */\01212 3 2 1 2 2 1 110 0 2 0 0 7 2 0 104 0 9 0 10 5 9 10 101 8 1 6 6 7 93 0 7 7 89 75 11 1 5 5 4 93 0 4 4 90 4 76 \012ELSE[ ]	/* Else */\012NPUSHB[ ]	/* 46 values pushed */\01212 3 2 1 2 1 131 0 2 0 0 7 2 0 104 0 9 0 10 5 9 10 101 8 1 6 6 7 93 0 7 7 89 75 11 1 5 5 4 93 0 4 4 90 4 76 \012EIF[ ]	/* EndIf */\012NPUSHB[ ]	/* 28 values pushed */\0120 0 28 27 26 25 24 23 22 21 18 17 16 15 14 13 12 11 0 10 0 10 34 17 33 13 11 23 \012CALL[ ]	/* CallFunction */";
};
width = 589;
}
);
leftKerningGroup = B;
note = uni0114;
rightKerningGroup = E;
unicode = 0114;
},
{
glyphname = Ecaron;
layers = (
{
layerId = "35E6D5AF-F775-49E3-B2B8-5BA74BD20843";
paths = (
{
closed = 1;
nodes = (
"455 792 LINE",
"436 827 LINE",
"321 763 LINE",
"201 824 LINE",
"181 790 LINE",
"307 701 LINE",
"329 701 LINE"
);
},
{
closed = 1;
nodes = (
"526 0 LINE",
"545 184 LINE",
"482 191 LINE",
"462 64 LINE",
"197 64 LINE",
"197 298 LINE",
"504 298 LINE",
"504 362 LINE",
"197 362 LINE",
"197 586 LINE",
"453 586 LINE",
"473 459 LINE",
"537 466 LINE",
"517 650 LINE",
"42 650 LINE",
"42 586 LINE",
"124 586 LINE",
"124 64 LINE",
"42 64 LINE",
"42 0 LINE"
);
}
);
userData = {
assembly = "NPUSHB[ ]	/* 67 values pushed */\01216 15 2 6 3 26 25 2 2 7 2 74 6 5 4 3 4 0 72 0 0 4 0 131 0 6 0 7 2 6 7 101 5 1 3 3 4 93 0 4 4 89 75 8 1 2 2 1 93 0 1 1 90 1 76 17 17 17 19 17 17 17 21 17 9 11 29 \012CALL[ ]	/* CallFunction */";
};
width = 589;
}
);
leftKerningGroup = B;
note = uni011A;
rightKerningGroup = E;
unicode = 011A;
},
{
glyphname = Ecircumflex;
layers = (
{
layerId = "35E6D5AF-F775-49E3-B2B8-5BA74BD20843";
paths = (
{
closed = 1;
nodes = (
"468 737 LINE",
"342 827 LINE",
"321 827 LINE",
"194 734 LINE",
"213 701 LINE",
"329 764 LINE",
"449 702 LINE"
);
},
{
closed = 1;
nodes = (
"526 0 LINE",
"545 184 LINE",
"482 191 LINE",
"462 64 LINE",
"197 64 LINE",
"197 298 LINE",
"504 298 LINE",
"504 362 LINE",
"197 362 LINE",
"197 586 LINE",
"453 586 LINE",
"473 459 LINE",
"537 466 LINE",
"517 650 LINE",
"42 650 LINE",
"42 586 LINE",
"124 586 LINE",
"124 64 LINE",
"42 64 LINE",
"42 0 LINE"
);
}
);
userData = {
assembly = "NPUSHB[ ]	/* 67 values pushed */\0124 3 2 1 4 4 0 16 15 2 6 3 26 25 2 2 7 3 74 0 0 4 0 131 0 6 0 7 2 6 7 101 5 1 3 3 4 93 0 4 4 89 75 8 1 2 2 1 93 0 1 1 90 1 76 17 17 17 19 17 17 17 17 21 9 11 29 \012CALL[ ]	/* CallFunction */";
};
width = 589;
}
);
leftKerningGroup = B;
note = uni00CA;
rightKerningGroup = E;
unicode = 00CA;
},
{
glyphname = Edieresis;
layers = (
{
layerId = "35E6D5AF-F775-49E3-B2B8-5BA74BD20843";
paths = (
{
closed = 1;
nodes = (
"196 718 LINE",
"277 718 LINE",
"277 803 LINE",
"196 803 LINE"
);
},
{
closed = 1;
nodes = (
"368 718 LINE",
"448 718 LINE",
"448 803 LINE",
"368 803 LINE"
);
},
{
closed = 1;
nodes = (
"526 0 LINE",
"545 184 LINE",
"482 191 LINE",
"462 64 LINE",
"197 64 LINE",
"197 298 LINE",
"504 298 LINE",
"504 362 LINE",
"197 362 LINE",
"197 586 LINE",
"453 586 LINE",
"473 459 LINE",
"537 466 LINE",
"517 650 LINE",
"42 650 LINE",
"42 586 LINE",
"124 586 LINE",
"124 64 LINE",
"42 64 LINE",
"42 0 LINE"
);
}
);
userData = {
assembly = "NPUSHB[ ]	/* 89 values pushed */\01217 16 2 9 6 27 26 2 5 10 2 74 2 1 0 13 3 12 3 1 7 0 1 101 0 9 0 10 5 9 10 101 8 1 6 6 7 93 0 7 7 89 75 11 1 5 5 4 93 0 4 4 90 4 76 4 4 0 0 25 24 23 22 21 20 19 18 15 14 13 12 11 10 9 8 4 7 4 7 6 5 0 3 0 3 17 14 11 21 \012CALL[ ]	/* CallFunction */";
};
width = 589;
}
);
leftKerningGroup = B;
note = uni00CB;
rightKerningGroup = E;
unicode = 00CB;
},
{
glyphname = Edotaccent;
layers = (
{
layerId = "35E6D5AF-F775-49E3-B2B8-5BA74BD20843";
paths = (
{
closed = 1;
nodes = (
"281 718 LINE",
"362 718 LINE",
"362 803 LINE",
"281 803 LINE"
);
},
{
closed = 1;
nodes = (
"526 0 LINE",
"545 184 LINE",
"482 191 LINE",
"462 64 LINE",
"197 64 LINE",
"197 298 LINE",
"504 298 LINE",
"504 362 LINE",
"197 362 LINE",
"197 586 LINE",
"453 586 LINE",
"473 459 LINE",
"537 466 LINE",
"517 650 LINE",
"42 650 LINE",
"42 586 LINE",
"124 586 LINE",
"124 64 LINE",
"42 64 LINE",
"42 0 LINE"
);
}
);
userData = {
assembly = "NPUSHB[ ]	/* 78 values pushed */\01213 12 2 7 4 23 22 2 3 8 2 74 0 0 10 1 1 5 0 1 101 0 7 0 8 3 7 8 101 6 1 4 4 5 93 0 5 5 89 75 9 1 3 3 2 93 0 2 2 90 2 76 0 0 21 20 19 18 17 16 15 14 11 10 9 8 7 6 5 4 0 3 0 3 17 11 11 21 \012CALL[ ]	/* CallFunction */";
};
width = 589;
}
);
leftKerningGroup = B;
note = uni0116;
rightKerningGroup = E;
unicode = 0116;
},
{
glyphname = Egrave;
layers = (
{
layerId = "35E6D5AF-F775-49E3-B2B8-5BA74BD20843";
paths = (
{
closed = 1;
nodes = (
"397 740 LINE",
"206 813 LINE",
"189 745 LINE",
"387 703 LINE"
);
},
{
closed = 1;
nodes = (
"526 0 LINE",
"545 184 LINE",
"482 191 LINE",
"462 64 LINE",
"197 64 LINE",
"197 298 LINE",
"504 298 LINE",
"504 362 LINE",
"197 362 LINE",
"197 586 LINE",
"453 586 LINE",
"473 459 LINE",
"537 466 LINE",
"517 650 LINE",
"42 650 LINE",
"42 586 LINE",
"124 586 LINE",
"124 64 LINE",
"42 64 LINE",
"42 0 LINE"
);
}
);
userData = {
assembly = "NPUSHB[ ]	/* 60 values pushed */\01213 12 2 5 2 23 22 2 1 6 2 74 3 2 1 3 3 72 0 5 0 6 1 5 6 101 4 1 2 2 3 93 0 3 3 89 75 7 1 1 1 0 93 0 0 0 90 0 76 17 17 17 19 17 17 17 20 8 11 28 \012CALL[ ]	/* CallFunction */";
};
width = 589;
}
);
leftKerningGroup = B;
note = uni00C8;
rightKerningGroup = E;
unicode = 00C8;
},
{
glyphname = Emacron;
layers = (
{
layerId = "35E6D5AF-F775-49E3-B2B8-5BA74BD20843";
paths = (
{
closed = 1;
nodes = (
"462 733 LINE",
"462 790 LINE",
"183 790 LINE",
"183 733 LINE"
);
},
{
closed = 1;
nodes = (
"526 0 LINE",
"545 184 LINE",
"482 191 LINE",
"462 64 LINE",
"197 64 LINE",
"197 298 LINE",
"504 298 LINE",
"504 362 LINE",
"197 362 LINE",
"197 586 LINE",
"453 586 LINE",
"473 459 LINE",
"537 466 LINE",
"517 650 LINE",
"42 650 LINE",
"42 586 LINE",
"124 586 LINE",
"124 64 LINE",
"42 64 LINE",
"42 0 LINE"
);
}
);
userData = {
assembly = "NPUSHB[ ]	/* 65 values pushed */\01213 12 2 7 4 23 22 2 3 8 2 74 0 1 0 0 5 1 0 101 0 7 0 8 3 7 8 101 6 1 4 4 5 93 0 5 5 89 75 9 1 3 3 2 93 0 2 2 90 2 76 21 20 17 17 19 17 17 17 17 17 16 10 11 29 \012CALL[ ]	/* CallFunction */";
};
width = 589;
}
);
leftKerningGroup = B;
note = uni0112;
rightKerningGroup = E;
unicode = 0112;
},
{
glyphname = Eogonek;
layers = (
{
layerId = "35E6D5AF-F775-49E3-B2B8-5BA74BD20843";
paths = (
{
closed = 1;
nodes = (
"526 0 LINE",
"545 184 LINE",
"482 191 LINE",
"462 64 LINE",
"197 64 LINE",
"197 298 LINE",
"504 298 LINE",
"504 362 LINE",
"197 362 LINE",
"197 586 LINE",
"453 586 LINE",
"473 459 LINE",
"537 466 LINE",
"517 650 LINE",
"42 650 LINE",
"42 586 LINE",
"124 586 LINE",
"124 64 LINE",
"42 64 LINE",
"42 0 LINE",
"433 0 LINE",
"391.667 -25.333 OFFCURVE",
"361 -67.333 OFFCURVE",
"361 -118 CURVE SMOOTH",
"361 -175.333 OFFCURVE",
"402.333 -209 OFFCURVE",
"465 -209 CURVE SMOOTH",
"493 -209 OFFCURVE",
"519.333 -202.333 OFFCURVE",
"544 -189 CURVE",
"535 -140 LINE",
"518.333 -150 OFFCURVE",
"500.333 -155 OFFCURVE",
"481 -155 CURVE SMOOTH",
"442.333 -155 OFFCURVE",
"423 -136.333 OFFCURVE",
"423 -99 CURVE SMOOTH",
"423 -65.667 OFFCURVE",
"439 -29.333 OFFCURVE",
"487 0 CURVE"
);
}
);
userData = {
assembly = "NPUSHB[ ]	/* 78 values pushed */\01226 25 2 8 5 36 35 2 4 9 8 1 1 0 9 1 2 1 4 74 0 8 0 9 4 8 9 101 7 1 5 5 6 93 0 6 6 89 75 10 1 4 4 0 93 3 1 0 0 90 75 0 1 1 2 95 0 2 2 94 2 76 34 33 32 31 17 19 17 17 17 21 35 36 16 11 11 29 \012CALL[ ]	/* CallFunction */";
};
width = 588;
}
);
leftKerningGroup = B;
note = uni0118;
rightKerningGroup = E;
unicode = 0118;
},
{
glyphname = Etilde;
layers = (
{
layerId = "35E6D5AF-F775-49E3-B2B8-5BA74BD20843";
paths = (
{
closed = 1;
nodes = (
"433 807 LINE",
"422.333 769.667 OFFCURVE",
"404.667 765 OFFCURVE",
"386 765 CURVE SMOOTH",
"362 765 OFFCURVE",
"341.667 770.833 OFFCURVE",
"325 782.5 CURVE SMOOTH",
"308.333 794.167 OFFCURVE",
"289 800 OFFCURVE",
"267 800 CURVE SMOOTH",
"216.333 800 OFFCURVE",
"190.333 752.667 OFFCURVE",
"185 718 CURVE",
"218 705 LINE",
"228.667 737 OFFCURVE",
"249.333 744 OFFCURVE",
"268 744 CURVE SMOOTH",
"287.333 744 OFFCURVE",
"306.333 738.167 OFFCURVE",
"325 726.5 CURVE SMOOTH",
"343.667 714.833 OFFCURVE",
"365.667 709 OFFCURVE",
"391 709 CURVE SMOOTH",
"439 709 OFFCURVE",
"459.667 744.667 OFFCURVE",
"469 798 CURVE"
);
},
{
closed = 1;
nodes = (
"526 0 LINE",
"545 184 LINE",
"482 191 LINE",
"462 64 LINE",
"197 64 LINE",
"197 298 LINE",
"504 298 LINE",
"504 362 LINE",
"197 362 LINE",
"197 586 LINE",
"453 586 LINE",
"473 459 LINE",
"537 466 LINE",
"517 650 LINE",
"42 650 LINE",
"42 586 LINE",
"124 586 LINE",
"124 64 LINE",
"42 64 LINE",
"42 0 LINE"
);
}
);
userData = {
assembly = "NPUSHB[ ]	/* 89 values pushed */\01210 1 0 1 9 1 7 0 29 28 2 9 6 39 38 2 5 10 4 74 19 1 2 72 0 2 0 1 0 2 1 103 0 3 0 0 7 3 0 103 0 9 0 10 5 9 10 101 8 1 6 6 7 93 0 7 7 89 75 11 1 5 5 4 93 0 4 4 90 4 76 37 36 35 34 33 32 19 17 17 17 19 33 37 33 34 12 11 29 \012CALL[ ]	/* CallFunction */";
};
width = 589;
}
);
leftKerningGroup = B;
note = uni1EBC;
rightKerningGroup = E;
unicode = 1EBC;
},
{
glyphname = F;
layers = (
{
layerId = "35E6D5AF-F775-49E3-B2B8-5BA74BD20843";
paths = (
{
closed = 1;
nodes = (
"535 463 LINE",
"514 650 LINE",
"42 650 LINE",
"42 586 LINE",
"124 586 LINE",
"124 64 LINE",
"42 64 LINE",
"42 0 LINE",
"312 0 LINE",
"312 64 LINE",
"197 64 LINE",
"197 269 LINE",
"496 269 LINE",
"496 333 LINE",
"197 333 LINE",
"197 586 LINE",
"449 586 LINE",
"469 456 LINE"
);
}
);
userData = {
assembly = "NPUSHB[ ]	/* 48 values pushed */\0121 1 1 0 1 74 0 1 0 2 3 1 2 101 6 1 0 0 7 93 0 7 7 89 75 5 1 3 3 4 93 0 4 4 90 4 76 17 17 17 17 17 17 17 18 8 11 28 \012CALL[ ]	/* CallFunction */";
};
width = 558;
}
);
leftKerningGroup = B;
note = uni0046;
rightKerningGroup = F;
unicode = 0046;
},
{
glyphname = G;
layers = (
{
layerId = "35E6D5AF-F775-49E3-B2B8-5BA74BD20843";
paths = (
{
closed = 1;
nodes = (
"664 270 LINE",
"664 335 LINE",
"385 335 LINE",
"385 270 LINE",
"540 270 LINE",
"540 212 LINE SMOOTH",
"540 133.333 OFFCURVE",
"471.667 56 OFFCURVE",
"353 56 CURVE SMOOTH",
"210.333 56 OFFCURVE",
"118 163.667 OFFCURVE",
"118 325 CURVE SMOOTH",
"118 483.667 OFFCURVE",
"215.667 594 OFFCURVE",
"361 594 CURVE SMOOTH",
"441 594 OFFCURVE",
"489 571 OFFCURVE",
"525 547 CURVE",
"545 455 LINE",
"607 462 LINE",
"589 584 LINE",
"539.667 628 OFFCURVE",
"461 660 OFFCURVE",
"357 660 CURVE SMOOTH",
"295 660 OFFCURVE",
"240.167 644.833 OFFCURVE",
"192.5 614.5 CURVE SMOOTH",
"97.167 553.833 OFFCURVE",
"40 447.333 OFFCURVE",
"40 322 CURVE SMOOTH",
"40 135.333 OFFCURVE",
"161.333 -10 OFFCURVE",
"340 -10 CURVE SMOOTH",
"436 -10 OFFCURVE",
"509.333 32.667 OFFCURVE",
"548 90 CURVE",
"557 0 LINE",
"613 0 LINE",
"613 270 LINE"
);
}
);
userData = {
assembly = "NPUSHB[ ]	/* 10 values pushed */\01218 1 7 4 4 1 5 0 2 74 \012MPPEM[ ]	/* MeasurePixelPerEm */\012PUSHB[ ]	/* 1 value pushed */\01223 \012LT[ ]	/* LessThan */\012IF[ ]	/* If */\012NPUSHB[ ]	/* 31 values pushed */\0120 7 6 1 0 5 7 0 101 0 4 4 3 95 0 3 3 97 75 0 5 5 1 95 2 1 1 1 90 1 76 \012ELSE[ ]	/* Else */\012NPUSHB[ ]	/* 35 values pushed */\0120 7 6 1 0 5 7 0 101 0 4 4 3 95 0 3 3 97 75 0 1 1 90 75 0 5 5 2 95 0 2 2 98 2 76 \012EIF[ ]	/* EndIf */\012NPUSHB[ ]	/* 11 values pushed */\01217 19 36 39 37 35 17 16 8 11 28 \012CALL[ ]	/* CallFunction */";
};
width = 691;
}
);
leftKerningGroup = C;
note = uni0047;
rightKerningGroup = G;
unicode = 0047;
},
{
glyphname = Gbreve;
layers = (
{
layerId = "35E6D5AF-F775-49E3-B2B8-5BA74BD20843";
paths = (
{
closed = 1;
nodes = (
"421 816 LINE",
"421 770 OFFCURVE",
"399.667 747 OFFCURVE",
"357 747 CURVE SMOOTH",
"315.667 747 OFFCURVE",
"293 762.667 OFFCURVE",
"293 816 CURVE",
"235 816 LINE",
"235 738 OFFCURVE",
"275.667 699 OFFCURVE",
"357 699 CURVE SMOOTH",
"438.333 699 OFFCURVE",
"479 738 OFFCURVE",
"479 816 CURVE"
);
},
{
closed = 1;
nodes = (
"664 270 LINE",
"664 335 LINE",
"385 335 LINE",
"385 270 LINE",
"540 270 LINE",
"540 212 LINE SMOOTH",
"540 133.333 OFFCURVE",
"471.667 56 OFFCURVE",
"353 56 CURVE SMOOTH",
"210.333 56 OFFCURVE",
"118 163.667 OFFCURVE",
"118 325 CURVE SMOOTH",
"118 483.667 OFFCURVE",
"215.667 594 OFFCURVE",
"361 594 CURVE SMOOTH",
"441 594 OFFCURVE",
"489 571 OFFCURVE",
"525 547 CURVE",
"545 455 LINE",
"607 462 LINE",
"589 584 LINE",
"539.667 628 OFFCURVE",
"461 660 OFFCURVE",
"357 660 CURVE SMOOTH",
"295 660 OFFCURVE",
"240.167 644.833 OFFCURVE",
"192.5 614.5 CURVE SMOOTH",
"97.167 553.833 OFFCURVE",
"40 447.333 OFFCURVE",
"40 322 CURVE SMOOTH",
"40 135.333 OFFCURVE",
"161.333 -10 OFFCURVE",
"340 -10 CURVE SMOOTH",
"436 -10 OFFCURVE",
"509.333 32.667 OFFCURVE",
"548 90 CURVE",
"557 0 LINE",
"613 0 LINE",
"613 270 LINE"
);
}
);
userData = {
assembly = "NPUSHB[ ]	/* 10 values pushed */\01229 1 11 8 15 1 9 4 2 74 \012MPPEM[ ]	/* MeasurePixelPerEm */\012PUSHB[ ]	/* 1 value pushed */\01219 \012LT[ ]	/* LessThan */\012IF[ ]	/* If */\012NPUSHB[ ]	/* 47 values pushed */\01212 3 2 1 2 2 1 110 0 2 0 0 7 2 0 104 0 11 10 1 4 9 11 4 101 0 8 8 7 95 0 7 7 97 75 0 9 9 5 95 6 1 5 5 90 5 76 \012ELSE[ ]	/* Else */\012MPPEM[ ]	/* MeasurePixelPerEm */\012PUSHB[ ]	/* 1 value pushed */\01223 \012LT[ ]	/* LessThan */\012IF[ ]	/* If */\012NPUSHB[ ]	/* 46 values pushed */\01212 3 2 1 2 1 131 0 2 0 0 7 2 0 104 0 11 10 1 4 9 11 4 101 0 8 8 7 95 0 7 7 97 75 0 9 9 5 95 6 1 5 5 90 5 76 \012ELSE[ ]	/* Else */\012NPUSHB[ ]	/* 50 values pushed */\01212 3 2 1 2 1 131 0 2 0 0 7 2 0 104 0 11 10 1 4 9 11 4 101 0 8 8 7 95 0 7 7 97 75 0 5 5 90 75 0 9 9 6 95 0 6 6 98 6 76 \012EIF[ ]	/* EndIf */\012EIF[ ]	/* EndIf */\012NPUSHB[ ]	/* 28 values pushed */\0120 0 47 46 45 44 41 39 35 33 26 24 19 17 14 13 12 11 0 10 0 10 34 17 33 13 11 23 \012CALL[ ]	/* CallFunction */";
};
width = 691;
}
);
leftKerningGroup = C;
note = uni011E;
rightKerningGroup = G;
unicode = 011E;
},
{
glyphname = Gcircumflex;
layers = (
{
layerId = "35E6D5AF-F775-49E3-B2B8-5BA74BD20843";
paths = (
{
closed = 1;
nodes = (
"491 737 LINE",
"365 827 LINE",
"344 827 LINE",
"217 734 LINE",
"236 701 LINE",
"352 764 LINE",
"472 702 LINE"
);
},
{
closed = 1;
nodes = (
"664 270 LINE",
"664 335 LINE",
"385 335 LINE",
"385 270 LINE",
"540 270 LINE",
"540 212 LINE SMOOTH",
"540 133.333 OFFCURVE",
"471.667 56 OFFCURVE",
"353 56 CURVE SMOOTH",
"210.333 56 OFFCURVE",
"118 163.667 OFFCURVE",
"118 325 CURVE SMOOTH",
"118 483.667 OFFCURVE",
"215.667 594 OFFCURVE",
"361 594 CURVE SMOOTH",
"441 594 OFFCURVE",
"489 571 OFFCURVE",
"525 547 CURVE",
"545 455 LINE",
"607 462 LINE",
"589 584 LINE",
"539.667 628 OFFCURVE",
"461 660 OFFCURVE",
"357 660 CURVE SMOOTH",
"295 660 OFFCURVE",
"240.167 644.833 OFFCURVE",
"192.5 614.5 CURVE SMOOTH",
"97.167 553.833 OFFCURVE",
"40 447.333 OFFCURVE",
"40 322 CURVE SMOOTH",
"40 135.333 OFFCURVE",
"161.333 -10 OFFCURVE",
"340 -10 CURVE SMOOTH",
"436 -10 OFFCURVE",
"509.333 32.667 OFFCURVE",
"548 90 CURVE",
"557 0 LINE",
"613 0 LINE",
"613 270 LINE"
);
}
);
userData = {
assembly = "NPUSHB[ ]	/* 17 values pushed */\0124 3 2 1 4 4 0 25 1 8 5 11 1 6 1 3 74 \012MPPEM[ ]	/* MeasurePixelPerEm */\012PUSHB[ ]	/* 1 value pushed */\01223 \012LT[ ]	/* LessThan */\012IF[ ]	/* If */\012NPUSHB[ ]	/* 36 values pushed */\0120 0 4 0 131 0 8 7 1 1 6 8 1 101 0 5 5 4 95 0 4 4 97 75 0 6 6 2 95 3 1 2 2 90 2 76 \012ELSE[ ]	/* Else */\012NPUSHB[ ]	/* 40 values pushed */\0120 0 4 0 131 0 8 7 1 1 6 8 1 101 0 5 5 4 95 0 4 4 97 75 0 2 2 90 75 0 6 6 3 95 0 3 3 98 3 76 \012EIF[ ]	/* EndIf */\012NPUSHB[ ]	/* 12 values pushed */\01217 19 36 39 37 35 17 17 21 9 11 29 \012CALL[ ]	/* CallFunction */";
};
width = 691;
}
);
leftKerningGroup = C;
note = uni011C;
rightKerningGroup = G;
unicode = 011C;
},
{
glyphname = Gcommaaccent;
layers = (
{
layerId = "35E6D5AF-F775-49E3-B2B8-5BA74BD20843";
paths = (
{
closed = 1;
nodes = (
"664 270 LINE",
"664 335 LINE",
"385 335 LINE",
"385 270 LINE",
"540 270 LINE",
"540 212 LINE SMOOTH",
"540 133.333 OFFCURVE",
"471.667 56 OFFCURVE",
"353 56 CURVE SMOOTH",
"210.333 56 OFFCURVE",
"118 163.667 OFFCURVE",
"118 325 CURVE SMOOTH",
"118 483.667 OFFCURVE",
"215.667 594 OFFCURVE",
"361 594 CURVE SMOOTH",
"441 594 OFFCURVE",
"489 571 OFFCURVE",
"525 547 CURVE",
"545 455 LINE",
"607 462 LINE",
"589 584 LINE",
"539.667 628 OFFCURVE",
"461 660 OFFCURVE",
"357 660 CURVE SMOOTH",
"295 660 OFFCURVE",
"240.167 644.833 OFFCURVE",
"192.5 614.5 CURVE SMOOTH",
"97.167 553.833 OFFCURVE",
"40 447.333 OFFCURVE",
"40 322 CURVE SMOOTH",
"40 135.333 OFFCURVE",
"161.333 -10 OFFCURVE",
"340 -10 CURVE SMOOTH",
"436 -10 OFFCURVE",
"509.333 32.667 OFFCURVE",
"548 90 CURVE",
"557 0 LINE",
"613 0 LINE",
"613 270 LINE"
);
},
{
closed = 1;
nodes = (
"384 -64 LINE",
"317 -64 LINE",
"309 -218 LINE",
"366 -218 LINE"
);
}
);
userData = {
assembly = "NPUSHB[ ]	/* 10 values pushed */\01218 1 7 4 4 1 5 0 2 74 \012MPPEM[ ]	/* MeasurePixelPerEm */\012PUSHB[ ]	/* 1 value pushed */\01223 \012LT[ ]	/* LessThan */\012IF[ ]	/* If */\012NPUSHB[ ]	/* 42 values pushed */\0120 7 6 1 0 5 7 0 101 0 4 4 3 95 0 3 3 97 75 0 5 5 1 95 2 1 1 1 90 75 10 1 9 9 8 93 0 8 8 94 8 76 \012ELSE[ ]	/* Else */\012NPUSHB[ ]	/* 46 values pushed */\0120 7 6 1 0 5 7 0 101 0 4 4 3 95 0 3 3 97 75 0 1 1 90 75 0 5 5 2 95 0 2 2 98 75 10 1 9 9 8 93 0 8 8 94 8 76 \012EIF[ ]	/* EndIf */\012NPUSHB[ ]	/* 18 values pushed */\01237 37 37 40 37 40 18 17 19 36 39 37 35 17 16 11 11 29 \012CALL[ ]	/* CallFunction */";
};
width = 691;
}
);
leftKerningGroup = C;
note = uni0122;
rightKerningGroup = G;
unicode = 0122;
},
{
glyphname = Gdotaccent;
layers = (
{
layerId = "35E6D5AF-F775-49E3-B2B8-5BA74BD20843";
paths = (
{
closed = 1;
nodes = (
"315 718 LINE",
"396 718 LINE",
"396 803 LINE",
"315 803 LINE"
);
},
{
closed = 1;
nodes = (
"664 270 LINE",
"664 335 LINE",
"385 335 LINE",
"385 270 LINE",
"540 270 LINE",
"540 212 LINE SMOOTH",
"540 133.333 OFFCURVE",
"471.667 56 OFFCURVE",
"353 56 CURVE SMOOTH",
"210.333 56 OFFCURVE",
"118 163.667 OFFCURVE",
"118 325 CURVE SMOOTH",
"118 483.667 OFFCURVE",
"215.667 594 OFFCURVE",
"361 594 CURVE SMOOTH",
"441 594 OFFCURVE",
"489 571 OFFCURVE",
"525 547 CURVE",
"545 455 LINE",
"607 462 LINE",
"589 584 LINE",
"539.667 628 OFFCURVE",
"461 660 OFFCURVE",
"357 660 CURVE SMOOTH",
"295 660 OFFCURVE",
"240.167 644.833 OFFCURVE",
"192.5 614.5 CURVE SMOOTH",
"97.167 553.833 OFFCURVE",
"40 447.333 OFFCURVE",
"40 322 CURVE SMOOTH",
"40 135.333 OFFCURVE",
"161.333 -10 OFFCURVE",
"340 -10 CURVE SMOOTH",
"436 -10 OFFCURVE",
"509.333 32.667 OFFCURVE",
"548 90 CURVE",
"557 0 LINE",
"613 0 LINE",
"613 270 LINE"
);
}
);
userData = {
assembly = "NPUSHB[ ]	/* 10 values pushed */\01222 1 9 6 8 1 7 2 2 74 \012MPPEM[ ]	/* MeasurePixelPerEm */\012PUSHB[ ]	/* 1 value pushed */\01223 \012LT[ ]	/* LessThan */\012IF[ ]	/* If */\012NPUSHB[ ]	/* 40 values pushed */\0120 0 10 1 1 5 0 1 101 0 9 8 1 2 7 9 2 101 0 6 6 5 95 0 5 5 97 75 0 7 7 3 95 4 1 3 3 90 3 76 \012ELSE[ ]	/* Else */\012NPUSHB[ ]	/* 44 values pushed */\0120 0 10 1 1 5 0 1 101 0 9 8 1 2 7 9 2 101 0 6 6 5 95 0 5 5 97 75 0 3 3 90 75 0 7 7 4 95 0 4 4 98 4 76 \012EIF[ ]	/* EndIf */\012NPUSHB[ ]	/* 26 values pushed */\0120 0 40 39 38 37 34 32 28 26 19 17 12 10 7 6 5 4 0 3 0 3 17 11 11 21 \012CALL[ ]	/* CallFunction */";
};
width = 691;
}
);
leftKerningGroup = C;
note = uni0120;
rightKerningGroup = G;
unicode = 0120;
},
{
glyphname = H;
layers = (
{
layerId = "35E6D5AF-F775-49E3-B2B8-5BA74BD20843";
paths = (
{
closed = 1;
nodes = (
"713 0 LINE",
"713 64 LINE",
"631 64 LINE",
"631 586 LINE",
"713 586 LINE",
"713 650 LINE",
"476 650 LINE",
"476 586 LINE",
"558 586 LINE",
"558 362 LINE",
"197 362 LINE",
"197 586 LINE",
"279 586 LINE",
"279 650 LINE",
"42 650 LINE",
"42 586 LINE",
"124 586 LINE",
"124 64 LINE",
"42 64 LINE",
"42 0 LINE",
"279 0 LINE",
"279 64 LINE",
"197 64 LINE",
"197 300 LINE",
"558 300 LINE",
"558 64 LINE",
"476 64 LINE",
"476 0 LINE"
);
}
);
userData = {
assembly = "NPUSHB[ ]	/* 59 values pushed */\0120 9 0 2 1 9 2 101 12 10 8 3 6 6 7 93 11 1 7 7 89 75 13 5 3 3 1 1 0 93 4 1 0 0 90 0 76 27 26 25 24 23 22 21 20 19 18 17 17 17 17 17 17 17 17 16 14 11 29 \012CALL[ ]	/* CallFunction */";
};
width = 755;
}
);
leftKerningGroup = B;
note = uni0048;
rightKerningGroup = H;
unicode = 0048;
},
{
glyphname = Hbar;
layers = (
{
layerId = "35E6D5AF-F775-49E3-B2B8-5BA74BD20843";
paths = (
{
closed = 1;
nodes = (
"49 462 LINE",
"124 462 LINE",
"124 64 LINE",
"42 64 LINE",
"42 0 LINE",
"279 0 LINE",
"279 64 LINE",
"197 64 LINE",
"197 300 LINE",
"558 300 LINE",
"558 64 LINE",
"476 64 LINE",
"476 0 LINE",
"713 0 LINE",
"713 64 LINE",
"631 64 LINE",
"631 462 LINE",
"705 462 LINE",
"705 515 LINE",
"631 515 LINE",
"631 586 LINE",
"713 586 LINE",
"713 650 LINE",
"476 650 LINE",
"476 586 LINE",
"558 586 LINE",
"558 515 LINE",
"197 515 LINE",
"197 586 LINE",
"279 586 LINE",
"279 650 LINE",
"42 650 LINE",
"42 586 LINE",
"124 586 LINE",
"124 515 LINE",
"49 515 LINE"
);
},
{
closed = 1;
nodes = (
"197 362 LINE",
"197 462 LINE",
"558 462 LINE",
"558 362 LINE"
);
}
);
userData = {
assembly = "NPUSHB[ ]	/* 88 values pushed */\0128 4 2 0 19 20 17 3 9 18 0 9 101 0 18 0 13 10 18 13 101 7 5 3 3 1 1 2 93 6 1 2 2 89 75 16 14 12 3 10 10 11 93 15 1 11 11 90 11 76 0 0 39 38 37 36 0 35 0 35 34 33 32 31 30 29 28 27 26 25 24 23 22 21 20 19 17 17 17 17 17 17 17 17 17 21 11 29 \012CALL[ ]	/* CallFunction */";
};
width = 756;
}
);
leftKerningGroup = B;
note = uni0126;
rightKerningGroup = H;
unicode = 0126;
},
{
glyphname = Hcircumflex;
layers = (
{
layerId = "35E6D5AF-F775-49E3-B2B8-5BA74BD20843";
paths = (
{
closed = 1;
nodes = (
"518 737 LINE",
"392 827 LINE",
"371 827 LINE",
"244 734 LINE",
"263 701 LINE",
"379 764 LINE",
"499 702 LINE"
);
},
{
closed = 1;
nodes = (
"713 0 LINE",
"713 64 LINE",
"631 64 LINE",
"631 586 LINE",
"713 586 LINE",
"713 650 LINE",
"476 650 LINE",
"476 586 LINE",
"558 586 LINE",
"558 362 LINE",
"197 362 LINE",
"197 586 LINE",
"279 586 LINE",
"279 650 LINE",
"42 650 LINE",
"42 586 LINE",
"124 586 LINE",
"124 64 LINE",
"42 64 LINE",
"42 0 LINE",
"279 0 LINE",
"279 64 LINE",
"197 64 LINE",
"197 300 LINE",
"558 300 LINE",
"558 64 LINE",
"476 64 LINE",
"476 0 LINE"
);
}
);
userData = {
assembly = "NPUSHB[ ]	/* 75 values pushed */\0124 3 2 1 4 8 0 1 74 0 0 8 0 131 0 10 0 3 2 10 3 102 13 11 9 3 7 7 8 93 12 1 8 8 89 75 14 6 4 3 2 2 1 93 5 1 1 1 90 1 76 34 33 32 31 30 29 28 27 26 25 24 23 17 17 17 17 17 17 17 17 21 15 11 29 \012CALL[ ]	/* CallFunction */";
};
width = 755;
}
);
leftKerningGroup = B;
note = uni0124;
rightKerningGroup = H;
unicode = 0124;
},
{
glyphname = I;
layers = (
{
layerId = "35E6D5AF-F775-49E3-B2B8-5BA74BD20843";
paths = (
{
closed = 1;
nodes = (
"279 0 LINE",
"279 64 LINE",
"198 64 LINE",
"198 586 LINE",
"279 586 LINE",
"279 650 LINE",
"42 650 LINE",
"42 586 LINE",
"124 586 LINE",
"124 64 LINE",
"42 64 LINE",
"42 0 LINE"
);
}
);
userData = {
assembly = "NPUSHB[ ]	/* 32 values pushed */\0124 1 2 2 3 93 0 3 3 89 75 5 1 1 1 0 93 0 0 0 90 0 76 17 17 17 17 17 16 6 11 26 \012CALL[ ]	/* CallFunction */";
};
width = 322;
}
);
leftKerningGroup = B;
note = uni0049;
rightKerningGroup = H;
unicode = 0049;
},
{
glyphname = IJ;
layers = (
{
layerId = "35E6D5AF-F775-49E3-B2B8-5BA74BD20843";
paths = (
{
closed = 1;
nodes = (
"279 0 LINE",
"279 64 LINE",
"198 64 LINE",
"198 586 LINE",
"279 586 LINE",
"279 650 LINE",
"42 650 LINE",
"42 586 LINE",
"124 586 LINE",
"124 64 LINE",
"42 64 LINE",
"42 0 LINE"
);
},
{
closed = 1;
nodes = (
"739 586 LINE",
"739 650 LINE",
"465 650 LINE",
"465 586 LINE",
"594 586 LINE",
"594 166 LINE SMOOTH",
"594 100.667 OFFCURVE",
"564.667 59 OFFCURVE",
"494 59 CURVE SMOOTH",
"450 59 OFFCURVE",
"419 74.333 OFFCURVE",
"391 129 CURVE",
"338 89 LINE",
"366 30.333 OFFCURVE",
"414.667 -10 OFFCURVE",
"500 -10 CURVE SMOOTH",
"605.333 -10 OFFCURVE",
"667 48.667 OFFCURVE",
"667 166 CURVE SMOOTH",
"667 586 LINE"
);
}
);
userData = {
assembly = "PUSHB[ ]	/* 7 values pushed */\01221 20 2 1 2 1 74 \012MPPEM[ ]	/* MeasurePixelPerEm */\012PUSHB[ ]	/* 1 value pushed */\01223 \012LT[ ]	/* LessThan */\012IF[ ]	/* If */\012NPUSHB[ ]	/* 28 values pushed */\0129 6 4 3 2 2 3 93 10 1 3 3 89 75 8 5 2 1 1 0 95 7 1 0 0 90 0 76 \012ELSE[ ]	/* Else */\012MPPEM[ ]	/* MeasurePixelPerEm */\012PUSHB[ ]	/* 1 value pushed */\01245 \012LT[ ]	/* LessThan */\012IF[ ]	/* If */\012NPUSHB[ ]	/* 39 values pushed */\0129 6 4 3 2 2 3 93 10 1 3 3 89 75 8 5 2 1 1 0 93 0 0 0 90 75 8 5 2 1 1 7 95 0 7 7 98 7 76 \012ELSE[ ]	/* Else */\012NPUSHB[ ]	/* 36 values pushed */\0129 6 4 3 2 2 3 93 10 1 3 3 89 75 5 1 1 1 0 93 0 0 0 90 75 0 8 8 7 95 0 7 7 98 7 76 \012EIF[ ]	/* EndIf */\012EIF[ ]	/* EndIf */\012NPUSHB[ ]	/* 16 values pushed */\01231 30 29 28 37 35 17 17 17 17 17 17 16 11 11 29 \012CALL[ ]	/* CallFunction */";
};
width = 777;
}
);
leftKerningGroup = B;
note = uni0132;
rightKerningGroup = J;
unicode = 0132;
},
{
glyphname = Iacute;
layers = (
{
layerId = "35E6D5AF-F775-49E3-B2B8-5BA74BD20843";
paths = (
{
closed = 1;
nodes = (
"283 745 LINE",
"266 813 LINE",
"75 740 LINE",
"86 703 LINE"
);
},
{
closed = 1;
nodes = (
"279 0 LINE",
"279 64 LINE",
"198 64 LINE",
"198 586 LINE",
"279 586 LINE",
"279 650 LINE",
"42 650 LINE",
"42 586 LINE",
"124 586 LINE",
"124 64 LINE",
"42 64 LINE",
"42 0 LINE"
);
}
);
userData = {
assembly = "NPUSHB[ ]	/* 38 values pushed */\0123 2 1 3 3 72 4 1 2 2 3 93 0 3 3 89 75 5 1 1 1 0 93 0 0 0 90 0 76 17 17 17 17 17 20 6 11 26 \012CALL[ ]	/* CallFunction */";
};
width = 322;
}
);
leftKerningGroup = B;
note = uni00CD;
rightKerningGroup = H;
unicode = 00CD;
},
{
glyphname = Ibreve;
layers = (
{
layerId = "35E6D5AF-F775-49E3-B2B8-5BA74BD20843";
paths = (
{
closed = 1;
nodes = (
"225 816 LINE",
"225 770 OFFCURVE",
"203.667 747 OFFCURVE",
"161 747 CURVE SMOOTH",
"119.667 747 OFFCURVE",
"97 762.667 OFFCURVE",
"97 816 CURVE",
"39 816 LINE",
"39 738 OFFCURVE",
"79.667 699 OFFCURVE",
"161 699 CURVE SMOOTH",
"242.333 699 OFFCURVE",
"283 738 OFFCURVE",
"283 816 CURVE"
);
},
{
closed = 1;
nodes = (
"279 0 LINE",
"279 64 LINE",
"198 64 LINE",
"198 586 LINE",
"279 586 LINE",
"279 650 LINE",
"42 650 LINE",
"42 586 LINE",
"124 586 LINE",
"124 64 LINE",
"42 64 LINE",
"42 0 LINE"
);
}
);
userData = {
assembly = "MPPEM[ ]	/* MeasurePixelPerEm */\012PUSHB[ ]	/* 1 value pushed */\01219 \012LT[ ]	/* LessThan */\012IF[ ]	/* If */\012NPUSHB[ ]	/* 39 values pushed */\01210 3 2 1 2 2 1 110 0 2 0 0 7 2 0 104 8 1 6 6 7 93 0 7 7 89 75 9 1 5 5 4 93 0 4 4 90 4 76 \012ELSE[ ]	/* Else */\012NPUSHB[ ]	/* 38 values pushed */\01210 3 2 1 2 1 131 0 2 0 0 7 2 0 104 8 1 6 6 7 93 0 7 7 89 75 9 1 5 5 4 93 0 4 4 90 4 76 \012EIF[ ]	/* EndIf */\012NPUSHB[ ]	/* 24 values pushed */\0120 0 22 21 20 19 18 17 16 15 14 13 12 11 0 10 0 10 34 17 33 11 11 23 \012CALL[ ]	/* CallFunction */";
};
width = 322;
}
);
leftKerningGroup = B;
note = uni012C;
rightKerningGroup = H;
unicode = 012C;
},
{
glyphname = Icircumflex;
layers = (
{
layerId = "35E6D5AF-F775-49E3-B2B8-5BA74BD20843";
paths = (
{
closed = 1;
nodes = (
"299 737 LINE",
"173 827 LINE",
"152 827 LINE",
"25 734 LINE",
"44 701 LINE",
"160 764 LINE",
"280 702 LINE"
);
},
{
closed = 1;
nodes = (
"279 0 LINE",
"279 64 LINE",
"198 64 LINE",
"198 586 LINE",
"279 586 LINE",
"279 650 LINE",
"42 650 LINE",
"42 586 LINE",
"124 586 LINE",
"124 64 LINE",
"42 64 LINE",
"42 0 LINE"
);
}
);
userData = {
assembly = "NPUSHB[ ]	/* 47 values pushed */\0124 3 2 1 4 4 0 1 74 0 0 4 0 131 5 1 3 3 4 93 0 4 4 89 75 6 1 2 2 1 93 0 1 1 90 1 76 17 17 17 17 17 17 21 7 11 27 \012CALL[ ]	/* CallFunction */";
};
width = 322;
}
);
leftKerningGroup = B;
note = uni00CE;
rightKerningGroup = H;
unicode = 00CE;
},
{
glyphname = Idieresis;
layers = (
{
layerId = "35E6D5AF-F775-49E3-B2B8-5BA74BD20843";
paths = (
{
closed = 1;
nodes = (
"38 718 LINE",
"119 718 LINE",
"119 803 LINE",
"38 803 LINE"
);
},
{
closed = 1;
nodes = (
"210 718 LINE",
"290 718 LINE",
"290 803 LINE",
"210 803 LINE"
);
},
{
closed = 1;
nodes = (
"279 0 LINE",
"279 64 LINE",
"198 64 LINE",
"198 586 LINE",
"279 586 LINE",
"279 650 LINE",
"42 650 LINE",
"42 586 LINE",
"124 586 LINE",
"124 64 LINE",
"42 64 LINE",
"42 0 LINE"
);
}
);
userData = {
assembly = "NPUSHB[ ]	/* 65 values pushed */\0122 1 0 11 3 10 3 1 7 0 1 101 8 1 6 6 7 93 0 7 7 89 75 9 1 5 5 4 93 0 4 4 90 4 76 4 4 0 0 19 18 17 16 15 14 13 12 11 10 9 8 4 7 4 7 6 5 0 3 0 3 17 12 11 21 \012CALL[ ]	/* CallFunction */";
};
width = 322;
}
);
leftKerningGroup = B;
note = uni00CF;
rightKerningGroup = H;
unicode = 00CF;
},
{
glyphname = Idotaccent;
layers = (
{
layerId = "35E6D5AF-F775-49E3-B2B8-5BA74BD20843";
paths = (
{
closed = 1;
nodes = (
"119 718 LINE",
"200 718 LINE",
"200 803 LINE",
"119 803 LINE"
);
},
{
closed = 1;
nodes = (
"279 0 LINE",
"279 64 LINE",
"198 64 LINE",
"198 586 LINE",
"279 586 LINE",
"279 650 LINE",
"42 650 LINE",
"42 586 LINE",
"124 586 LINE",
"124 64 LINE",
"42 64 LINE",
"42 0 LINE"
);
}
);
userData = {
assembly = "NPUSHB[ ]	/* 54 values pushed */\0120 0 8 1 1 5 0 1 101 6 1 4 4 5 93 0 5 5 89 75 7 1 3 3 2 93 0 2 2 90 2 76 0 0 15 14 13 12 11 10 9 8 7 6 5 4 0 3 0 3 17 9 11 21 \012CALL[ ]	/* CallFunction */";
};
width = 322;
}
);
leftKerningGroup = B;
note = uni0130;
rightKerningGroup = H;
unicode = 0130;
},
{
glyphname = Igrave;
layers = (
{
layerId = "35E6D5AF-F775-49E3-B2B8-5BA74BD20843";
paths = (
{
closed = 1;
nodes = (
"246 740 LINE",
"55 813 LINE",
"38 745 LINE",
"236 703 LINE"
);
},
{
closed = 1;
nodes = (
"279 0 LINE",
"279 64 LINE",
"198 64 LINE",
"198 586 LINE",
"279 586 LINE",
"279 650 LINE",
"42 650 LINE",
"42 586 LINE",
"124 586 LINE",
"124 64 LINE",
"42 64 LINE",
"42 0 LINE"
);
}
);
userData = {
assembly = "NPUSHB[ ]	/* 38 values pushed */\0123 2 1 3 3 72 4 1 2 2 3 93 0 3 3 89 75 5 1 1 1 0 93 0 0 0 90 0 76 17 17 17 17 17 20 6 11 26 \012CALL[ ]	/* CallFunction */";
};
width = 322;
}
);
leftKerningGroup = B;
note = uni00CC;
rightKerningGroup = H;
unicode = 00CC;
},
{
glyphname = Imacron;
layers = (
{
layerId = "35E6D5AF-F775-49E3-B2B8-5BA74BD20843";
paths = (
{
closed = 1;
nodes = (
"303 733 LINE",
"303 790 LINE",
"24 790 LINE",
"24 733 LINE"
);
},
{
closed = 1;
nodes = (
"279 0 LINE",
"279 64 LINE",
"198 64 LINE",
"198 586 LINE",
"279 586 LINE",
"279 650 LINE",
"42 650 LINE",
"42 586 LINE",
"124 586 LINE",
"124 64 LINE",
"42 64 LINE",
"42 0 LINE"
);
}
);
userData = {
assembly = "NPUSHB[ ]	/* 42 values pushed */\0120 1 0 0 5 1 0 101 6 1 4 4 5 93 0 5 5 89 75 7 1 3 3 2 93 0 2 2 90 2 76 17 17 17 17 17 17 17 16 8 11 28 \012CALL[ ]	/* CallFunction */";
};
width = 322;
}
);
leftKerningGroup = B;
note = uni012A;
rightKerningGroup = H;
unicode = 012A;
},
{
glyphname = Iogonek;
layers = (
{
layerId = "35E6D5AF-F775-49E3-B2B8-5BA74BD20843";
paths = (
{
closed = 1;
nodes = (
"239 -140 LINE",
"222.333 -150 OFFCURVE",
"204.333 -155 OFFCURVE",
"185 -155 CURVE SMOOTH",
"146.333 -155 OFFCURVE",
"127 -136.333 OFFCURVE",
"127 -99 CURVE SMOOTH",
"127 -65.667 OFFCURVE",
"143 -29.333 OFFCURVE",
"191 0 CURVE",
"279 0 LINE",
"279 64 LINE",
"198 64 LINE",
"198 586 LINE",
"279 586 LINE",
"279 650 LINE",
"42 650 LINE",
"42 586 LINE",
"124 586 LINE",
"124 64 LINE",
"42 64 LINE",
"42 0 LINE",
"137 0 LINE",
"95.667 -25.333 OFFCURVE",
"65 -67.333 OFFCURVE",
"65 -118 CURVE SMOOTH",
"65 -175.333 OFFCURVE",
"106.333 -209 OFFCURVE",
"169 -209 CURVE SMOOTH",
"197 -209 OFFCURVE",
"223.333 -202.333 OFFCURVE",
"248 -189 CURVE"
);
}
);
userData = {
assembly = "NPUSHB[ ]	/* 52 values pushed */\01228 1 8 1 1 74 5 1 3 3 4 93 0 4 4 89 75 6 1 2 2 1 93 7 1 1 1 90 75 0 8 8 0 95 0 0 0 94 0 76 36 17 17 17 17 17 17 21 33 9 11 29 \012CALL[ ]	/* CallFunction */";
};
width = 322;
}
);
leftKerningGroup = B;
note = uni012E;
rightKerningGroup = H;
unicode = 012E;
},
{
glyphname = Itilde;
layers = (
{
layerId = "35E6D5AF-F775-49E3-B2B8-5BA74BD20843";
paths = (
{
closed = 1;
nodes = (
"272 807 LINE",
"261.333 769.667 OFFCURVE",
"242.333 765 OFFCURVE",
"225 765 CURVE SMOOTH",
"201 765 OFFCURVE",
"180.667 770.833 OFFCURVE",
"164 782.5 CURVE SMOOTH",
"147.333 794.167 OFFCURVE",
"128 800 OFFCURVE",
"106 800 CURVE SMOOTH",
"55.333 800 OFFCURVE",
"29.333 752.667 OFFCURVE",
"24 718 CURVE",
"57 705 LINE",
"66.333 737 OFFCURVE",
"88.333 744 OFFCURVE",
"107 744 CURVE SMOOTH",
"126.333 744 OFFCURVE",
"145.333 738.167 OFFCURVE",
"164 726.5 CURVE SMOOTH",
"182.667 714.833 OFFCURVE",
"204.667 709 OFFCURVE",
"230 709 CURVE SMOOTH",
"278 709 OFFCURVE",
"297.333 744.667 OFFCURVE",
"308 798 CURVE"
);
},
{
closed = 1;
nodes = (
"279 0 LINE",
"279 64 LINE",
"198 64 LINE",
"198 586 LINE",
"279 586 LINE",
"279 650 LINE",
"42 650 LINE",
"42 586 LINE",
"124 586 LINE",
"124 64 LINE",
"42 64 LINE",
"42 0 LINE"
);
}
);
userData = {
assembly = "NPUSHB[ ]	/* 67 values pushed */\01210 1 0 1 9 1 7 0 2 74 19 1 2 72 0 2 0 1 0 2 1 103 0 3 0 0 7 3 0 103 8 1 6 6 7 93 0 7 7 89 75 9 1 5 5 4 93 0 4 4 90 4 76 31 30 17 17 17 17 19 33 37 33 34 10 11 29 \012CALL[ ]	/* CallFunction */";
};
width = 322;
}
);
leftKerningGroup = B;
note = uni0128;
rightKerningGroup = H;
unicode = 0128;
},
{
glyphname = J;
layers = (
{
layerId = "35E6D5AF-F775-49E3-B2B8-5BA74BD20843";
paths = (
{
closed = 1;
nodes = (
"418 586 LINE",
"418 650 LINE",
"144 650 LINE",
"144 586 LINE",
"273 586 LINE",
"273 166 LINE SMOOTH",
"273 100.667 OFFCURVE",
"243.667 59 OFFCURVE",
"173 59 CURVE SMOOTH",
"129 59 OFFCURVE",
"98 74.333 OFFCURVE",
"70 129 CURVE",
"17 89 LINE",
"45 30.333 OFFCURVE",
"93.667 -10 OFFCURVE",
"179 -10 CURVE SMOOTH",
"284.333 -10 OFFCURVE",
"346 48.667 OFFCURVE",
"346 166 CURVE SMOOTH",
"346 586 LINE"
);
}
);
userData = {
assembly = "NPUSHB[ ]	/* 37 values pushed */\0129 8 2 2 0 1 74 3 1 0 0 4 93 0 4 4 89 75 0 2 2 1 95 0 1 1 98 1 76 17 19 37 35 16 5 11 25 \012CALL[ ]	/* CallFunction */";
};
width = 456;
}
);
leftKerningGroup = J;
note = uni004A;
rightKerningGroup = J;
unicode = 004A;
},
{
glyphname = Jcircumflex;
layers = (
{
layerId = "35E6D5AF-F775-49E3-B2B8-5BA74BD20843";
paths = (
{
closed = 1;
nodes = (
"427 737 LINE",
"301 827 LINE",
"280 827 LINE",
"153 734 LINE",
"172 701 LINE",
"288 764 LINE",
"408 702 LINE"
);
},
{
closed = 1;
nodes = (
"418 586 LINE",
"418 650 LINE",
"144 650 LINE",
"144 586 LINE",
"273 586 LINE",
"273 166 LINE SMOOTH",
"273 100.667 OFFCURVE",
"243.667 59 OFFCURVE",
"173 59 CURVE SMOOTH",
"129 59 OFFCURVE",
"98 74.333 OFFCURVE",
"70 129 CURVE",
"17 89 LINE",
"45 30.333 OFFCURVE",
"93.667 -10 OFFCURVE",
"179 -10 CURVE SMOOTH",
"284.333 -10 OFFCURVE",
"346 48.667 OFFCURVE",
"346 166 CURVE SMOOTH",
"346 586 LINE"
);
}
);
userData = {
assembly = "NPUSHB[ ]	/* 50 values pushed */\0124 3 2 1 4 5 0 16 15 2 3 1 2 74 0 0 5 0 131 4 1 1 1 5 93 0 5 5 89 75 0 3 3 2 95 0 2 2 98 2 76 17 19 37 35 17 21 6 11 26 \012CALL[ ]	/* CallFunction */";
};
width = 456;
}
);
leftKerningGroup = J;
note = uni0134;
rightKerningGroup = J;
unicode = 0134;
},
{
glyphname = K;
layers = (
{
layerId = "35E6D5AF-F775-49E3-B2B8-5BA74BD20843";
paths = (
{
closed = 1;
nodes = (
"635 0 LINE",
"635 64 LINE",
"562 64 LINE",
"362 338 LINE",
"549 587 LINE",
"623 587 LINE",
"623 651 LINE",
"394 651 LINE",
"394 587 LINE",
"471 587 LINE",
"304 362 LINE",
"198 362 LINE",
"198 586 LINE",
"274 586 LINE",
"274 650 LINE",
"42 650 LINE",
"42 586 LINE",
"124 586 LINE",
"124 64 LINE",
"42 64 LINE",
"42 0 LINE",
"273 0 LINE",
"273 64 LINE",
"198 64 LINE",
"198 299 LINE",
"306 299 LINE",
"478 64 LINE",
"401 64 LINE",
"401 0 LINE"
);
}
);
userData = {
assembly = "NPUSHB[ ]	/* 65 values pushed */\01226 1 2 9 1 74 0 9 0 2 1 9 2 101 12 10 8 3 6 6 7 93 11 1 7 7 89 75 13 5 3 3 1 1 0 93 4 1 0 0 90 0 76 28 27 25 24 23 22 21 20 19 18 17 17 17 17 17 17 17 17 16 14 11 29 \012CALL[ ]	/* CallFunction */";
};
width = 642;
}
);
leftKerningGroup = B;
note = uni004B;
rightKerningGroup = K;
unicode = 004B;
},
{
glyphname = Kcommaaccent;
layers = (
{
layerId = "35E6D5AF-F775-49E3-B2B8-5BA74BD20843";
paths = (
{
closed = 1;
nodes = (
"635 0 LINE",
"635 64 LINE",
"562 64 LINE",
"362 338 LINE",
"549 587 LINE",
"623 587 LINE",
"623 651 LINE",
"394 651 LINE",
"394 587 LINE",
"471 587 LINE",
"304 362 LINE",
"198 362 LINE",
"198 586 LINE",
"274 586 LINE",
"274 650 LINE",
"42 650 LINE",
"42 586 LINE",
"124 586 LINE",
"124 64 LINE",
"42 64 LINE",
"42 0 LINE",
"273 0 LINE",
"273 64 LINE",
"198 64 LINE",
"198 299 LINE",
"306 299 LINE",
"478 64 LINE",
"401 64 LINE",
"401 0 LINE"
);
},
{
closed = 1;
nodes = (
"376 -64 LINE",
"309 -64 LINE",
"301 -218 LINE",
"358 -218 LINE"
);
}
);
userData = {
assembly = "NPUSHB[ ]	/* 84 values pushed */\01226 1 2 9 1 74 0 9 0 2 1 9 2 101 12 10 8 3 6 6 7 93 11 1 7 7 89 75 13 5 3 3 1 1 0 93 4 1 0 0 90 75 16 1 15 15 14 93 0 14 14 94 14 76 29 29 29 32 29 32 31 30 28 27 25 24 23 22 21 20 19 18 17 17 17 17 17 17 17 17 16 17 11 29 \012CALL[ ]	/* CallFunction */";
};
width = 641;
}
);
leftKerningGroup = B;
note = uni0136;
rightKerningGroup = K;
unicode = 0136;
},
{
glyphname = L;
layers = (
{
layerId = "35E6D5AF-F775-49E3-B2B8-5BA74BD20843";
paths = (
{
closed = 1;
nodes = (
"511 0 LINE",
"531 208 LINE",
"466 213 LINE",
"446 64 LINE",
"197 64 LINE",
"197 586 LINE",
"306 586 LINE",
"306 650 LINE",
"42 650 LINE",
"42 586 LINE",
"124 586 LINE",
"124 64 LINE",
"42 64 LINE",
"42 0 LINE"
);
}
);
userData = {
assembly = "NPUSHB[ ]	/* 38 values pushed */\01213 1 1 2 1 74 4 1 2 2 3 93 0 3 3 89 75 5 1 1 1 0 93 0 0 0 90 0 76 17 17 17 17 17 16 6 11 26 \012CALL[ ]	/* CallFunction */";
};
width = 545;
}
);
leftKerningGroup = B;
note = uni004C;
rightKerningGroup = L;
unicode = 004C;
},
{
glyphname = LJ;
layers = (
{
layerId = "35E6D5AF-F775-49E3-B2B8-5BA74BD20843";
paths = (
{
closed = 1;
nodes = (
"962 586 LINE",
"962 650 LINE",
"688 650 LINE",
"688 586 LINE",
"817 586 LINE",
"817 166 LINE SMOOTH",
"817 100.667 OFFCURVE",
"787.667 59 OFFCURVE",
"717 59 CURVE SMOOTH",
"673 59 OFFCURVE",
"642 74.333 OFFCURVE",
"614 129 CURVE",
"561 89 LINE",
"589 30.333 OFFCURVE",
"637.667 -10 OFFCURVE",
"723 -10 CURVE SMOOTH",
"828.333 -10 OFFCURVE",
"890 48.667 OFFCURVE",
"890 166 CURVE SMOOTH",
"890 586 LINE"
);
},
{
closed = 1;
nodes = (
"511 0 LINE",
"531 208 LINE",
"466 213 LINE",
"446 64 LINE",
"197 64 LINE",
"197 586 LINE",
"306 586 LINE",
"306 650 LINE",
"42 650 LINE",
"42 586 LINE",
"124 586 LINE",
"124 64 LINE",
"42 64 LINE",
"42 0 LINE"
);
}
);
userData = {
assembly = "MPPEM[ ]	/* MeasurePixelPerEm */\012PUSHB[ ]	/* 1 value pushed */\01245 \012LT[ ]	/* LessThan */\012IF[ ]	/* If */\012PUSHB[ ]	/* 8 values pushed */\01233 9 8 3 2 0 1 74 \012ELSE[ ]	/* Else */\012PUSHB[ ]	/* 8 values pushed */\01233 9 8 3 6 0 1 74 \012EIF[ ]	/* EndIf */\012MPPEM[ ]	/* MeasurePixelPerEm */\012PUSHB[ ]	/* 1 value pushed */\01223 \012LT[ ]	/* LessThan */\012IF[ ]	/* If */\012NPUSHB[ ]	/* 28 values pushed */\0129 7 3 3 0 0 4 93 8 1 4 4 89 75 10 6 2 2 2 1 95 5 1 1 1 98 1 76 \012ELSE[ ]	/* Else */\012MPPEM[ ]	/* MeasurePixelPerEm */\012PUSHB[ ]	/* 1 value pushed */\01245 \012LT[ ]	/* LessThan */\012IF[ ]	/* If */\012NPUSHB[ ]	/* 39 values pushed */\0129 7 3 3 0 0 4 93 8 1 4 4 89 75 10 6 2 2 2 5 93 0 5 5 90 75 10 6 2 2 2 1 95 0 1 1 98 1 76 \012ELSE[ ]	/* Else */\012NPUSHB[ ]	/* 36 values pushed */\0129 7 3 3 0 0 4 93 8 1 4 4 89 75 10 1 6 6 5 93 0 5 5 90 75 0 2 2 1 95 0 1 1 98 1 76 \012EIF[ ]	/* EndIf */\012EIF[ ]	/* EndIf */\012NPUSHB[ ]	/* 16 values pushed */\01231 30 29 28 17 17 17 17 17 19 37 35 16 11 11 29 \012CALL[ ]	/* CallFunction */";
};
width = 1000;
}
);
note = uni01C7;
unicode = 01C7;
},
{
glyphname = Lacute;
layers = (
{
layerId = "35E6D5AF-F775-49E3-B2B8-5BA74BD20843";
paths = (
{
closed = 1;
nodes = (
"298 745 LINE",
"281 813 LINE",
"90 740 LINE",
"101 703 LINE"
);
},
{
closed = 1;
nodes = (
"511 0 LINE",
"531 208 LINE",
"466 213 LINE",
"446 64 LINE",
"197 64 LINE",
"197 586 LINE",
"306 586 LINE",
"306 650 LINE",
"42 650 LINE",
"42 586 LINE",
"124 586 LINE",
"124 64 LINE",
"42 64 LINE",
"42 0 LINE"
);
}
);
userData = {
assembly = "NPUSHB[ ]	/* 44 values pushed */\01217 1 1 2 1 74 3 2 1 3 3 72 4 1 2 2 3 93 0 3 3 89 75 5 1 1 1 0 93 0 0 0 90 0 76 17 17 17 17 17 20 6 11 26 \012CALL[ ]	/* CallFunction */";
};
width = 545;
}
);
leftKerningGroup = B;
note = uni0139;
rightKerningGroup = L;
unicode = 0139;
},
{
glyphname = Lcaron;
layers = (
{
layerId = "35E6D5AF-F775-49E3-B2B8-5BA74BD20843";
paths = (
{
closed = 1;
nodes = (
"434 682 LINE",
"368 682 LINE",
"355 458 LINE",
"412 458 LINE"
);
},
{
closed = 1;
nodes = (
"511 0 LINE",
"531 208 LINE",
"466 213 LINE",
"446 64 LINE",
"197 64 LINE",
"197 586 LINE",
"306 586 LINE",
"306 650 LINE",
"42 650 LINE",
"42 586 LINE",
"124 586 LINE",
"124 64 LINE",
"42 64 LINE",
"42 0 LINE"
);
}
);
userData = {
assembly = "NPUSHB[ ]	/* 62 values pushed */\01217 1 3 0 1 74 6 1 4 4 5 93 0 5 5 89 75 0 0 0 1 93 8 1 1 1 91 75 7 1 3 3 2 93 0 2 2 90 2 76 0 0 15 14 13 12 11 10 9 8 7 6 5 4 0 3 0 3 17 9 11 21 \012CALL[ ]	/* CallFunction */";
};
width = 545;
}
);
leftKerningGroup = B;
note = uni013D;
rightKerningGroup = L;
unicode = 013D;
},
{
glyphname = Lcommaaccent;
layers = (
{
layerId = "35E6D5AF-F775-49E3-B2B8-5BA74BD20843";
paths = (
{
closed = 1;
nodes = (
"511 0 LINE",
"531 208 LINE",
"466 213 LINE",
"446 64 LINE",
"197 64 LINE",
"197 586 LINE",
"306 586 LINE",
"306 650 LINE",
"42 650 LINE",
"42 586 LINE",
"124 586 LINE",
"124 64 LINE",
"42 64 LINE",
"42 0 LINE"
);
},
{
closed = 1;
nodes = (
"342 -64 LINE",
"275 -64 LINE",
"267 -218 LINE",
"324 -218 LINE"
);
}
);
userData = {
assembly = "NPUSHB[ ]	/* 56 values pushed */\01213 1 1 2 1 74 4 1 2 2 3 93 0 3 3 89 75 5 1 1 1 0 93 0 0 0 90 75 8 1 7 7 6 93 0 6 6 94 6 76 14 14 14 17 14 17 20 17 17 17 17 17 16 9 11 27 \012CALL[ ]	/* CallFunction */";
};
width = 545;
}
);
leftKerningGroup = B;
note = uni013B;
rightKerningGroup = L;
unicode = 013B;
},
{
glyphname = Ldot;
layers = (
{
layerId = "35E6D5AF-F775-49E3-B2B8-5BA74BD20843";
paths = (
{
closed = 1;
nodes = (
"511 0 LINE",
"531 208 LINE",
"466 213 LINE",
"446 64 LINE",
"197 64 LINE",
"197 586 LINE",
"306 586 LINE",
"306 650 LINE",
"42 650 LINE",
"42 586 LINE",
"124 586 LINE",
"124 64 LINE",
"42 64 LINE",
"42 0 LINE"
);
},
{
closed = 1;
nodes = (
"333 295 LINE",
"410 295 LINE",
"410 386 LINE",
"333 386 LINE"
);
}
);
userData = {
assembly = "NPUSHB[ ]	/* 54 values pushed */\01213 1 1 7 1 74 0 6 8 1 7 1 6 7 101 4 1 2 2 3 93 0 3 3 89 75 5 1 1 1 0 93 0 0 0 90 0 76 14 14 14 17 14 17 20 17 17 17 17 17 16 9 11 27 \012CALL[ ]	/* CallFunction */";
};
width = 545;
}
);
note = uni013F;
rightKerningGroup = L;
unicode = 013F;
},
{
glyphname = Lj;
layers = (
{
layerId = "35E6D5AF-F775-49E3-B2B8-5BA74BD20843";
paths = (
{
closed = 1;
nodes = (
"628 560 LINE",
"704 560 LINE",
"704 651 LINE",
"628 651 LINE"
);
},
{
closed = 1;
nodes = (
"511 0 LINE",
"531 208 LINE",
"466 213 LINE",
"446 64 LINE",
"197 64 LINE",
"197 586 LINE",
"306 586 LINE",
"306 650 LINE",
"42 650 LINE",
"42 586 LINE",
"124 586 LINE",
"124 64 LINE",
"42 64 LINE",
"42 0 LINE"
);
},
{
closed = 1;
nodes = (
"704 445 LINE",
"534 445 LINE",
"534 388 LINE",
"633 388 LINE",
"633 -13 LINE SMOOTH",
"633 -115.521 OFFCURVE",
"557.593 -170 OFFCURVE",
"511 -170 CURVE",
"513 -224 LINE",
"623.667 -233.333 OFFCURVE",
"704 -182.333 OFFCURVE",
"704 -13 CURVE SMOOTH"
);
}
);
userData = {
assembly = "NPUSHB[ ]	/* 89 values pushed */\01217 1 3 9 1 74 21 1 8 71 0 8 2 8 132 6 1 4 4 0 93 5 1 0 0 89 75 11 1 1 1 0 93 5 1 0 0 89 75 0 9 9 10 93 0 10 10 92 75 7 1 3 3 2 93 0 2 2 90 2 76 0 0 30 29 28 27 23 22 15 14 13 12 11 10 9 8 7 6 5 4 0 3 0 3 17 12 11 21 \012CALL[ ]	/* CallFunction */";
};
width = 779;
}
);
note = uni01C8;
unicode = 01C8;
},
{
glyphname = Lslash;
layers = (
{
layerId = "35E6D5AF-F775-49E3-B2B8-5BA74BD20843";
paths = (
{
closed = 1;
nodes = (
"512 0 LINE",
"532 208 LINE",
"467 213 LINE",
"447 64 LINE",
"198 64 LINE",
"198 295 LINE",
"354 357 LINE",
"354 416 LINE",
"198 354 LINE",
"198 586 LINE",
"307 586 LINE",
"307 650 LINE",
"43 650 LINE",
"43 586 LINE",
"125 586 LINE",
"125 325 LINE",
"45 294 LINE",
"45 235 LINE",
"125 266 LINE",
"125 64 LINE",
"43 64 LINE",
"43 0 LINE"
);
}
);
userData = {
assembly = "NPUSHB[ ]	/* 46 values pushed */\01221 17 16 15 14 7 6 5 4 9 1 2 1 74 4 1 2 2 3 93 0 3 3 89 75 5 1 1 1 0 93 0 0 0 90 0 76 21 17 17 21 17 16 6 11 26 \012CALL[ ]	/* CallFunction */";
};
width = 546;
}
);
leftKerningGroup = B;
note = uni0141;
rightKerningGroup = L;
unicode = 0141;
},
{
glyphname = M;
layers = (
{
layerId = "35E6D5AF-F775-49E3-B2B8-5BA74BD20843";
paths = (
{
closed = 1;
nodes = (
"842 586 LINE",
"842 650 LINE",
"692 650 LINE",
"446 141 LINE",
"442 141 LINE",
"189 650 LINE",
"40 650 LINE",
"40 586 LINE",
"125 586 LINE",
"125 64 LINE",
"43 64 LINE",
"43 0 LINE",
"273 0 LINE",
"273 64 LINE",
"195 64 LINE",
"195 481 LINE",
"199 481 LINE",
"422 33 LINE",
"461 33 LINE",
"679 478 LINE",
"683 478 LINE",
"683 64 LINE",
"607 64 LINE",
"607 0 LINE",
"838 0 LINE",
"838 64 LINE",
"757 64 LINE",
"757 586 LINE"
);
}
);
userData = {
assembly = "NPUSHB[ ]	/* 59 values pushed */\01224 12 8 3 1 0 1 74 0 4 1 2 1 4 2 126 8 1 0 0 9 93 10 1 9 9 89 75 7 5 3 3 1 1 2 93 6 1 2 2 90 2 76 27 26 23 22 17 17 17 19 19 17 17 17 16 11 11 29 \012CALL[ ]	/* CallFunction */";
};
width = 882;
}
);
leftKerningGroup = B;
note = uni004D;
rightKerningGroup = H;
unicode = 004D;
},
{
glyphname = N;
layers = (
{
layerId = "35E6D5AF-F775-49E3-B2B8-5BA74BD20843";
paths = (
{
closed = 1;
nodes = (
"703 586 LINE",
"703 650 LINE",
"454 650 LINE",
"454 586 LINE",
"552 586 LINE",
"552 149 LINE",
"548 149 LINE",
"178 650 LINE",
"38 650 LINE",
"38 586 LINE",
"124 586 LINE",
"124 64 LINE",
"49 64 LINE",
"49 0 LINE",
"297 0 LINE",
"297 64 LINE",
"194 64 LINE",
"194 512 LINE",
"198 512 LINE",
"575 0 LINE",
"622 0 LINE",
"622 586 LINE"
);
}
);
userData = {
assembly = "NPUSHB[ ]	/* 45 values pushed */\01216 4 2 2 0 1 74 7 5 2 0 0 6 93 8 1 6 6 89 75 4 1 2 2 1 93 3 1 1 1 90 1 76 17 19 17 17 17 17 19 17 16 9 11 29 \012CALL[ ]	/* CallFunction */";
};
width = 738;
}
);
leftKerningGroup = B;
note = uni004E;
rightKerningGroup = N;
unicode = 004E;
},
{
glyphname = NJ;
layers = (
{
layerId = "35E6D5AF-F775-49E3-B2B8-5BA74BD20843";
paths = (
{
closed = 1;
nodes = (
"1146 586 LINE",
"1146 650 LINE",
"872 650 LINE",
"872 586 LINE",
"1001 586 LINE",
"1001 166 LINE SMOOTH",
"1001 100.667 OFFCURVE",
"971.667 59 OFFCURVE",
"901 59 CURVE SMOOTH",
"857 59 OFFCURVE",
"826 74.333 OFFCURVE",
"798 129 CURVE",
"745 89 LINE",
"773 30.333 OFFCURVE",
"821.667 -10 OFFCURVE",
"907 -10 CURVE SMOOTH",
"1012.333 -10 OFFCURVE",
"1074 48.667 OFFCURVE",
"1074 166 CURVE SMOOTH",
"1074 586 LINE"
);
},
{
closed = 1;
nodes = (
"703 586 LINE",
"703 650 LINE",
"454 650 LINE",
"454 586 LINE",
"552 586 LINE",
"552 149 LINE",
"548 149 LINE",
"178 650 LINE",
"38 650 LINE",
"38 586 LINE",
"124 586 LINE",
"124 64 LINE",
"49 64 LINE",
"49 0 LINE",
"297 0 LINE",
"297 64 LINE",
"194 64 LINE",
"194 512 LINE",
"198 512 LINE",
"575 0 LINE",
"622 0 LINE",
"622 586 LINE"
);
}
);
userData = {
assembly = "MPPEM[ ]	/* MeasurePixelPerEm */\012PUSHB[ ]	/* 1 value pushed */\01245 \012LT[ ]	/* LessThan */\012IF[ ]	/* If */\012NPUSHB[ ]	/* 9 values pushed */\01236 24 9 8 4 2 0 1 74 \012ELSE[ ]	/* Else */\012NPUSHB[ ]	/* 9 values pushed */\01236 24 9 8 4 7 0 1 74 \012EIF[ ]	/* EndIf */\012MPPEM[ ]	/* MeasurePixelPerEm */\012PUSHB[ ]	/* 1 value pushed */\01223 \012LT[ ]	/* LessThan */\012IF[ ]	/* If */\012NPUSHB[ ]	/* 31 values pushed */\01212 10 5 3 4 0 0 4 93 13 11 2 4 4 89 75 9 7 2 2 2 1 93 8 6 2 1 1 90 1 76 \012ELSE[ ]	/* Else */\012MPPEM[ ]	/* MeasurePixelPerEm */\012PUSHB[ ]	/* 1 value pushed */\01245 \012LT[ ]	/* LessThan */\012IF[ ]	/* If */\012NPUSHB[ ]	/* 42 values pushed */\01212 10 5 3 4 0 0 4 93 13 11 2 4 4 89 75 9 7 2 2 2 6 93 8 1 6 6 90 75 9 7 2 2 2 1 95 0 1 1 98 1 76 \012ELSE[ ]	/* Else */\012NPUSHB[ ]	/* 39 values pushed */\01212 10 5 3 4 0 0 4 93 13 11 2 4 4 89 75 9 1 7 7 6 93 8 1 6 6 90 75 0 2 2 1 95 0 1 1 98 1 76 \012EIF[ ]	/* EndIf */\012EIF[ ]	/* EndIf */\012NPUSHB[ ]	/* 22 values pushed */\01241 40 39 38 35 34 33 32 31 30 17 19 17 17 17 19 37 35 16 14 11 29 \012CALL[ ]	/* CallFunction */";
};
width = 1185;
}
);
note = uni01CA;
unicode = 01CA;
},
{
glyphname = Nacute;
layers = (
{
layerId = "35E6D5AF-F775-49E3-B2B8-5BA74BD20843";
paths = (
{
closed = 1;
nodes = (
"514 745 LINE",
"497 813 LINE",
"306 740 LINE",
"317 703 LINE"
);
},
{
closed = 1;
nodes = (
"703 586 LINE",
"703 650 LINE",
"454 650 LINE",
"454 586 LINE",
"552 586 LINE",
"552 149 LINE",
"548 149 LINE",
"178 650 LINE",
"38 650 LINE",
"38 586 LINE",
"124 586 LINE",
"124 64 LINE",
"49 64 LINE",
"49 0 LINE",
"297 0 LINE",
"297 64 LINE",
"194 64 LINE",
"194 512 LINE",
"198 512 LINE",
"575 0 LINE",
"622 0 LINE",
"622 586 LINE"
);
}
);
userData = {
assembly = "NPUSHB[ ]	/* 51 values pushed */\01220 8 2 2 0 1 74 3 2 1 3 6 72 7 5 2 0 0 6 93 8 1 6 6 89 75 4 1 2 2 1 93 3 1 1 1 90 1 76 17 19 17 17 17 17 19 17 20 9 11 29 \012CALL[ ]	/* CallFunction */";
};
width = 738;
}
);
leftKerningGroup = B;
note = uni0143;
rightKerningGroup = N;
unicode = 0143;
},
{
glyphname = Ncaron;
layers = (
{
layerId = "35E6D5AF-F775-49E3-B2B8-5BA74BD20843";
paths = (
{
closed = 1;
nodes = (
"502 792 LINE",
"483 827 LINE",
"368 763 LINE",
"248 824 LINE",
"228 790 LINE",
"354 701 LINE",
"376 701 LINE"
);
},
{
closed = 1;
nodes = (
"703 586 LINE",
"703 650 LINE",
"454 650 LINE",
"454 586 LINE",
"552 586 LINE",
"552 149 LINE",
"548 149 LINE",
"178 650 LINE",
"38 650 LINE",
"38 586 LINE",
"124 586 LINE",
"124 64 LINE",
"49 64 LINE",
"49 0 LINE",
"297 0 LINE",
"297 64 LINE",
"194 64 LINE",
"194 512 LINE",
"198 512 LINE",
"575 0 LINE",
"622 0 LINE",
"622 586 LINE"
);
}
);
userData = {
assembly = "NPUSHB[ ]	/* 59 values pushed */\01223 11 2 3 1 1 74 6 5 4 3 4 0 72 0 0 7 0 131 8 6 2 1 1 7 93 9 1 7 7 89 75 5 1 3 3 2 93 4 1 2 2 90 2 76 28 27 19 17 17 17 17 19 17 21 17 10 11 29 \012CALL[ ]	/* CallFunction */";
};
width = 738;
}
);
leftKerningGroup = B;
note = uni0147;
rightKerningGroup = N;
unicode = 0147;
},
{
glyphname = Ncommaaccent;
layers = (
{
layerId = "35E6D5AF-F775-49E3-B2B8-5BA74BD20843";
paths = (
{
closed = 1;
nodes = (
"703 586 LINE",
"703 650 LINE",
"454 650 LINE",
"454 586 LINE",
"552 586 LINE",
"552 149 LINE",
"548 149 LINE",
"178 650 LINE",
"38 650 LINE",
"38 586 LINE",
"124 586 LINE",
"124 64 LINE",
"49 64 LINE",
"49 0 LINE",
"297 0 LINE",
"297 64 LINE",
"194 64 LINE",
"194 512 LINE",
"198 512 LINE",
"575 0 LINE",
"622 0 LINE",
"622 586 LINE"
);
},
{
closed = 1;
nodes = (
"416 -64 LINE",
"349 -64 LINE",
"341 -218 LINE",
"398 -218 LINE"
);
}
);
userData = {
assembly = "NPUSHB[ ]	/* 64 values pushed */\01216 4 2 2 0 1 74 7 5 2 0 0 6 93 8 1 6 6 89 75 4 1 2 2 1 93 3 1 1 1 90 75 11 1 10 10 9 93 0 9 9 94 9 76 22 22 22 25 22 25 24 23 17 19 17 17 17 17 19 17 16 12 11 29 \012CALL[ ]	/* CallFunction */";
};
width = 738;
}
);
leftKerningGroup = B;
note = uni0145;
rightKerningGroup = N;
unicode = 0145;
},
{
glyphname = Ndotbelow;
layers = (
{
layerId = "35E6D5AF-F775-49E3-B2B8-5BA74BD20843";
paths = (
{
closed = 1;
nodes = (
"703 586 LINE",
"703 650 LINE",
"454 650 LINE",
"454 586 LINE",
"552 586 LINE",
"552 149 LINE",
"548 149 LINE",
"178 650 LINE",
"38 650 LINE",
"38 586 LINE",
"124 586 LINE",
"124 64 LINE",
"49 64 LINE",
"49 0 LINE",
"297 0 LINE",
"297 64 LINE",
"194 64 LINE",
"194 512 LINE",
"198 512 LINE",
"575 0 LINE",
"622 0 LINE",
"622 586 LINE"
);
},
{
closed = 1;
nodes = (
"335 -174 LINE",
"412 -174 LINE",
"412 -83 LINE",
"335 -83 LINE"
);
}
);
userData = {
assembly = "NPUSHB[ ]	/* 61 values pushed */\01216 4 2 2 0 1 74 0 9 11 1 10 9 10 97 7 5 2 0 0 6 93 8 1 6 6 89 75 4 1 2 2 1 93 3 1 1 1 90 1 76 22 22 22 25 22 25 24 23 17 19 17 17 17 17 19 17 16 12 11 29 \012CALL[ ]	/* CallFunction */";
};
width = 738;
}
);
leftKerningGroup = B;
note = uni1E46;
rightKerningGroup = N;
unicode = 1E46;
},
{
glyphname = Eng;
layers = (
{
layerId = "35E6D5AF-F775-49E3-B2B8-5BA74BD20843";
paths = (
{
closed = 1;
nodes = (
"703 586 LINE",
"703 650 LINE",
"454 650 LINE",
"454 586 LINE",
"552 586 LINE",
"552 149 LINE",
"548 149 LINE",
"178 650 LINE",
"38 650 LINE",
"38 586 LINE",
"124 586 LINE",
"124 64 LINE",
"49 64 LINE",
"49 0 LINE",
"297 0 LINE",
"297 64 LINE",
"194 64 LINE",
"194 512 LINE",
"198 512 LINE",
"548 36 LINE",
"548 -18 LINE SMOOTH",
"548 -84.667 OFFCURVE",
"520 -126 OFFCURVE",
"448 -126 CURVE SMOOTH",
"404 -126 OFFCURVE",
"373 -109.333 OFFCURVE",
"345 -56 CURVE",
"292 -96 LINE",
"320 -154.667 OFFCURVE",
"368.667 -194 OFFCURVE",
"454 -194 CURVE SMOOTH",
"559.333 -194 OFFCURVE",
"622 -135.333 OFFCURVE",
"622 -18 CURVE SMOOTH",
"622 586 LINE"
);
}
);
userData = {
assembly = "NPUSHB[ ]	/* 16 values pushed */\01229 17 2 3 0 16 1 4 3 9 8 2 2 4 3 74 \012MPPEM[ ]	/* MeasurePixelPerEm */\012PUSHB[ ]	/* 1 value pushed */\01226 \012LT[ ]	/* LessThan */\012IF[ ]	/* If */\012NPUSHB[ ]	/* 35 values pushed */\0128 6 2 0 0 7 93 9 1 7 7 89 75 5 1 3 3 4 93 0 4 4 90 75 0 2 2 1 95 0 1 1 94 1 76 \012ELSE[ ]	/* Else */\012NPUSHB[ ]	/* 32 values pushed */\0120 2 0 1 2 1 99 8 6 2 0 0 7 93 9 1 7 7 89 75 5 1 3 3 4 93 0 4 4 90 4 76 \012EIF[ ]	/* EndIf */\012NPUSHB[ ]	/* 14 values pushed */\01234 33 19 17 17 17 17 22 37 35 16 10 11 29 \012CALL[ ]	/* CallFunction */";
};
width = 738;
}
);
leftKerningGroup = B;
note = uni014A;
rightKerningGroup = N;
unicode = 014A;
},
{
glyphname = Nj;
layers = (
{
layerId = "35E6D5AF-F775-49E3-B2B8-5BA74BD20843";
paths = (
{
closed = 1;
nodes = (
"823 560 LINE",
"899 560 LINE",
"899 651 LINE",
"823 651 LINE"
);
},
{
closed = 1;
nodes = (
"703 586 LINE",
"703 650 LINE",
"454 650 LINE",
"454 586 LINE",
"552 586 LINE",
"552 149 LINE",
"548 149 LINE",
"178 650 LINE",
"38 650 LINE",
"38 586 LINE",
"124 586 LINE",
"124 64 LINE",
"49 64 LINE",
"49 0 LINE",
"297 0 LINE",
"297 64 LINE",
"194 64 LINE",
"194 512 LINE",
"198 512 LINE",
"575 0 LINE",
"622 0 LINE",
"622 586 LINE"
);
},
{
closed = 1;
nodes = (
"899 445 LINE",
"729 445 LINE",
"729 388 LINE",
"828 388 LINE",
"828 -13 LINE SMOOTH",
"828 -115.505 OFFCURVE",
"753.795 -170 OFFCURVE",
"706 -170 CURVE",
"708 -224 LINE",
"817.333 -233.333 OFFCURVE",
"899 -182.333 OFFCURVE",
"899 -13 CURVE SMOOTH"
);
}
);
userData = {
assembly = "NPUSHB[ ]	/* 103 values pushed */\0128 1 13 1 20 1 4 12 2 74 29 1 11 71 0 11 3 11 132 9 7 2 2 2 0 93 10 8 2 0 0 89 75 14 1 1 1 0 93 10 8 2 0 0 89 75 0 12 12 13 93 0 13 13 92 75 6 1 4 4 3 93 5 1 3 3 90 3 76 0 0 38 37 36 35 31 30 25 24 23 22 19 18 17 16 15 14 13 12 11 10 7 6 5 4 0 3 0 3 17 15 11 21 \012CALL[ ]	/* CallFunction */";
};
width = 974;
}
);
note = uni01CB;
unicode = 01CB;
},
{
glyphname = Ntilde;
layers = (
{
layerId = "35E6D5AF-F775-49E3-B2B8-5BA74BD20843";
paths = (
{
closed = 1;
nodes = (
"470 807 LINE",
"459.333 769.667 OFFCURVE",
"440.333 765 OFFCURVE",
"423 765 CURVE SMOOTH",
"399 765 OFFCURVE",
"378.667 770.833 OFFCURVE",
"362 782.5 CURVE SMOOTH",
"345.333 794.167 OFFCURVE",
"326 800 OFFCURVE",
"304 800 CURVE SMOOTH",
"253.333 800 OFFCURVE",
"227.333 752.667 OFFCURVE",
"222 718 CURVE",
"255 705 LINE",
"264.333 737 OFFCURVE",
"286.333 744 OFFCURVE",
"305 744 CURVE SMOOTH",
"324.333 744 OFFCURVE",
"343.333 738.167 OFFCURVE",
"362 726.5 CURVE SMOOTH",
"380.667 714.833 OFFCURVE",
"402.667 709 OFFCURVE",
"428 709 CURVE SMOOTH",
"476 709 OFFCURVE",
"495.333 744.667 OFFCURVE",
"506 798 CURVE"
);
},
{
closed = 1;
nodes = (
"703 586 LINE",
"703 650 LINE",
"454 650 LINE",
"454 586 LINE",
"552 586 LINE",
"552 149 LINE",
"548 149 LINE",
"178 650 LINE",
"38 650 LINE",
"38 586 LINE",
"124 586 LINE",
"124 64 LINE",
"49 64 LINE",
"49 0 LINE",
"297 0 LINE",
"297 64 LINE",
"194 64 LINE",
"194 512 LINE",
"198 512 LINE",
"575 0 LINE",
"622 0 LINE",
"622 586 LINE"
);
}
);
userData = {
assembly = "NPUSHB[ ]	/* 81 values pushed */\01210 1 0 1 9 1 10 0 36 24 2 6 4 3 74 19 1 2 72 0 2 0 1 0 2 1 103 0 3 0 0 10 3 0 103 11 9 2 4 4 10 93 12 1 10 10 89 75 8 1 6 6 5 93 7 1 5 5 90 5 76 41 40 39 38 35 34 33 32 17 17 19 17 19 33 37 33 34 13 11 29 \012CALL[ ]	/* CallFunction */";
};
width = 738;
}
);
leftKerningGroup = B;
note = uni00D1;
rightKerningGroup = N;
unicode = 00D1;
},
{
glyphname = O;
layers = (
{
layerId = "35E6D5AF-F775-49E3-B2B8-5BA74BD20843";
paths = (
{
closed = 1;
nodes = (
"690 510.333 OFFCURVE",
"558.667 660 OFFCURVE",
"364 660 CURVE SMOOTH",
"172 660 OFFCURVE",
"39 511.667 OFFCURVE",
"39 325 CURVE SMOOTH",
"39 141 OFFCURVE",
"166 -10 OFFCURVE",
"362 -10 CURVE SMOOTH",
"427.333 -10 OFFCURVE",
"484.667 5.167 OFFCURVE",
"534 35.5 CURVE SMOOTH",
"632.667 96.167 OFFCURVE",
"690 202.333 OFFCURVE",
"690 325 CURVE SMOOTH"
);
},
{
closed = 1;
nodes = (
"611 173.333 OFFCURVE",
"519.333 56 OFFCURVE",
"366 56 CURVE SMOOTH",
"208.667 56 OFFCURVE",
"118 179.333 OFFCURVE",
"118 326 CURVE SMOOTH",
"118 475.333 OFFCURVE",
"209.333 594 OFFCURVE",
"364 594 CURVE SMOOTH",
"514.667 594 OFFCURVE",
"611 480 OFFCURVE",
"611 324 CURVE SMOOTH"
);
}
);
userData = {
assembly = "NPUSHB[ ]	/* 28 values pushed */\0120 2 2 1 95 0 1 1 97 75 0 3 3 0 95 0 0 0 98 0 76 36 36 36 35 4 11 24 \012CALL[ ]	/* CallFunction */";
};
width = 729;
}
);
leftKerningGroup = C;
note = uni004F;
rightKerningGroup = O;
unicode = 004F;
},
{
glyphname = Oacute;
layers = (
{
layerId = "35E6D5AF-F775-49E3-B2B8-5BA74BD20843";
paths = (
{
closed = 1;
nodes = (
"518 745 LINE",
"501 813 LINE",
"310 740 LINE",
"321 703 LINE"
);
},
{
closed = 1;
nodes = (
"690 510.333 OFFCURVE",
"558.667 660 OFFCURVE",
"364 660 CURVE SMOOTH",
"172 660 OFFCURVE",
"39 511.667 OFFCURVE",
"39 325 CURVE SMOOTH",
"39 141 OFFCURVE",
"166 -10 OFFCURVE",
"362 -10 CURVE SMOOTH",
"427.333 -10 OFFCURVE",
"484.667 5.167 OFFCURVE",
"534 35.5 CURVE SMOOTH",
"632.667 96.167 OFFCURVE",
"690 202.333 OFFCURVE",
"690 325 CURVE SMOOTH"
);
},
{
closed = 1;
nodes = (
"611 173.333 OFFCURVE",
"519.333 56 OFFCURVE",
"366 56 CURVE SMOOTH",
"208.667 56 OFFCURVE",
"118 179.333 OFFCURVE",
"118 326 CURVE SMOOTH",
"118 475.333 OFFCURVE",
"209.333 594 OFFCURVE",
"364 594 CURVE SMOOTH",
"514.667 594 OFFCURVE",
"611 480 OFFCURVE",
"611 324 CURVE SMOOTH"
);
}
);
userData = {
assembly = "NPUSHB[ ]	/* 34 values pushed */\0123 2 1 3 1 72 0 2 2 1 95 0 1 1 97 75 0 3 3 0 95 0 0 0 98 0 76 36 36 36 39 4 11 24 \012CALL[ ]	/* CallFunction */";
};
width = 728;
}
);
leftKerningGroup = C;
note = uni00D3;
rightKerningGroup = O;
unicode = 00D3;
},
{
glyphname = Obreve;
layers = (
{
layerId = "35E6D5AF-F775-49E3-B2B8-5BA74BD20843";
paths = (
{
closed = 1;
nodes = (
"436 816 LINE",
"436 770 OFFCURVE",
"414.667 747 OFFCURVE",
"372 747 CURVE SMOOTH",
"330.667 747 OFFCURVE",
"308 762.667 OFFCURVE",
"308 816 CURVE",
"250 816 LINE",
"250 738 OFFCURVE",
"290.667 699 OFFCURVE",
"372 699 CURVE SMOOTH",
"453.333 699 OFFCURVE",
"494 738 OFFCURVE",
"494 816 CURVE"
);
},
{
closed = 1;
nodes = (
"690 510.333 OFFCURVE",
"558.667 660 OFFCURVE",
"364 660 CURVE SMOOTH",
"172 660 OFFCURVE",
"39 511.667 OFFCURVE",
"39 325 CURVE SMOOTH",
"39 141 OFFCURVE",
"166 -10 OFFCURVE",
"362 -10 CURVE SMOOTH",
"427.333 -10 OFFCURVE",
"484.667 5.167 OFFCURVE",
"534 35.5 CURVE SMOOTH",
"632.667 96.167 OFFCURVE",
"690 202.333 OFFCURVE",
"690 325 CURVE SMOOTH"
);
},
{
closed = 1;
nodes = (
"611 173.333 OFFCURVE",
"519.333 56 OFFCURVE",
"366 56 CURVE SMOOTH",
"208.667 56 OFFCURVE",
"118 179.333 OFFCURVE",
"118 326 CURVE SMOOTH",
"118 475.333 OFFCURVE",
"209.333 594 OFFCURVE",
"364 594 CURVE SMOOTH",
"514.667 594 OFFCURVE",
"611 480 OFFCURVE",
"611 324 CURVE SMOOTH"
);
}
);
userData = {
assembly = "MPPEM[ ]	/* MeasurePixelPerEm */\012PUSHB[ ]	/* 1 value pushed */\01219 \012LT[ ]	/* LessThan */\012IF[ ]	/* If */\012NPUSHB[ ]	/* 37 values pushed */\0128 3 2 1 2 2 1 110 0 2 0 0 5 2 0 104 0 6 6 5 95 0 5 5 97 75 0 7 7 4 95 0 4 4 98 4 76 \012ELSE[ ]	/* Else */\012NPUSHB[ ]	/* 36 values pushed */\0128 3 2 1 2 1 131 0 2 0 0 5 2 0 104 0 6 6 5 95 0 5 5 97 75 0 7 7 4 95 0 4 4 98 4 76 \012EIF[ ]	/* EndIf */\012NPUSHB[ ]	/* 20 values pushed */\0120 0 34 32 28 26 22 20 16 14 0 10 0 10 34 17 33 9 11 23 \012CALL[ ]	/* CallFunction */";
};
width = 728;
}
);
leftKerningGroup = C;
note = uni014E;
rightKerningGroup = O;
unicode = 014E;
},
{
glyphname = Ocircumflex;
layers = (
{
layerId = "35E6D5AF-F775-49E3-B2B8-5BA74BD20843";
paths = (
{
closed = 1;
nodes = (
"504 737 LINE",
"378 827 LINE",
"357 827 LINE",
"230 734 LINE",
"249 701 LINE",
"365 764 LINE",
"485 702 LINE"
);
},
{
closed = 1;
nodes = (
"690 510.333 OFFCURVE",
"558.667 660 OFFCURVE",
"364 660 CURVE SMOOTH",
"172 660 OFFCURVE",
"39 511.667 OFFCURVE",
"39 325 CURVE SMOOTH",
"39 141 OFFCURVE",
"166 -10 OFFCURVE",
"362 -10 CURVE SMOOTH",
"427.333 -10 OFFCURVE",
"484.667 5.167 OFFCURVE",
"534 35.5 CURVE SMOOTH",
"632.667 96.167 OFFCURVE",
"690 202.333 OFFCURVE",
"690 325 CURVE SMOOTH"
);
},
{
closed = 1;
nodes = (
"611 173.333 OFFCURVE",
"519.333 56 OFFCURVE",
"366 56 CURVE SMOOTH",
"208.667 56 OFFCURVE",
"118 179.333 OFFCURVE",
"118 326 CURVE SMOOTH",
"118 475.333 OFFCURVE",
"209.333 594 OFFCURVE",
"364 594 CURVE SMOOTH",
"514.667 594 OFFCURVE",
"611 480 OFFCURVE",
"611 324 CURVE SMOOTH"
);
}
);
userData = {
assembly = "NPUSHB[ ]	/* 43 values pushed */\0124 3 2 1 4 2 0 1 74 0 0 2 0 131 0 3 3 2 95 0 2 2 97 75 0 4 4 1 95 0 1 1 98 1 76 36 36 36 36 21 5 11 25 \012CALL[ ]	/* CallFunction */";
};
width = 728;
}
);
leftKerningGroup = C;
note = uni00D4;
rightKerningGroup = O;
unicode = 00D4;
},
{
glyphname = Odieresis;
layers = (
{
layerId = "35E6D5AF-F775-49E3-B2B8-5BA74BD20843";
paths = (
{
closed = 1;
nodes = (
"241 718 LINE",
"322 718 LINE",
"322 803 LINE",
"241 803 LINE"
);
},
{
closed = 1;
nodes = (
"413 718 LINE",
"493 718 LINE",
"493 803 LINE",
"413 803 LINE"
);
},
{
closed = 1;
nodes = (
"690 510.333 OFFCURVE",
"558.667 660 OFFCURVE",
"364 660 CURVE SMOOTH",
"172 660 OFFCURVE",
"39 511.667 OFFCURVE",
"39 325 CURVE SMOOTH",
"39 141 OFFCURVE",
"166 -10 OFFCURVE",
"362 -10 CURVE SMOOTH",
"427.333 -10 OFFCURVE",
"484.667 5.167 OFFCURVE",
"534 35.5 CURVE SMOOTH",
"632.667 96.167 OFFCURVE",
"690 202.333 OFFCURVE",
"690 325 CURVE SMOOTH"
);
},
{
closed = 1;
nodes = (
"611 173.333 OFFCURVE",
"519.333 56 OFFCURVE",
"366 56 CURVE SMOOTH",
"208.667 56 OFFCURVE",
"118 179.333 OFFCURVE",
"118 326 CURVE SMOOTH",
"118 475.333 OFFCURVE",
"209.333 594 OFFCURVE",
"364 594 CURVE SMOOTH",
"514.667 594 OFFCURVE",
"611 480 OFFCURVE",
"611 324 CURVE SMOOTH"
);
}
);
userData = {
assembly = "NPUSHB[ ]	/* 59 values pushed */\0122 1 0 9 3 8 3 1 5 0 1 101 0 6 6 5 95 0 5 5 97 75 0 7 7 4 95 0 4 4 98 4 76 4 4 0 0 31 29 25 23 19 17 13 11 4 7 4 7 6 5 0 3 0 3 17 10 11 21 \012CALL[ ]	/* CallFunction */";
};
width = 728;
}
);
leftKerningGroup = C;
note = uni00D6;
rightKerningGroup = O;
unicode = 00D6;
},
{
glyphname = Ograve;
layers = (
{
layerId = "35E6D5AF-F775-49E3-B2B8-5BA74BD20843";
paths = (
{
closed = 1;
nodes = (
"433 740 LINE",
"242 813 LINE",
"225 745 LINE",
"423 703 LINE"
);
},
{
closed = 1;
nodes = (
"690 510.333 OFFCURVE",
"558.667 660 OFFCURVE",
"364 660 CURVE SMOOTH",
"172 660 OFFCURVE",
"39 511.667 OFFCURVE",
"39 325 CURVE SMOOTH",
"39 141 OFFCURVE",
"166 -10 OFFCURVE",
"362 -10 CURVE SMOOTH",
"427.333 -10 OFFCURVE",
"484.667 5.167 OFFCURVE",
"534 35.5 CURVE SMOOTH",
"632.667 96.167 OFFCURVE",
"690 202.333 OFFCURVE",
"690 325 CURVE SMOOTH"
);
},
{
closed = 1;
nodes = (
"611 173.333 OFFCURVE",
"519.333 56 OFFCURVE",
"366 56 CURVE SMOOTH",
"208.667 56 OFFCURVE",
"118 179.333 OFFCURVE",
"118 326 CURVE SMOOTH",
"118 475.333 OFFCURVE",
"209.333 594 OFFCURVE",
"364 594 CURVE SMOOTH",
"514.667 594 OFFCURVE",
"611 480 OFFCURVE",
"611 324 CURVE SMOOTH"
);
}
);
userData = {
assembly = "NPUSHB[ ]	/* 34 values pushed */\0123 2 1 3 1 72 0 2 2 1 95 0 1 1 97 75 0 3 3 0 95 0 0 0 98 0 76 36 36 36 39 4 11 24 \012CALL[ ]	/* CallFunction */";
};
width = 728;
}
);
leftKerningGroup = C;
note = uni00D2;
rightKerningGroup = O;
unicode = 00D2;
},
{
glyphname = Ohungarumlaut;
layers = (
{
layerId = "35E6D5AF-F775-49E3-B2B8-5BA74BD20843";
paths = (
{
closed = 1;
nodes = (
"451 831 LINE",
"402 882 LINE",
"268 729 LINE",
"294 703 LINE"
);
},
{
closed = 1;
nodes = (
"602 745 LINE",
"584 813 LINE",
"394 740 LINE",
"404 703 LINE"
);
},
{
closed = 1;
nodes = (
"690 510.333 OFFCURVE",
"558.667 660 OFFCURVE",
"364 660 CURVE SMOOTH",
"172 660 OFFCURVE",
"39 511.667 OFFCURVE",
"39 325 CURVE SMOOTH",
"39 141 OFFCURVE",
"166 -10 OFFCURVE",
"362 -10 CURVE SMOOTH",
"427.333 -10 OFFCURVE",
"484.667 5.167 OFFCURVE",
"534 35.5 CURVE SMOOTH",
"632.667 96.167 OFFCURVE",
"690 202.333 OFFCURVE",
"690 325 CURVE SMOOTH"
);
},
{
closed = 1;
nodes = (
"611 173.333 OFFCURVE",
"519.333 56 OFFCURVE",
"366 56 CURVE SMOOTH",
"208.667 56 OFFCURVE",
"118 179.333 OFFCURVE",
"118 326 CURVE SMOOTH",
"118 475.333 OFFCURVE",
"209.333 594 OFFCURVE",
"364 594 CURVE SMOOTH",
"514.667 594 OFFCURVE",
"611 480 OFFCURVE",
"611 324 CURVE SMOOTH"
);
}
);
userData = {
assembly = "NPUSHB[ ]	/* 37 values pushed */\0127 6 5 3 2 1 6 1 72 0 2 2 1 95 0 1 1 97 75 0 3 3 0 95 0 0 0 98 0 76 36 36 36 43 4 11 24 \012CALL[ ]	/* CallFunction */";
};
width = 728;
}
);
leftKerningGroup = C;
note = uni0150;
rightKerningGroup = O;
unicode = 0150;
},
{
glyphname = Omacron;
layers = (
{
layerId = "35E6D5AF-F775-49E3-B2B8-5BA74BD20843";
paths = (
{
closed = 1;
nodes = (
"513 733 LINE",
"513 790 LINE",
"234 790 LINE",
"234 733 LINE"
);
},
{
closed = 1;
nodes = (
"690 510.333 OFFCURVE",
"558.667 660 OFFCURVE",
"364 660 CURVE SMOOTH",
"172 660 OFFCURVE",
"39 511.667 OFFCURVE",
"39 325 CURVE SMOOTH",
"39 141 OFFCURVE",
"166 -10 OFFCURVE",
"362 -10 CURVE SMOOTH",
"427.333 -10 OFFCURVE",
"484.667 5.167 OFFCURVE",
"534 35.5 CURVE SMOOTH",
"632.667 96.167 OFFCURVE",
"690 202.333 OFFCURVE",
"690 325 CURVE SMOOTH"
);
},
{
closed = 1;
nodes = (
"611 173.333 OFFCURVE",
"519.333 56 OFFCURVE",
"366 56 CURVE SMOOTH",
"208.667 56 OFFCURVE",
"118 179.333 OFFCURVE",
"118 326 CURVE SMOOTH",
"118 475.333 OFFCURVE",
"209.333 594 OFFCURVE",
"364 594 CURVE SMOOTH",
"514.667 594 OFFCURVE",
"611 480 OFFCURVE",
"611 324 CURVE SMOOTH"
);
}
);
userData = {
assembly = "NPUSHB[ ]	/* 38 values pushed */\0120 1 0 0 3 1 0 101 0 4 4 3 95 0 3 3 97 75 0 5 5 2 95 0 2 2 98 2 76 36 36 36 36 17 16 6 11 26 \012CALL[ ]	/* CallFunction */";
};
width = 728;
}
);
leftKerningGroup = C;
note = uni014C;
rightKerningGroup = O;
unicode = 014C;
},
{
glyphname = Oslash;
layers = (
{
layerId = "35E6D5AF-F775-49E3-B2B8-5BA74BD20843";
paths = (
{
closed = 1;
nodes = (
"693 415 OFFCURVE",
"665 491.667 OFFCURVE",
"609 555 CURVE",
"694 650 LINE",
"615 650 LINE",
"566 595 LINE",
"510 638.333 OFFCURVE",
"443.667 660 OFFCURVE",
"367 660 CURVE SMOOTH",
"175 660 OFFCURVE",
"42 511.667 OFFCURVE",
"42 325 CURVE SMOOTH",
"42 234.333 OFFCURVE",
"69.667 157 OFFCURVE",
"125 93 CURVE",
"43 0 LINE",
"116 0 LINE",
"165 56 LINE",
"220.333 12 OFFCURVE",
"287 -10 OFFCURVE",
"365 -10 CURVE SMOOTH",
"430.333 -10 OFFCURVE",
"487.667 5.167 OFFCURVE",
"537 35.5 CURVE SMOOTH",
"635.667 96.167 OFFCURVE",
"693 202.333 OFFCURVE",
"693 325 CURVE SMOOTH"
);
},
{
closed = 1;
nodes = (
"121 475.333 OFFCURVE",
"213.667 594 OFFCURVE",
"367 594 CURVE SMOOTH",
"427 594 OFFCURVE",
"478 576.667 OFFCURVE",
"520 542 CURVE",
"174 149 LINE",
"138.667 197.667 OFFCURVE",
"121 256.667 OFFCURVE",
"121 326 CURVE SMOOTH"
);
},
{
closed = 1;
nodes = (
"614 173.333 OFFCURVE",
"522.333 56 OFFCURVE",
"369 56 CURVE SMOOTH",
"306.333 56 OFFCURVE",
"254.333 73.667 OFFCURVE",
"213 109 CURVE",
"561 500 LINE",
"596.333 452 OFFCURVE",
"614 393.333 OFFCURVE",
"614 324 CURVE SMOOTH"
);
}
);
userData = {
assembly = "MPPEM[ ]	/* MeasurePixelPerEm */\012PUSHB[ ]	/* 1 value pushed */\01223 \012LT[ ]	/* LessThan */\012IF[ ]	/* If */\012NPUSHB[ ]	/* 20 values pushed */\01216 1 4 2 32 31 24 23 19 9 6 5 4 2 74 6 1 5 1 73 \012ELSE[ ]	/* Else */\012NPUSHB[ ]	/* 20 values pushed */\01216 1 4 3 32 31 24 23 19 9 6 5 4 2 74 6 1 5 1 73 \012EIF[ ]	/* EndIf */\012MPPEM[ ]	/* MeasurePixelPerEm */\012PUSHB[ ]	/* 1 value pushed */\01223 \012LT[ ]	/* LessThan */\012IF[ ]	/* If */\012NPUSHB[ ]	/* 23 values pushed */\0120 4 4 2 95 3 1 2 2 97 75 0 5 5 0 95 1 1 0 0 98 0 76 \012ELSE[ ]	/* Else */\012NPUSHB[ ]	/* 31 values pushed */\0120 3 3 89 75 0 4 4 2 95 0 2 2 97 75 0 1 1 90 75 0 5 5 0 95 0 0 0 98 0 76 \012EIF[ ]	/* EndIf */\012NPUSHB[ ]	/* 9 values pushed */\01238 39 18 37 18 35 6 11 26 \012CALL[ ]	/* CallFunction */";
};
width = 735;
}
);
leftKerningGroup = C;
note = uni00D8;
rightKerningGroup = O;
unicode = 00D8;
},
{
glyphname = Oslashacute;
layers = (
{
layerId = "35E6D5AF-F775-49E3-B2B8-5BA74BD20843";
paths = (
{
closed = 1;
nodes = (
"534 745 LINE",
"517 813 LINE",
"326 740 LINE",
"337 703 LINE"
);
},
{
closed = 1;
nodes = (
"693 415 OFFCURVE",
"665 491.667 OFFCURVE",
"609 555 CURVE",
"694 650 LINE",
"615 650 LINE",
"566 595 LINE",
"510 638.333 OFFCURVE",
"443.667 660 OFFCURVE",
"367 660 CURVE SMOOTH",
"175 660 OFFCURVE",
"42 511.667 OFFCURVE",
"42 325 CURVE SMOOTH",
"42 234.333 OFFCURVE",
"69.667 157 OFFCURVE",
"125 93 CURVE",
"43 0 LINE",
"116 0 LINE",
"165 56 LINE",
"220.333 12 OFFCURVE",
"287 -10 OFFCURVE",
"365 -10 CURVE SMOOTH",
"430.333 -10 OFFCURVE",
"487.667 5.167 OFFCURVE",
"537 35.5 CURVE SMOOTH",
"635.667 96.167 OFFCURVE",
"693 202.333 OFFCURVE",
"693 325 CURVE SMOOTH"
);
},
{
closed = 1;
nodes = (
"121 475.333 OFFCURVE",
"213.667 594 OFFCURVE",
"367 594 CURVE SMOOTH",
"427 594 OFFCURVE",
"478 576.667 OFFCURVE",
"520 542 CURVE",
"174 149 LINE",
"138.667 197.667 OFFCURVE",
"121 256.667 OFFCURVE",
"121 326 CURVE SMOOTH"
);
},
{
closed = 1;
nodes = (
"614 173.333 OFFCURVE",
"522.333 56 OFFCURVE",
"369 56 CURVE SMOOTH",
"306.333 56 OFFCURVE",
"254.333 73.667 OFFCURVE",
"213 109 CURVE",
"561 500 LINE",
"596.333 452 OFFCURVE",
"614 393.333 OFFCURVE",
"614 324 CURVE SMOOTH"
);
}
);
userData = {
assembly = "MPPEM[ ]	/* MeasurePixelPerEm */\012PUSHB[ ]	/* 1 value pushed */\01223 \012LT[ ]	/* LessThan */\012IF[ ]	/* If */\012NPUSHB[ ]	/* 26 values pushed */\01220 1 4 2 36 35 28 27 23 13 6 5 4 2 74 10 1 5 1 73 3 2 1 3 2 72 \012ELSE[ ]	/* Else */\012NPUSHB[ ]	/* 26 values pushed */\01220 1 4 3 36 35 28 27 23 13 6 5 4 2 74 10 1 5 1 73 3 2 1 3 2 72 \012EIF[ ]	/* EndIf */\012MPPEM[ ]	/* MeasurePixelPerEm */\012PUSHB[ ]	/* 1 value pushed */\01223 \012LT[ ]	/* LessThan */\012IF[ ]	/* If */\012NPUSHB[ ]	/* 23 values pushed */\0120 4 4 2 95 3 1 2 2 97 75 0 5 5 0 95 1 1 0 0 98 0 76 \012ELSE[ ]	/* Else */\012NPUSHB[ ]	/* 31 values pushed */\0120 3 3 89 75 0 4 4 2 95 0 2 2 97 75 0 1 1 90 75 0 5 5 0 95 0 0 0 98 0 76 \012EIF[ ]	/* EndIf */\012NPUSHB[ ]	/* 9 values pushed */\01238 39 18 37 18 39 6 11 26 \012CALL[ ]	/* CallFunction */";
};
width = 735;
}
);
leftKerningGroup = C;
note = uni01FE;
rightKerningGroup = O;
unicode = 01FE;
},
{
glyphname = Otilde;
layers = (
{
layerId = "35E6D5AF-F775-49E3-B2B8-5BA74BD20843";
paths = (
{
closed = 1;
nodes = (
"475 807 LINE",
"464.333 769.667 OFFCURVE",
"446.667 765 OFFCURVE",
"428 765 CURVE SMOOTH",
"404 765 OFFCURVE",
"383.667 770.833 OFFCURVE",
"367 782.5 CURVE SMOOTH",
"350.333 794.167 OFFCURVE",
"331 800 OFFCURVE",
"309 800 CURVE SMOOTH",
"258.333 800 OFFCURVE",
"232.333 752.667 OFFCURVE",
"227 718 CURVE",
"260 705 LINE",
"270.667 737 OFFCURVE",
"291.333 744 OFFCURVE",
"310 744 CURVE SMOOTH",
"329.333 744 OFFCURVE",
"348.333 738.167 OFFCURVE",
"367 726.5 CURVE SMOOTH",
"385.667 714.833 OFFCURVE",
"407.667 709 OFFCURVE",
"433 709 CURVE SMOOTH",
"481 709 OFFCURVE",
"501.667 744.667 OFFCURVE",
"511 798 CURVE"
);
},
{
closed = 1;
nodes = (
"690 510.333 OFFCURVE",
"558.667 660 OFFCURVE",
"364 660 CURVE SMOOTH",
"172 660 OFFCURVE",
"39 511.667 OFFCURVE",
"39 325 CURVE SMOOTH",
"39 141 OFFCURVE",
"166 -10 OFFCURVE",
"362 -10 CURVE SMOOTH",
"427.333 -10 OFFCURVE",
"484.667 5.167 OFFCURVE",
"534 35.5 CURVE SMOOTH",
"632.667 96.167 OFFCURVE",
"690 202.333 OFFCURVE",
"690 325 CURVE SMOOTH"
);
},
{
closed = 1;
nodes = (
"611 173.333 OFFCURVE",
"519.333 56 OFFCURVE",
"366 56 CURVE SMOOTH",
"208.667 56 OFFCURVE",
"118 179.333 OFFCURVE",
"118 326 CURVE SMOOTH",
"118 475.333 OFFCURVE",
"209.333 594 OFFCURVE",
"364 594 CURVE SMOOTH",
"514.667 594 OFFCURVE",
"611 480 OFFCURVE",
"611 324 CURVE SMOOTH"
);
}
);
userData = {
assembly = "NPUSHB[ ]	/* 62 values pushed */\01210 1 0 1 9 1 5 0 2 74 19 1 2 72 0 2 0 1 0 2 1 103 0 3 0 0 5 3 0 103 0 6 6 5 95 0 5 5 97 75 0 7 7 4 95 0 4 4 98 4 76 36 36 36 38 33 37 33 34 8 11 28 \012CALL[ ]	/* CallFunction */";
};
width = 728;
}
);
leftKerningGroup = C;
note = uni00D5;
rightKerningGroup = O;
unicode = 00D5;
},
{
glyphname = OE;
layers = (
{
layerId = "35E6D5AF-F775-49E3-B2B8-5BA74BD20843";
paths = (
{
closed = 1;
nodes = (
"937 0 LINE",
"957 184 LINE",
"892 191 LINE",
"872 64 LINE",
"606 64 LINE",
"606 298 LINE",
"912 298 LINE",
"912 362 LINE",
"606 362 LINE",
"606 586 LINE",
"863 586 LINE",
"883 459 LINE",
"948 466 LINE",
"928 650 LINE",
"533 650 LINE",
"533 611 LINE",
"486.333 641.667 OFFCURVE",
"430.333 660 OFFCURVE",
"365 660 CURVE SMOOTH",
"301.667 660 OFFCURVE",
"245.5 645 OFFCURVE",
"196.5 615 CURVE SMOOTH",
"98.5 555 OFFCURVE",
"39 449 OFFCURVE",
"39 325 CURVE SMOOTH",
"39 263.667 OFFCURVE",
"52.667 207.667 OFFCURVE",
"80 157 CURVE SMOOTH",
"134.667 55.667 OFFCURVE",
"235.667 -10 OFFCURVE",
"365 -10 CURVE SMOOTH",
"431.667 -10 OFFCURVE",
"486.333 8.667 OFFCURVE",
"533 38 CURVE",
"533 0 LINE"
);
},
{
closed = 1;
nodes = (
"493 76 OFFCURVE",
"438.333 56 OFFCURVE",
"369 56 CURVE SMOOTH",
"207.667 56 OFFCURVE",
"117 183 OFFCURVE",
"117 327 CURVE SMOOTH",
"117 475 OFFCURVE",
"213.333 594 OFFCURVE",
"368 594 CURVE SMOOTH",
"432.667 594 OFFCURVE",
"487.667 574 OFFCURVE",
"533 534 CURVE",
"533 116 LINE"
);
}
);
userData = {
assembly = "MPPEM[ ]	/* MeasurePixelPerEm */\012PUSHB[ ]	/* 1 value pushed */\01223 \012LT[ ]	/* LessThan */\012IF[ ]	/* If */\012NPUSHB[ ]	/* 22 values pushed */\01216 1 4 2 32 20 19 3 5 4 31 30 29 3 7 6 2 1 0 7 4 74 \012ELSE[ ]	/* Else */\012MPPEM[ ]	/* MeasurePixelPerEm */\012PUSHB[ ]	/* 1 value pushed */\01230 \012LT[ ]	/* LessThan */\012IF[ ]	/* If */\012NPUSHB[ ]	/* 22 values pushed */\01216 1 4 3 32 20 19 3 5 4 31 30 29 3 7 6 2 1 0 7 4 74 \012ELSE[ ]	/* Else */\012NPUSHB[ ]	/* 22 values pushed */\01216 1 8 3 32 20 19 3 5 4 31 30 29 3 7 6 2 1 0 9 4 74 \012EIF[ ]	/* EndIf */\012EIF[ ]	/* EndIf */\012MPPEM[ ]	/* MeasurePixelPerEm */\012PUSHB[ ]	/* 1 value pushed */\01223 \012LT[ ]	/* LessThan */\012IF[ ]	/* If */\012NPUSHB[ ]	/* 33 values pushed */\0120 5 0 6 7 5 6 101 8 1 4 4 2 95 3 1 2 2 97 75 9 1 7 7 0 95 1 1 0 0 90 0 76 \012ELSE[ ]	/* Else */\012MPPEM[ ]	/* MeasurePixelPerEm */\012PUSHB[ ]	/* 1 value pushed */\01230 \012LT[ ]	/* LessThan */\012IF[ ]	/* If */\012NPUSHB[ ]	/* 53 values pushed */\0120 5 0 6 7 5 6 101 8 1 4 4 2 95 0 2 2 97 75 8 1 4 4 3 93 0 3 3 89 75 9 1 7 7 0 93 0 0 0 90 75 9 1 7 7 1 95 0 1 1 98 1 76 \012ELSE[ ]	/* Else */\012NPUSHB[ ]	/* 49 values pushed */\0120 5 0 6 7 5 6 101 0 8 8 2 95 0 2 2 97 75 0 4 4 3 93 0 3 3 89 75 0 7 7 0 93 0 0 0 90 75 0 9 9 1 95 0 1 1 98 1 76 \012EIF[ ]	/* EndIf */\012EIF[ ]	/* EndIf */\012NPUSHB[ ]	/* 14 values pushed */\01241 39 37 17 17 17 19 19 38 35 16 10 11 29 \012CALL[ ]	/* CallFunction */";
};
width = 998;
}
);
leftKerningGroup = C;
note = uni0152;
rightKerningGroup = E;
unicode = 0152;
},
{
glyphname = P;
layers = (
{
layerId = "35E6D5AF-F775-49E3-B2B8-5BA74BD20843";
paths = (
{
closed = 1;
nodes = (
"544 559 OFFCURVE",
"479.333 650 OFFCURVE",
"318 650 CURVE SMOOTH",
"42 650 LINE",
"42 586 LINE",
"124 586 LINE",
"124 64 LINE",
"42 64 LINE",
"42 0 LINE",
"309 0 LINE",
"309 64 LINE",
"197 64 LINE",
"197 242 LINE",
"324 242 LINE SMOOTH",
"452 242 OFFCURVE",
"544 315 OFFCURVE",
"544 451 CURVE SMOOTH"
);
},
{
closed = 1;
nodes = (
"466 353.667 OFFCURVE",
"415.667 306 OFFCURVE",
"315 306 CURVE SMOOTH",
"197 306 LINE",
"197 586 LINE",
"312 586 LINE SMOOTH",
"418.667 586 OFFCURVE",
"466 533 OFFCURVE",
"466 449 CURVE SMOOTH"
);
}
);
userData = {
assembly = "NPUSHB[ ]	/* 42 values pushed */\0120 7 0 0 1 7 0 101 6 1 4 4 5 93 0 5 5 89 75 3 1 1 1 2 93 0 2 2 90 2 76 33 36 33 17 17 17 17 34 8 11 28 \012CALL[ ]	/* CallFunction */";
};
width = 574;
}
);
leftKerningGroup = B;
note = uni0050;
rightKerningGroup = P;
unicode = 0050;
},
{
glyphname = Thorn;
layers = (
{
layerId = "35E6D5AF-F775-49E3-B2B8-5BA74BD20843";
paths = (
{
closed = 1;
nodes = (
"279 0 LINE",
"279 64 LINE",
"198 64 LINE",
"198 139 LINE",
"329 139 LINE SMOOTH",
"457 139 OFFCURVE",
"549 209.333 OFFCURVE",
"549 340 CURVE SMOOTH",
"549 444 OFFCURVE",
"483 525 OFFCURVE",
"323 525 CURVE SMOOTH",
"198 525 LINE",
"198 586 LINE",
"279 586 LINE",
"279 650 LINE",
"42 650 LINE",
"42 586 LINE",
"124 586 LINE",
"124 64 LINE",
"42 64 LINE",
"42 0 LINE"
);
},
{
closed = 1;
nodes = (
"422.333 471 OFFCURVE",
"471 420.667 OFFCURVE",
"471 338 CURVE SMOOTH",
"471 242 OFFCURVE",
"420.333 194 OFFCURVE",
"319 194 CURVE SMOOTH",
"198 194 LINE",
"198 471 LINE",
"317 471 LINE SMOOTH"
);
}
);
userData = {
assembly = "NPUSHB[ ]	/* 59 values pushed */\0120 5 10 1 8 9 5 8 101 0 9 0 6 1 9 6 101 4 1 2 2 3 93 0 3 3 89 75 7 1 1 1 0 93 0 0 0 90 0 76 22 21 25 23 21 28 22 28 17 36 33 17 17 17 17 16 11 11 28 \012CALL[ ]	/* CallFunction */";
};
width = 572;
}
);
leftKerningGroup = B;
note = uni00DE;
rightKerningGroup = Thorn;
unicode = 00DE;
},
{
glyphname = Q;
layers = (
{
layerId = "35E6D5AF-F775-49E3-B2B8-5BA74BD20843";
paths = (
{
closed = 1;
nodes = (
"690 510.333 OFFCURVE",
"558.667 660 OFFCURVE",
"364 660 CURVE SMOOTH",
"172 660 OFFCURVE",
"39 511.667 OFFCURVE",
"39 325 CURVE SMOOTH",
"39 141 OFFCURVE",
"166 -10 OFFCURVE",
"362 -10 CURVE SMOOTH",
"433.333 -10 OFFCURVE",
"496 9 OFFCURVE",
"550 47 CURVE",
"629 -33 LINE",
"675 13 LINE",
"600 89 LINE",
"656 150.333 OFFCURVE",
"690 233 OFFCURVE",
"690 325 CURVE SMOOTH"
);
},
{
closed = 1;
nodes = (
"611 249.333 OFFCURVE",
"590.667 188 OFFCURVE",
"550 140 CURVE",
"428 264 LINE",
"381 218 LINE",
"502 96 LINE",
"464 69.333 OFFCURVE",
"418.667 56 OFFCURVE",
"366 56 CURVE SMOOTH",
"208.667 56 OFFCURVE",
"118 179.333 OFFCURVE",
"118 326 CURVE SMOOTH",
"118 475.333 OFFCURVE",
"209.333 594 OFFCURVE",
"364 594 CURVE SMOOTH",
"514.667 594 OFFCURVE",
"611 480 OFFCURVE",
"611 324 CURVE SMOOTH"
);
}
);
userData = {
assembly = "NPUSHB[ ]	/* 47 values pushed */\01231 30 29 28 3 5 3 2 6 4 2 0 3 2 74 5 1 0 71 0 2 2 1 95 0 1 1 97 75 0 3 3 0 95 0 0 0 98 0 76 36 36 36 39 4 11 24 \012CALL[ ]	/* CallFunction */";
};
width = 736;
}
);
leftKerningGroup = C;
note = uni0051;
rightKerningGroup = O;
unicode = 0051;
},
{
glyphname = R;
layers = (
{
layerId = "35E6D5AF-F775-49E3-B2B8-5BA74BD20843";
paths = (
{
closed = 1;
nodes = (
"607 0 LINE",
"607 64 LINE",
"525 64 LINE",
"409 286 LINE",
"501 310 OFFCURVE",
"548 382 OFFCURVE",
"548 466 CURVE SMOOTH",
"548 571.333 OFFCURVE",
"484.333 650 OFFCURVE",
"323 650 CURVE SMOOTH",
"42 650 LINE",
"42 586 LINE",
"124 586 LINE",
"124 64 LINE",
"42 64 LINE",
"42 0 LINE",
"285 0 LINE",
"285 64 LINE",
"198 64 LINE",
"198 272 LINE",
"337 272 LINE",
"477 0 LINE"
);
},
{
closed = 1;
nodes = (
"471 381.667 OFFCURVE",
"426.667 333 OFFCURVE",
"316 333 CURVE SMOOTH",
"198 333 LINE",
"198 586 LINE",
"314 586 LINE SMOOTH",
"424.667 586 OFFCURVE",
"471 548.333 OFFCURVE",
"471 463 CURVE SMOOTH"
);
}
);
userData = {
assembly = "NPUSHB[ ]	/* 53 values pushed */\01219 1 1 9 1 74 0 9 0 1 2 9 1 101 8 1 5 5 6 93 0 6 6 89 75 7 4 2 2 2 0 93 3 1 0 0 90 0 76 29 27 35 22 33 17 17 17 17 17 16 10 11 29 \012CALL[ ]	/* CallFunction */";
};
width = 617;
}
);
leftKerningGroup = B;
note = uni0052;
rightKerningGroup = R;
unicode = 0052;
},
{
glyphname = Racute;
layers = (
{
layerId = "35E6D5AF-F775-49E3-B2B8-5BA74BD20843";
paths = (
{
closed = 1;
nodes = (
"444 745 LINE",
"427 813 LINE",
"236 740 LINE",
"247 703 LINE"
);
},
{
closed = 1;
nodes = (
"607 0 LINE",
"607 64 LINE",
"525 64 LINE",
"409 286 LINE",
"501 310 OFFCURVE",
"548 382 OFFCURVE",
"548 466 CURVE SMOOTH",
"548 571.333 OFFCURVE",
"484.333 650 OFFCURVE",
"323 650 CURVE SMOOTH",
"42 650 LINE",
"42 586 LINE",
"124 586 LINE",
"124 64 LINE",
"42 64 LINE",
"42 0 LINE",
"285 0 LINE",
"285 64 LINE",
"198 64 LINE",
"198 272 LINE",
"337 272 LINE",
"477 0 LINE"
);
},
{
closed = 1;
nodes = (
"471 381.667 OFFCURVE",
"426.667 333 OFFCURVE",
"316 333 CURVE SMOOTH",
"198 333 LINE",
"198 586 LINE",
"314 586 LINE SMOOTH",
"424.667 586 OFFCURVE",
"471 548.333 OFFCURVE",
"471 463 CURVE SMOOTH"
);
}
);
userData = {
assembly = "NPUSHB[ ]	/* 59 values pushed */\01223 1 1 9 1 74 3 2 1 3 6 72 0 9 0 1 2 9 1 101 8 1 5 5 6 93 0 6 6 89 75 7 4 2 2 2 0 93 3 1 0 0 90 0 76 33 31 35 22 33 17 17 17 17 17 20 10 11 29 \012CALL[ ]	/* CallFunction */";
};
width = 616;
}
);
leftKerningGroup = B;
note = uni0154;
rightKerningGroup = R;
unicode = 0154;
},
{
glyphname = Rcaron;
layers = (
{
layerId = "35E6D5AF-F775-49E3-B2B8-5BA74BD20843";
paths = (
{
closed = 1;
nodes = (
"436 792 LINE",
"417 827 LINE",
"302 763 LINE",
"182 824 LINE",
"162 790 LINE",
"288 701 LINE",
"310 701 LINE"
);
},
{
closed = 1;
nodes = (
"607 0 LINE",
"607 64 LINE",
"525 64 LINE",
"409 286 LINE",
"501 310 OFFCURVE",
"548 382 OFFCURVE",
"548 466 CURVE SMOOTH",
"548 571.333 OFFCURVE",
"484.333 650 OFFCURVE",
"323 650 CURVE SMOOTH",
"42 650 LINE",
"42 586 LINE",
"124 586 LINE",
"124 64 LINE",
"42 64 LINE",
"42 0 LINE",
"285 0 LINE",
"285 64 LINE",
"198 64 LINE",
"198 272 LINE",
"337 272 LINE",
"477 0 LINE"
);
},
{
closed = 1;
nodes = (
"471 381.667 OFFCURVE",
"426.667 333 OFFCURVE",
"316 333 CURVE SMOOTH",
"198 333 LINE",
"198 586 LINE",
"314 586 LINE SMOOTH",
"424.667 586 OFFCURVE",
"471 548.333 OFFCURVE",
"471 463 CURVE SMOOTH"
);
}
);
userData = {
assembly = "NPUSHB[ ]	/* 67 values pushed */\01226 1 2 10 1 74 6 5 4 3 4 0 72 0 0 7 0 131 0 10 0 2 3 10 2 101 9 1 6 6 7 93 0 7 7 89 75 8 5 2 3 3 1 93 4 1 1 1 90 1 76 36 34 33 31 22 33 17 17 17 17 17 21 17 11 11 29 \012CALL[ ]	/* CallFunction */";
};
width = 616;
}
);
leftKerningGroup = B;
note = uni0158;
rightKerningGroup = R;
unicode = 0158;
},
{
glyphname = Rcommaaccent;
layers = (
{
layerId = "35E6D5AF-F775-49E3-B2B8-5BA74BD20843";
paths = (
{
closed = 1;
nodes = (
"607 0 LINE",
"607 64 LINE",
"525 64 LINE",
"409 286 LINE",
"501 310 OFFCURVE",
"548 382 OFFCURVE",
"548 466 CURVE SMOOTH",
"548 571.333 OFFCURVE",
"484.333 650 OFFCURVE",
"323 650 CURVE SMOOTH",
"42 650 LINE",
"42 586 LINE",
"124 586 LINE",
"124 64 LINE",
"42 64 LINE",
"42 0 LINE",
"285 0 LINE",
"285 64 LINE",
"198 64 LINE",
"198 272 LINE",
"337 272 LINE",
"477 0 LINE"
);
},
{
closed = 1;
nodes = (
"471 381.667 OFFCURVE",
"426.667 333 OFFCURVE",
"316 333 CURVE SMOOTH",
"198 333 LINE",
"198 586 LINE",
"314 586 LINE SMOOTH",
"424.667 586 OFFCURVE",
"471 548.333 OFFCURVE",
"471 463 CURVE SMOOTH"
);
},
{
closed = 1;
nodes = (
"377 -64 LINE",
"310 -64 LINE",
"302 -218 LINE",
"359 -218 LINE"
);
}
);
userData = {
assembly = "NPUSHB[ ]	/* 72 values pushed */\01219 1 1 9 1 74 0 9 0 1 2 9 1 101 8 1 5 5 6 93 0 6 6 89 75 7 4 2 2 2 0 93 3 1 0 0 90 75 12 1 11 11 10 93 0 10 10 94 10 76 31 31 31 34 31 34 33 32 29 27 35 22 33 17 17 17 17 17 16 13 11 29 \012CALL[ ]	/* CallFunction */";
};
width = 616;
}
);
leftKerningGroup = B;
note = uni0156;
rightKerningGroup = R;
unicode = 0156;
},
{
glyphname = S;
layers = (
{
layerId = "35E6D5AF-F775-49E3-B2B8-5BA74BD20843";
paths = (
{
closed = 1;
nodes = (
"490 231.333 OFFCURVE",
"478.167 268.5 OFFCURVE",
"454.5 293.5 CURVE SMOOTH",
"407.167 343.5 OFFCURVE",
"334.667 358.667 OFFCURVE",
"276 372 CURVE SMOOTH",
"202.667 389.333 OFFCURVE",
"131 406.667 OFFCURVE",
"131 488 CURVE SMOOTH",
"131 557.333 OFFCURVE",
"185.667 595 OFFCURVE",
"267 595 CURVE SMOOTH",
"305.667 595 OFFCURVE",
"349.667 589.333 OFFCURVE",
"391 568 CURVE",
"401 471 LINE",
"461 477 LINE",
"455 606 LINE",
"413.667 638 OFFCURVE",
"332 660 OFFCURVE",
"260 660 CURVE SMOOTH",
"148 660 OFFCURVE",
"53 602.667 OFFCURVE",
"53 480 CURVE SMOOTH",
"53 437.333 OFFCURVE",
"63 404.833 OFFCURVE",
"83 382.5 CURVE SMOOTH",
"123 337.833 OFFCURVE",
"187.667 321.333 OFFCURVE",
"249 308 CURVE SMOOTH",
"329 289.333 OFFCURVE",
"411 273.667 OFFCURVE",
"411 175 CURVE SMOOTH",
"411 87 OFFCURVE",
"339.333 54 OFFCURVE",
"254 54 CURVE SMOOTH",
"206 54 OFFCURVE",
"163 60.333 OFFCURVE",
"119 83 CURVE",
"123 165 LINE",
"63 171 LINE",
"49 43 LINE",
"97.667 7.667 OFFCURVE",
"167.333 -10 OFFCURVE",
"258 -10 CURVE SMOOTH",
"390 -10 OFFCURVE",
"490 56.667 OFFCURVE",
"490 182 CURVE SMOOTH"
);
}
);
userData = {
assembly = "NPUSHB[ ]	/* 45 values pushed */\01227 1 3 2 28 8 7 6 4 1 3 5 1 0 1 3 74 0 3 3 2 95 0 2 2 97 75 0 1 1 0 95 0 0 0 98 0 76 39 43 38 34 4 11 24 \012CALL[ ]	/* CallFunction */";
};
width = 533;
}
);
leftKerningGroup = S;
note = uni0053;
rightKerningGroup = S;
unicode = 0053;
},
{
glyphname = Sacute;
layers = (
{
layerId = "35E6D5AF-F775-49E3-B2B8-5BA74BD20843";
paths = (
{
closed = 1;
nodes = (
"411 745 LINE",
"394 813 LINE",
"203 740 LINE",
"214 703 LINE"
);
},
{
closed = 1;
nodes = (
"490 231.333 OFFCURVE",
"478.167 268.5 OFFCURVE",
"454.5 293.5 CURVE SMOOTH",
"407.167 343.5 OFFCURVE",
"334.667 358.667 OFFCURVE",
"276 372 CURVE SMOOTH",
"202.667 389.333 OFFCURVE",
"131 406.667 OFFCURVE",
"131 488 CURVE SMOOTH",
"131 557.333 OFFCURVE",
"185.667 595 OFFCURVE",
"267 595 CURVE SMOOTH",
"305.667 595 OFFCURVE",
"349.667 589.333 OFFCURVE",
"391 568 CURVE",
"401 471 LINE",
"461 477 LINE",
"455 606 LINE",
"413.667 638 OFFCURVE",
"332 660 OFFCURVE",
"260 660 CURVE SMOOTH",
"148 660 OFFCURVE",
"53 602.667 OFFCURVE",
"53 480 CURVE SMOOTH",
"53 437.333 OFFCURVE",
"63 404.833 OFFCURVE",
"83 382.5 CURVE SMOOTH",
"123 337.833 OFFCURVE",
"187.667 321.333 OFFCURVE",
"249 308 CURVE SMOOTH",
"329 289.333 OFFCURVE",
"411 273.667 OFFCURVE",
"411 175 CURVE SMOOTH",
"411 87 OFFCURVE",
"339.333 54 OFFCURVE",
"254 54 CURVE SMOOTH",
"206 54 OFFCURVE",
"163 60.333 OFFCURVE",
"119 83 CURVE",
"123 165 LINE",
"63 171 LINE",
"49 43 LINE",
"97.667 7.667 OFFCURVE",
"167.333 -10 OFFCURVE",
"258 -10 CURVE SMOOTH",
"390 -10 OFFCURVE",
"490 56.667 OFFCURVE",
"490 182 CURVE SMOOTH"
);
}
);
userData = {
assembly = "NPUSHB[ ]	/* 51 values pushed */\01231 1 3 2 32 12 11 10 4 1 3 9 1 0 1 3 74 3 2 1 3 2 72 0 3 3 2 95 0 2 2 97 75 0 1 1 0 95 0 0 0 98 0 76 39 43 38 38 4 11 24 \012CALL[ ]	/* CallFunction */";
};
width = 533;
}
);
leftKerningGroup = S;
note = uni015A;
rightKerningGroup = S;
unicode = 015A;
},
{
glyphname = Scaron;
layers = (
{
layerId = "35E6D5AF-F775-49E3-B2B8-5BA74BD20843";
paths = (
{
closed = 1;
nodes = (
"397 792 LINE",
"378 827 LINE",
"263 763 LINE",
"143 824 LINE",
"123 790 LINE",
"249 701 LINE",
"271 701 LINE"
);
},
{
closed = 1;
nodes = (
"490 231.333 OFFCURVE",
"478.167 268.5 OFFCURVE",
"454.5 293.5 CURVE SMOOTH",
"407.167 343.5 OFFCURVE",
"334.667 358.667 OFFCURVE",
"276 372 CURVE SMOOTH",
"202.667 389.333 OFFCURVE",
"131 406.667 OFFCURVE",
"131 488 CURVE SMOOTH",
"131 557.333 OFFCURVE",
"185.667 595 OFFCURVE",
"267 595 CURVE SMOOTH",
"305.667 595 OFFCURVE",
"349.667 589.333 OFFCURVE",
"391 568 CURVE",
"401 471 LINE",
"461 477 LINE",
"455 606 LINE",
"413.667 638 OFFCURVE",
"332 660 OFFCURVE",
"260 660 CURVE SMOOTH",
"148 660 OFFCURVE",
"53 602.667 OFFCURVE",
"53 480 CURVE SMOOTH",
"53 437.333 OFFCURVE",
"63 404.833 OFFCURVE",
"83 382.5 CURVE SMOOTH",
"123 337.833 OFFCURVE",
"187.667 321.333 OFFCURVE",
"249 308 CURVE SMOOTH",
"329 289.333 OFFCURVE",
"411 273.667 OFFCURVE",
"411 175 CURVE SMOOTH",
"411 87 OFFCURVE",
"339.333 54 OFFCURVE",
"254 54 CURVE SMOOTH",
"206 54 OFFCURVE",
"163 60.333 OFFCURVE",
"119 83 CURVE",
"123 165 LINE",
"63 171 LINE",
"49 43 LINE",
"97.667 7.667 OFFCURVE",
"167.333 -10 OFFCURVE",
"258 -10 CURVE SMOOTH",
"390 -10 OFFCURVE",
"490 56.667 OFFCURVE",
"490 182 CURVE SMOOTH"
);
}
);
userData = {
assembly = "NPUSHB[ ]	/* 58 values pushed */\01234 1 4 3 35 15 14 13 4 2 4 12 1 1 2 3 74 6 5 4 3 4 0 72 0 0 3 0 131 0 4 4 3 95 0 3 3 97 75 0 2 2 1 95 0 1 1 98 1 76 39 43 38 39 17 5 11 25 \012CALL[ ]	/* CallFunction */";
};
width = 533;
}
);
leftKerningGroup = S;
note = uni0160;
rightKerningGroup = S;
unicode = 0160;
},
{
glyphname = Scedilla;
layers = (
{
layerId = "35E6D5AF-F775-49E3-B2B8-5BA74BD20843";
paths = (
{
closed = 1;
nodes = (
"389 -81 OFFCURVE",
"361.333 -47 OFFCURVE",
"300 -47 CURVE SMOOTH",
"292 -47 LINE",
"292 -8 LINE",
"406.667 2.667 OFFCURVE",
"490 67.333 OFFCURVE",
"490 182 CURVE SMOOTH",
"490 231.333 OFFCURVE",
"478.167 268.5 OFFCURVE",
"454.5 293.5 CURVE SMOOTH",
"407.167 343.5 OFFCURVE",
"334.667 358.667 OFFCURVE",
"276 372 CURVE SMOOTH",
"202.667 389.333 OFFCURVE",
"131 406.667 OFFCURVE",
"131 488 CURVE SMOOTH",
"131 557.333 OFFCURVE",
"185.667 595 OFFCURVE",
"267 595 CURVE SMOOTH",
"305.667 595 OFFCURVE",
"349.667 589.333 OFFCURVE",
"391 568 CURVE",
"401 471 LINE",
"461 477 LINE",
"455 606 LINE",
"413.667 638 OFFCURVE",
"332 660 OFFCURVE",
"260 660 CURVE SMOOTH",
"148 660 OFFCURVE",
"53 602.667 OFFCURVE",
"53 480 CURVE SMOOTH",
"53 437.333 OFFCURVE",
"63 404.833 OFFCURVE",
"83 382.5 CURVE SMOOTH",
"123 337.833 OFFCURVE",
"187.667 321.333 OFFCURVE",
"249 308 CURVE SMOOTH",
"329 289.333 OFFCURVE",
"411 273.667 OFFCURVE",
"411 175 CURVE SMOOTH",
"411 87 OFFCURVE",
"339.333 54 OFFCURVE",
"254 54 CURVE SMOOTH",
"206 54 OFFCURVE",
"163 60.333 OFFCURVE",
"119 83 CURVE",
"123 165 LINE",
"63 171 LINE",
"49 43 LINE",
"93 11 OFFCURVE",
"156.667 -6.667 OFFCURVE",
"240 -10 CURVE",
"240 -80 LINE",
"270 -80 LINE SMOOTH",
"302 -80 OFFCURVE",
"328 -86.667 OFFCURVE",
"328 -120 CURVE SMOOTH",
"328 -147.333 OFFCURVE",
"311 -161 OFFCURVE",
"277 -161 CURVE SMOOTH",
"247 -161 OFFCURVE",
"222 -153.333 OFFCURVE",
"202 -138 CURVE",
"185 -179 LINE",
"209 -199 OFFCURVE",
"241 -209 OFFCURVE",
"281 -209 CURVE SMOOTH",
"338.333 -209 OFFCURVE",
"389 -185 OFFCURVE",
"389 -125 CURVE SMOOTH"
);
}
);
userData = {
assembly = "NPUSHB[ ]	/* 30 values pushed */\01239 1 6 5 40 20 19 18 4 4 6 17 1 3 4 6 1 1 2 5 1 0 1 5 74 58 1 3 1 73 \012MPPEM[ ]	/* MeasurePixelPerEm */\012PUSHB[ ]	/* 1 value pushed */\01210 \012LT[ ]	/* LessThan */\012IF[ ]	/* If */\012NPUSHB[ ]	/* 44 values pushed */\0120 7 3 2 1 7 112 0 2 1 3 2 110 0 6 6 5 95 0 5 5 97 75 0 4 4 3 95 0 3 3 98 75 0 1 1 0 96 0 0 0 94 0 76 \012ELSE[ ]	/* Else */\012MPPEM[ ]	/* MeasurePixelPerEm */\012PUSHB[ ]	/* 1 value pushed */\01217 \012LT[ ]	/* LessThan */\012IF[ ]	/* If */\012NPUSHB[ ]	/* 45 values pushed */\0120 7 3 2 3 7 2 126 0 2 1 3 2 110 0 6 6 5 95 0 5 5 97 75 0 4 4 3 95 0 3 3 98 75 0 1 1 0 96 0 0 0 94 0 76 \012ELSE[ ]	/* Else */\012NPUSHB[ ]	/* 46 values pushed */\0120 7 3 2 3 7 2 126 0 2 1 3 2 1 124 0 6 6 5 95 0 5 5 97 75 0 4 4 3 95 0 3 3 98 75 0 1 1 0 96 0 0 0 94 0 76 \012EIF[ ]	/* EndIf */\012EIF[ ]	/* EndIf */\012NPUSHB[ ]	/* 11 values pushed */\01245 39 43 38 17 35 35 34 8 11 28 \012CALL[ ]	/* CallFunction */";
};
width = 533;
}
);
leftKerningGroup = S;
note = uni015E;
rightKerningGroup = S;
unicode = 015E;
},
{
glyphname = Scircumflex;
layers = (
{
layerId = "35E6D5AF-F775-49E3-B2B8-5BA74BD20843";
paths = (
{
closed = 1;
nodes = (
"408 737 LINE",
"282 827 LINE",
"261 827 LINE",
"134 734 LINE",
"153 701 LINE",
"269 764 LINE",
"389 702 LINE"
);
},
{
closed = 1;
nodes = (
"490 231.333 OFFCURVE",
"478.167 268.5 OFFCURVE",
"454.5 293.5 CURVE SMOOTH",
"407.167 343.5 OFFCURVE",
"334.667 358.667 OFFCURVE",
"276 372 CURVE SMOOTH",
"202.667 389.333 OFFCURVE",
"131 406.667 OFFCURVE",
"131 488 CURVE SMOOTH",
"131 557.333 OFFCURVE",
"185.667 595 OFFCURVE",
"267 595 CURVE SMOOTH",
"305.667 595 OFFCURVE",
"349.667 589.333 OFFCURVE",
"391 568 CURVE",
"401 471 LINE",
"461 477 LINE",
"455 606 LINE",
"413.667 638 OFFCURVE",
"332 660 OFFCURVE",
"260 660 CURVE SMOOTH",
"148 660 OFFCURVE",
"53 602.667 OFFCURVE",
"53 480 CURVE SMOOTH",
"53 437.333 OFFCURVE",
"63 404.833 OFFCURVE",
"83 382.5 CURVE SMOOTH",
"123 337.833 OFFCURVE",
"187.667 321.333 OFFCURVE",
"249 308 CURVE SMOOTH",
"329 289.333 OFFCURVE",
"411 273.667 OFFCURVE",
"411 175 CURVE SMOOTH",
"411 87 OFFCURVE",
"339.333 54 OFFCURVE",
"254 54 CURVE SMOOTH",
"206 54 OFFCURVE",
"163 60.333 OFFCURVE",
"119 83 CURVE",
"123 165 LINE",
"63 171 LINE",
"49 43 LINE",
"97.667 7.667 OFFCURVE",
"167.333 -10 OFFCURVE",
"258 -10 CURVE SMOOTH",
"390 -10 OFFCURVE",
"490 56.667 OFFCURVE",
"490 182 CURVE SMOOTH"
);
}
);
userData = {
assembly = "NPUSHB[ ]	/* 58 values pushed */\0124 3 2 1 4 3 0 34 1 4 3 35 15 14 13 4 2 4 12 1 1 2 4 74 0 0 3 0 131 0 4 4 3 95 0 3 3 97 75 0 2 2 1 95 0 1 1 98 1 76 39 43 38 35 21 5 11 25 \012CALL[ ]	/* CallFunction */";
};
width = 533;
}
);
leftKerningGroup = S;
note = uni015C;
rightKerningGroup = S;
unicode = 015C;
},
{
glyphname = Scommaaccent;
layers = (
{
layerId = "35E6D5AF-F775-49E3-B2B8-5BA74BD20843";
paths = (
{
closed = 1;
nodes = (
"490 231.333 OFFCURVE",
"478.167 268.5 OFFCURVE",
"454.5 293.5 CURVE SMOOTH",
"407.167 343.5 OFFCURVE",
"334.667 358.667 OFFCURVE",
"276 372 CURVE SMOOTH",
"202.667 389.333 OFFCURVE",
"131 406.667 OFFCURVE",
"131 488 CURVE SMOOTH",
"131 557.333 OFFCURVE",
"185.667 595 OFFCURVE",
"267 595 CURVE SMOOTH",
"305.667 595 OFFCURVE",
"349.667 589.333 OFFCURVE",
"391 568 CURVE",
"401 471 LINE",
"461 477 LINE",
"455 606 LINE",
"413.667 638 OFFCURVE",
"332 660 OFFCURVE",
"260 660 CURVE SMOOTH",
"148 660 OFFCURVE",
"53 602.667 OFFCURVE",
"53 480 CURVE SMOOTH",
"53 437.333 OFFCURVE",
"63 404.833 OFFCURVE",
"83 382.5 CURVE SMOOTH",
"123 337.833 OFFCURVE",
"187.667 321.333 OFFCURVE",
"249 308 CURVE SMOOTH",
"329 289.333 OFFCURVE",
"411 273.667 OFFCURVE",
"411 175 CURVE SMOOTH",
"411 87 OFFCURVE",
"339.333 54 OFFCURVE",
"254 54 CURVE SMOOTH",
"206 54 OFFCURVE",
"163 60.333 OFFCURVE",
"119 83 CURVE",
"123 165 LINE",
"63 171 LINE",
"49 43 LINE",
"97.667 7.667 OFFCURVE",
"167.333 -10 OFFCURVE",
"258 -10 CURVE SMOOTH",
"390 -10 OFFCURVE",
"490 56.667 OFFCURVE",
"490 182 CURVE SMOOTH"
);
},
{
closed = 1;
nodes = (
"318 -64 LINE",
"251 -64 LINE",
"243 -218 LINE",
"300 -218 LINE"
);
}
);
userData = {
assembly = "NPUSHB[ ]	/* 63 values pushed */\01227 1 3 2 28 8 7 6 4 1 3 5 1 0 1 3 74 0 3 3 2 95 0 2 2 97 75 0 1 1 0 95 0 0 0 98 75 6 1 5 5 4 93 0 4 4 94 4 76 43 43 43 46 43 46 26 39 43 38 34 7 11 25 \012CALL[ ]	/* CallFunction */";
};
width = 533;
}
);
leftKerningGroup = S;
note = uni0218;
rightKerningGroup = S;
unicode = 0218;
},
{
glyphname = Sdotbelow;
layers = (
{
layerId = "35E6D5AF-F775-49E3-B2B8-5BA74BD20843";
paths = (
{
closed = 1;
nodes = (
"490 231.333 OFFCURVE",
"478.167 268.5 OFFCURVE",
"454.5 293.5 CURVE SMOOTH",
"407.167 343.5 OFFCURVE",
"334.667 358.667 OFFCURVE",
"276 372 CURVE SMOOTH",
"202.667 389.333 OFFCURVE",
"131 406.667 OFFCURVE",
"131 488 CURVE SMOOTH",
"131 557.333 OFFCURVE",
"185.667 595 OFFCURVE",
"267 595 CURVE SMOOTH",
"305.667 595 OFFCURVE",
"349.667 589.333 OFFCURVE",
"391 568 CURVE",
"401 471 LINE",
"461 477 LINE",
"455 606 LINE",
"413.667 638 OFFCURVE",
"332 660 OFFCURVE",
"260 660 CURVE SMOOTH",
"148 660 OFFCURVE",
"53 602.667 OFFCURVE",
"53 480 CURVE SMOOTH",
"53 437.333 OFFCURVE",
"63 404.833 OFFCURVE",
"83 382.5 CURVE SMOOTH",
"123 337.833 OFFCURVE",
"187.667 321.333 OFFCURVE",
"249 308 CURVE SMOOTH",
"329 289.333 OFFCURVE",
"411 273.667 OFFCURVE",
"411 175 CURVE SMOOTH",
"411 87 OFFCURVE",
"339.333 54 OFFCURVE",
"254 54 CURVE SMOOTH",
"206 54 OFFCURVE",
"163 60.333 OFFCURVE",
"119 83 CURVE",
"123 165 LINE",
"63 171 LINE",
"49 43 LINE",
"97.667 7.667 OFFCURVE",
"167.333 -10 OFFCURVE",
"258 -10 CURVE SMOOTH",
"390 -10 OFFCURVE",
"490 56.667 OFFCURVE",
"490 182 CURVE SMOOTH"
);
},
{
closed = 1;
nodes = (
"237 -174 LINE",
"314 -174 LINE",
"314 -83 LINE",
"237 -83 LINE"
);
}
);
userData = {
assembly = "NPUSHB[ ]	/* 60 values pushed */\01227 1 3 2 28 8 7 6 4 1 3 5 1 0 1 3 74 0 4 6 1 5 4 5 97 0 3 3 2 95 0 2 2 97 75 0 1 1 0 95 0 0 0 98 0 76 43 43 43 46 43 46 26 39 43 38 34 7 11 25 \012CALL[ ]	/* CallFunction */";
};
width = 533;
}
);
leftKerningGroup = S;
note = uni1E62;
rightKerningGroup = S;
unicode = 1E62;
},
{
glyphname = Schwa;
layers = (
{
layerId = "35E6D5AF-F775-49E3-B2B8-5BA74BD20843";
paths = (
{
closed = 1;
nodes = (
"122 435 LINE",
"135 541 LINE",
"191 576.333 OFFCURVE",
"257 594 OFFCURVE",
"333 594 CURVE SMOOTH",
"475.667 594 OFFCURVE",
"553.333 496.667 OFFCURVE",
"564 346 CURVE",
"44 346 LINE",
"44 282 LINE SMOOTH",
"44 102 OFFCURVE",
"156.667 -10 OFFCURVE",
"334 -10 CURVE SMOOTH",
"542 -10 OFFCURVE",
"643 144.333 OFFCURVE",
"643 323 CURVE SMOOTH",
"643 511 OFFCURVE",
"538.333 660 OFFCURVE",
"337 660 CURVE SMOOTH",
"226.333 660 OFFCURVE",
"136 626 OFFCURVE",
"72 578 CURVE",
"63 442 LINE"
);
},
{
closed = 1;
nodes = (
"557 162.667 OFFCURVE",
"493 56 OFFCURVE",
"337 56 CURVE SMOOTH",
"178.333 56 OFFCURVE",
"123 164.667 OFFCURVE",
"123 282 CURVE SMOOTH",
"123 288 LINE",
"565 288 LINE"
);
}
);
userData = {
assembly = "NPUSHB[ ]	/* 45 values pushed */\0122 1 2 2 3 1 74 0 2 0 4 5 2 4 101 0 3 3 0 95 0 0 0 97 75 0 5 5 1 95 0 1 1 98 1 76 35 18 34 19 36 36 6 11 26 \012CALL[ ]	/* CallFunction */";
};
width = 684;
}
);
leftKerningGroup = Schwa;
note = uni018F;
rightKerningGroup = O;
unicode = 018F;
},
{
glyphname = T;
layers = (
{
layerId = "35E6D5AF-F775-49E3-B2B8-5BA74BD20843";
paths = (
{
closed = 1;
nodes = (
"599 452 LINE",
"579 650 LINE",
"40 650 LINE",
"21 452 LINE",
"85 447 LINE",
"105 586 LINE",
"273 586 LINE",
"273 64 LINE",
"161 64 LINE",
"161 0 LINE",
"461 0 LINE",
"461 64 LINE",
"346 64 LINE",
"346 586 LINE",
"514 586 LINE",
"534 447 LINE"
);
}
);
userData = {
assembly = "NPUSHB[ ]	/* 38 values pushed */\01213 1 1 0 1 74 4 1 0 0 5 93 0 5 5 89 75 3 1 1 1 2 93 0 2 2 90 2 76 19 17 17 17 17 18 6 11 26 \012CALL[ ]	/* CallFunction */";
};
width = 620;
}
);
leftKerningGroup = T;
note = uni0054;
rightKerningGroup = T;
unicode = 0054;
},
{
glyphname = Tbar;
layers = (
{
layerId = "35E6D5AF-F775-49E3-B2B8-5BA74BD20843";
paths = (
{
closed = 1;
nodes = (
"600 452 LINE",
"580 650 LINE",
"41 650 LINE",
"22 452 LINE",
"86 447 LINE",
"106 586 LINE",
"274 586 LINE",
"274 325 LINE",
"124 325 LINE",
"124 273 LINE",
"274 273 LINE",
"274 64 LINE",
"162 64 LINE",
"162 0 LINE",
"462 0 LINE",
"462 64 LINE",
"347 64 LINE",
"347 273 LINE",
"499 273 LINE",
"499 325 LINE",
"347 325 LINE",
"347 586 LINE",
"515 586 LINE",
"535 447 LINE"
);
}
);
userData = {
assembly = "NPUSHB[ ]	/* 53 values pushed */\01221 1 1 0 1 74 7 1 1 6 1 2 3 1 2 101 8 1 0 0 9 93 0 9 9 89 75 5 1 3 3 4 93 0 4 4 90 4 76 23 22 17 17 17 17 17 17 17 17 18 10 11 29 \012CALL[ ]	/* CallFunction */";
};
width = 624;
}
);
leftKerningGroup = T;
note = uni0166;
rightKerningGroup = T;
unicode = 0166;
},
{
glyphname = Tcaron;
layers = (
{
layerId = "35E6D5AF-F775-49E3-B2B8-5BA74BD20843";
paths = (
{
closed = 1;
nodes = (
"446 792 LINE",
"427 827 LINE",
"312 763 LINE",
"192 824 LINE",
"172 790 LINE",
"298 701 LINE",
"320 701 LINE"
);
},
{
closed = 1;
nodes = (
"599 452 LINE",
"579 650 LINE",
"40 650 LINE",
"21 452 LINE",
"85 447 LINE",
"105 586 LINE",
"273 586 LINE",
"273 64 LINE",
"161 64 LINE",
"161 0 LINE",
"461 0 LINE",
"461 64 LINE",
"346 64 LINE",
"346 586 LINE",
"514 586 LINE",
"534 447 LINE"
);
}
);
userData = {
assembly = "NPUSHB[ ]	/* 51 values pushed */\01220 1 2 1 1 74 6 5 4 3 4 0 72 0 0 6 0 131 5 1 1 1 6 93 0 6 6 89 75 4 1 2 2 3 93 0 3 3 90 3 76 19 17 17 17 17 23 17 7 11 27 \012CALL[ ]	/* CallFunction */";
};
width = 621;
}
);
leftKerningGroup = T;
note = uni0164;
rightKerningGroup = T;
unicode = 0164;
},
{
glyphname = Tcedilla;
layers = (
{
layerId = "35E6D5AF-F775-49E3-B2B8-5BA74BD20843";
paths = (
{
closed = 1;
nodes = (
"599 452 LINE",
"579 650 LINE",
"40 650 LINE",
"21 452 LINE",
"85 447 LINE",
"105 586 LINE",
"273 586 LINE",
"273 64 LINE",
"161 64 LINE",
"161 0 LINE",
"461 0 LINE",
"461 64 LINE",
"346 64 LINE",
"346 586 LINE",
"514 586 LINE",
"534 447 LINE"
);
},
{
closed = 1;
nodes = (
"346 -64 LINE",
"279 -64 LINE",
"271 -218 LINE",
"328 -218 LINE"
);
}
);
userData = {
assembly = "NPUSHB[ ]	/* 56 values pushed */\01213 1 1 0 1 74 4 1 0 0 5 93 0 5 5 89 75 3 1 1 1 2 93 0 2 2 90 75 8 1 7 7 6 93 0 6 6 94 6 76 16 16 16 19 16 19 18 19 17 17 17 17 18 9 11 27 \012CALL[ ]	/* CallFunction */";
};
width = 621;
}
);
leftKerningGroup = T;
note = uni0162;
rightKerningGroup = T;
unicode = 0162;
},
{
glyphname = Tcommaaccent;
layers = (
{
layerId = "35E6D5AF-F775-49E3-B2B8-5BA74BD20843";
paths = (
{
closed = 1;
nodes = (
"599 452 LINE",
"579 650 LINE",
"40 650 LINE",
"21 452 LINE",
"85 447 LINE",
"105 586 LINE",
"273 586 LINE",
"273 64 LINE",
"161 64 LINE",
"161 0 LINE",
"461 0 LINE",
"461 64 LINE",
"346 64 LINE",
"346 586 LINE",
"514 586 LINE",
"534 447 LINE"
);
},
{
closed = 1;
nodes = (
"346 -64 LINE",
"279 -64 LINE",
"271 -218 LINE",
"328 -218 LINE"
);
}
);
userData = {
assembly = "NPUSHB[ ]	/* 56 values pushed */\01213 1 1 0 1 74 4 1 0 0 5 93 0 5 5 89 75 3 1 1 1 2 93 0 2 2 90 75 8 1 7 7 6 93 0 6 6 94 6 76 16 16 16 19 16 19 18 19 17 17 17 17 18 9 11 27 \012CALL[ ]	/* CallFunction */";
};
width = 621;
}
);
leftKerningGroup = T;
note = uni021A;
rightKerningGroup = T;
unicode = 021A;
},
{
glyphname = U;
layers = (
{
layerId = "35E6D5AF-F775-49E3-B2B8-5BA74BD20843";
paths = (
{
closed = 1;
nodes = (
"680 586 LINE",
"680 650 LINE",
"455 650 LINE",
"455 586 LINE",
"548 586 LINE",
"548 267 LINE SMOOTH",
"548 126.333 OFFCURVE",
"485.667 56 OFFCURVE",
"361 56 CURVE SMOOTH",
"235.667 56 OFFCURVE",
"177 130 OFFCURVE",
"177 258 CURVE SMOOTH",
"177 586 LINE",
"267 586 LINE",
"267 650 LINE",
"36 650 LINE",
"36 586 LINE",
"103 586 LINE",
"103 256 LINE SMOOTH",
"103 116 OFFCURVE",
"163.667 -10 OFFCURVE",
"357 -10 CURVE SMOOTH",
"423.667 -10 OFFCURVE",
"475.833 3.5 OFFCURVE",
"513.5 30.5 CURVE SMOOTH",
"588.833 84.5 OFFCURVE",
"617 175 OFFCURVE",
"617 267 CURVE SMOOTH",
"617 586 LINE"
);
}
);
userData = {
assembly = "NPUSHB[ ]	/* 36 values pushed */\0126 4 2 3 0 0 3 93 7 1 3 3 89 75 0 5 5 1 95 0 1 1 98 1 76 17 18 35 17 17 19 36 16 8 11 28 \012CALL[ ]	/* CallFunction */";
};
width = 718;
}
);
leftKerningGroup = U;
note = uni0055;
rightKerningGroup = U;
unicode = 0055;
},
{
glyphname = Uacute;
layers = (
{
layerId = "35E6D5AF-F775-49E3-B2B8-5BA74BD20843";
paths = (
{
closed = 1;
nodes = (
"510 745 LINE",
"493 813 LINE",
"302 740 LINE",
"313 703 LINE"
);
},
{
closed = 1;
nodes = (
"680 586 LINE",
"680 650 LINE",
"455 650 LINE",
"455 586 LINE",
"548 586 LINE",
"548 267 LINE SMOOTH",
"548 126.333 OFFCURVE",
"485.667 56 OFFCURVE",
"361 56 CURVE SMOOTH",
"235.667 56 OFFCURVE",
"177 130 OFFCURVE",
"177 258 CURVE SMOOTH",
"177 586 LINE",
"267 586 LINE",
"267 650 LINE",
"36 650 LINE",
"36 586 LINE",
"103 586 LINE",
"103 256 LINE SMOOTH",
"103 116 OFFCURVE",
"163.667 -10 OFFCURVE",
"357 -10 CURVE SMOOTH",
"423.667 -10 OFFCURVE",
"475.833 3.5 OFFCURVE",
"513.5 30.5 CURVE SMOOTH",
"588.833 84.5 OFFCURVE",
"617 175 OFFCURVE",
"617 267 CURVE SMOOTH",
"617 586 LINE"
);
}
);
userData = {
assembly = "NPUSHB[ ]	/* 42 values pushed */\0123 2 1 3 3 72 6 4 2 3 0 0 3 93 7 1 3 3 89 75 0 5 5 1 95 0 1 1 98 1 76 17 18 35 17 17 19 36 20 8 11 28 \012CALL[ ]	/* CallFunction */";
};
width = 717;
}
);
leftKerningGroup = U;
note = uni00DA;
rightKerningGroup = U;
unicode = 00DA;
},
{
glyphname = Ubreve;
layers = (
{
layerId = "35E6D5AF-F775-49E3-B2B8-5BA74BD20843";
paths = (
{
closed = 1;
nodes = (
"425 816 LINE",
"425 770 OFFCURVE",
"403.667 747 OFFCURVE",
"361 747 CURVE SMOOTH",
"319.667 747 OFFCURVE",
"297 762.667 OFFCURVE",
"297 816 CURVE",
"239 816 LINE",
"239 738 OFFCURVE",
"279.667 699 OFFCURVE",
"361 699 CURVE SMOOTH",
"442.333 699 OFFCURVE",
"483 738 OFFCURVE",
"483 816 CURVE"
);
},
{
closed = 1;
nodes = (
"680 586 LINE",
"680 650 LINE",
"455 650 LINE",
"455 586 LINE",
"548 586 LINE",
"548 267 LINE SMOOTH",
"548 126.333 OFFCURVE",
"485.667 56 OFFCURVE",
"361 56 CURVE SMOOTH",
"235.667 56 OFFCURVE",
"177 130 OFFCURVE",
"177 258 CURVE SMOOTH",
"177 586 LINE",
"267 586 LINE",
"267 650 LINE",
"36 650 LINE",
"36 586 LINE",
"103 586 LINE",
"103 256 LINE SMOOTH",
"103 116 OFFCURVE",
"163.667 -10 OFFCURVE",
"357 -10 CURVE SMOOTH",
"423.667 -10 OFFCURVE",
"475.833 3.5 OFFCURVE",
"513.5 30.5 CURVE SMOOTH",
"588.833 84.5 OFFCURVE",
"617 175 OFFCURVE",
"617 267 CURVE SMOOTH",
"617 586 LINE"
);
}
);
userData = {
assembly = "MPPEM[ ]	/* MeasurePixelPerEm */\012PUSHB[ ]	/* 1 value pushed */\01219 \012LT[ ]	/* LessThan */\012IF[ ]	/* If */\012NPUSHB[ ]	/* 41 values pushed */\01212 3 2 1 2 2 1 110 0 2 0 0 7 2 0 104 10 8 6 3 4 4 7 93 11 1 7 7 89 75 0 9 9 5 95 0 5 5 98 5 76 \012ELSE[ ]	/* Else */\012NPUSHB[ ]	/* 40 values pushed */\01212 3 2 1 2 1 131 0 2 0 0 7 2 0 104 10 8 6 3 4 4 7 93 11 1 7 7 89 75 0 9 9 5 95 0 5 5 98 5 76 \012EIF[ ]	/* EndIf */\012NPUSHB[ ]	/* 28 values pushed */\0120 0 36 35 34 33 31 29 26 25 24 23 22 21 18 16 12 11 0 10 0 10 34 17 33 13 11 23 \012CALL[ ]	/* CallFunction */";
};
width = 717;
}
);
leftKerningGroup = U;
note = uni016C;
rightKerningGroup = U;
unicode = 016C;
},
{
glyphname = Ucaron;
layers = (
{
layerId = "35E6D5AF-F775-49E3-B2B8-5BA74BD20843";
paths = (
{
closed = 1;
nodes = (
"498 792 LINE",
"479 827 LINE",
"364 763 LINE",
"244 824 LINE",
"224 790 LINE",
"350 701 LINE",
"372 701 LINE"
);
},
{
closed = 1;
nodes = (
"680 586 LINE",
"680 650 LINE",
"455 650 LINE",
"455 586 LINE",
"548 586 LINE",
"548 267 LINE SMOOTH",
"548 126.333 OFFCURVE",
"485.667 56 OFFCURVE",
"361 56 CURVE SMOOTH",
"235.667 56 OFFCURVE",
"177 130 OFFCURVE",
"177 258 CURVE SMOOTH",
"177 586 LINE",
"267 586 LINE",
"267 650 LINE",
"36 650 LINE",
"36 586 LINE",
"103 586 LINE",
"103 256 LINE SMOOTH",
"103 116 OFFCURVE",
"163.667 -10 OFFCURVE",
"357 -10 CURVE SMOOTH",
"423.667 -10 OFFCURVE",
"475.833 3.5 OFFCURVE",
"513.5 30.5 CURVE SMOOTH",
"588.833 84.5 OFFCURVE",
"617 175 OFFCURVE",
"617 267 CURVE SMOOTH",
"617 586 LINE"
);
}
);
userData = {
assembly = "NPUSHB[ ]	/* 49 values pushed */\0126 5 4 3 4 0 72 0 0 4 0 131 7 5 3 3 1 1 4 93 8 1 4 4 89 75 0 6 6 2 95 0 2 2 98 2 76 17 18 35 17 17 19 36 21 17 9 11 29 \012CALL[ ]	/* CallFunction */";
};
width = 717;
}
);
leftKerningGroup = U;
note = uni01D3;
rightKerningGroup = U;
unicode = 01D3;
},
{
glyphname = Ucircumflex;
layers = (
{
layerId = "35E6D5AF-F775-49E3-B2B8-5BA74BD20843";
paths = (
{
closed = 1;
nodes = (
"497 737 LINE",
"371 827 LINE",
"350 827 LINE",
"223 734 LINE",
"242 701 LINE",
"358 764 LINE",
"478 702 LINE"
);
},
{
closed = 1;
nodes = (
"680 586 LINE",
"680 650 LINE",
"455 650 LINE",
"455 586 LINE",
"548 586 LINE",
"548 267 LINE SMOOTH",
"548 126.333 OFFCURVE",
"485.667 56 OFFCURVE",
"361 56 CURVE SMOOTH",
"235.667 56 OFFCURVE",
"177 130 OFFCURVE",
"177 258 CURVE SMOOTH",
"177 586 LINE",
"267 586 LINE",
"267 650 LINE",
"36 650 LINE",
"36 586 LINE",
"103 586 LINE",
"103 256 LINE SMOOTH",
"103 116 OFFCURVE",
"163.667 -10 OFFCURVE",
"357 -10 CURVE SMOOTH",
"423.667 -10 OFFCURVE",
"475.833 3.5 OFFCURVE",
"513.5 30.5 CURVE SMOOTH",
"588.833 84.5 OFFCURVE",
"617 175 OFFCURVE",
"617 267 CURVE SMOOTH",
"617 586 LINE"
);
}
);
userData = {
assembly = "NPUSHB[ ]	/* 51 values pushed */\0124 3 2 1 4 4 0 1 74 0 0 4 0 131 7 5 3 3 1 1 4 93 8 1 4 4 89 75 0 6 6 2 95 0 2 2 98 2 76 17 18 35 17 17 19 36 17 21 9 11 29 \012CALL[ ]	/* CallFunction */";
};
width = 717;
}
);
leftKerningGroup = U;
note = uni00DB;
rightKerningGroup = U;
unicode = 00DB;
},
{
glyphname = Udieresis;
layers = (
{
layerId = "35E6D5AF-F775-49E3-B2B8-5BA74BD20843";
paths = (
{
closed = 1;
nodes = (
"237 718 LINE",
"318 718 LINE",
"318 803 LINE",
"237 803 LINE"
);
},
{
closed = 1;
nodes = (
"409 718 LINE",
"489 718 LINE",
"489 803 LINE",
"409 803 LINE"
);
},
{
closed = 1;
nodes = (
"680 586 LINE",
"680 650 LINE",
"455 650 LINE",
"455 586 LINE",
"548 586 LINE",
"548 267 LINE SMOOTH",
"548 126.333 OFFCURVE",
"485.667 56 OFFCURVE",
"361 56 CURVE SMOOTH",
"235.667 56 OFFCURVE",
"177 130 OFFCURVE",
"177 258 CURVE SMOOTH",
"177 586 LINE",
"267 586 LINE",
"267 650 LINE",
"36 650 LINE",
"36 586 LINE",
"103 586 LINE",
"103 256 LINE SMOOTH",
"103 116 OFFCURVE",
"163.667 -10 OFFCURVE",
"357 -10 CURVE SMOOTH",
"423.667 -10 OFFCURVE",
"475.833 3.5 OFFCURVE",
"513.5 30.5 CURVE SMOOTH",
"588.833 84.5 OFFCURVE",
"617 175 OFFCURVE",
"617 267 CURVE SMOOTH",
"617 586 LINE"
);
}
);
userData = {
assembly = "NPUSHB[ ]	/* 71 values pushed */\0122 1 0 13 3 12 3 1 7 0 1 101 10 8 6 3 4 4 7 93 11 1 7 7 89 75 0 9 9 5 95 0 5 5 98 5 76 4 4 0 0 33 32 31 30 28 26 23 22 21 20 19 18 15 13 9 8 4 7 4 7 6 5 0 3 0 3 17 14 11 21 \012CALL[ ]	/* CallFunction */";
};
width = 717;
}
);
leftKerningGroup = U;
note = uni00DC;
rightKerningGroup = U;
unicode = 00DC;
},
{
glyphname = Ugrave;
layers = (
{
layerId = "35E6D5AF-F775-49E3-B2B8-5BA74BD20843";
paths = (
{
closed = 1;
nodes = (
"447 740 LINE",
"256 813 LINE",
"239 745 LINE",
"437 703 LINE"
);
},
{
closed = 1;
nodes = (
"680 586 LINE",
"680 650 LINE",
"455 650 LINE",
"455 586 LINE",
"548 586 LINE",
"548 267 LINE SMOOTH",
"548 126.333 OFFCURVE",
"485.667 56 OFFCURVE",
"361 56 CURVE SMOOTH",
"235.667 56 OFFCURVE",
"177 130 OFFCURVE",
"177 258 CURVE SMOOTH",
"177 586 LINE",
"267 586 LINE",
"267 650 LINE",
"36 650 LINE",
"36 586 LINE",
"103 586 LINE",
"103 256 LINE SMOOTH",
"103 116 OFFCURVE",
"163.667 -10 OFFCURVE",
"357 -10 CURVE SMOOTH",
"423.667 -10 OFFCURVE",
"475.833 3.5 OFFCURVE",
"513.5 30.5 CURVE SMOOTH",
"588.833 84.5 OFFCURVE",
"617 175 OFFCURVE",
"617 267 CURVE SMOOTH",
"617 586 LINE"
);
}
);
userData = {
assembly = "NPUSHB[ ]	/* 42 values pushed */\0123 2 1 3 3 72 6 4 2 3 0 0 3 93 7 1 3 3 89 75 0 5 5 1 95 0 1 1 98 1 76 17 18 35 17 17 19 36 20 8 11 28 \012CALL[ ]	/* CallFunction */";
};
width = 717;
}
);
leftKerningGroup = U;
note = uni00D9;
rightKerningGroup = U;
unicode = 00D9;
},
{
glyphname = Uhungarumlaut;
layers = (
{
layerId = "35E6D5AF-F775-49E3-B2B8-5BA74BD20843";
paths = (
{
closed = 1;
nodes = (
"427 831 LINE",
"378 882 LINE",
"244 729 LINE",
"270 703 LINE"
);
},
{
closed = 1;
nodes = (
"578 745 LINE",
"560 813 LINE",
"370 740 LINE",
"380 703 LINE"
);
},
{
closed = 1;
nodes = (
"680 586 LINE",
"680 650 LINE",
"455 650 LINE",
"455 586 LINE",
"548 586 LINE",
"548 267 LINE SMOOTH",
"548 126.333 OFFCURVE",
"485.667 56 OFFCURVE",
"361 56 CURVE SMOOTH",
"235.667 56 OFFCURVE",
"177 130 OFFCURVE",
"177 258 CURVE SMOOTH",
"177 586 LINE",
"267 586 LINE",
"267 650 LINE",
"36 650 LINE",
"36 586 LINE",
"103 586 LINE",
"103 256 LINE SMOOTH",
"103 116 OFFCURVE",
"163.667 -10 OFFCURVE",
"357 -10 CURVE SMOOTH",
"423.667 -10 OFFCURVE",
"475.833 3.5 OFFCURVE",
"513.5 30.5 CURVE SMOOTH",
"588.833 84.5 OFFCURVE",
"617 175 OFFCURVE",
"617 267 CURVE SMOOTH",
"617 586 LINE"
);
}
);
userData = {
assembly = "NPUSHB[ ]	/* 45 values pushed */\0127 6 5 3 2 1 6 3 72 6 4 2 3 0 0 3 93 7 1 3 3 89 75 0 5 5 1 95 0 1 1 98 1 76 17 18 35 17 17 19 36 24 8 11 28 \012CALL[ ]	/* CallFunction */";
};
width = 717;
}
);
leftKerningGroup = U;
note = uni0170;
rightKerningGroup = U;
unicode = 0170;
},
{
glyphname = Umacron;
layers = (
{
layerId = "35E6D5AF-F775-49E3-B2B8-5BA74BD20843";
paths = (
{
closed = 1;
nodes = (
"504 733 LINE",
"504 790 LINE",
"225 790 LINE",
"225 733 LINE"
);
},
{
closed = 1;
nodes = (
"680 586 LINE",
"680 650 LINE",
"455 650 LINE",
"455 586 LINE",
"548 586 LINE",
"548 267 LINE SMOOTH",
"548 126.333 OFFCURVE",
"485.667 56 OFFCURVE",
"361 56 CURVE SMOOTH",
"235.667 56 OFFCURVE",
"177 130 OFFCURVE",
"177 258 CURVE SMOOTH",
"177 586 LINE",
"267 586 LINE",
"267 650 LINE",
"36 650 LINE",
"36 586 LINE",
"103 586 LINE",
"103 256 LINE SMOOTH",
"103 116 OFFCURVE",
"163.667 -10 OFFCURVE",
"357 -10 CURVE SMOOTH",
"423.667 -10 OFFCURVE",
"475.833 3.5 OFFCURVE",
"513.5 30.5 CURVE SMOOTH",
"588.833 84.5 OFFCURVE",
"617 175 OFFCURVE",
"617 267 CURVE SMOOTH",
"617 586 LINE"
);
}
);
userData = {
assembly = "NPUSHB[ ]	/* 47 values pushed */\0120 1 0 0 5 1 0 101 8 6 4 3 2 2 5 93 9 1 5 5 89 75 0 7 7 3 95 0 3 3 98 3 76 29 28 18 35 17 17 19 36 17 17 16 10 11 29 \012CALL[ ]	/* CallFunction */";
};
width = 717;
}
);
leftKerningGroup = U;
note = uni016A;
rightKerningGroup = U;
unicode = 016A;
},
{
glyphname = Uogonek;
layers = (
{
layerId = "35E6D5AF-F775-49E3-B2B8-5BA74BD20843";
paths = (
{
closed = 1;
nodes = (
"681 586 LINE",
"681 650 LINE",
"456 650 LINE",
"456 586 LINE",
"549 586 LINE",
"549 267 LINE SMOOTH",
"549 126.333 OFFCURVE",
"486.667 56 OFFCURVE",
"362 56 CURVE SMOOTH",
"236.667 56 OFFCURVE",
"178 130 OFFCURVE",
"178 258 CURVE SMOOTH",
"178 586 LINE",
"268 586 LINE",
"268 650 LINE",
"37 650 LINE",
"37 586 LINE",
"104 586 LINE",
"104 256 LINE SMOOTH",
"104 116 OFFCURVE",
"164 -8.667 OFFCURVE",
"356 -10 CURVE",
"322.667 -35.333 OFFCURVE",
"299 -72.667 OFFCURVE",
"299 -118 CURVE SMOOTH",
"299 -175.333 OFFCURVE",
"340.333 -209 OFFCURVE",
"403 -209 CURVE SMOOTH",
"431 -209 OFFCURVE",
"457.333 -202.333 OFFCURVE",
"482 -189 CURVE",
"473 -140 LINE",
"456.333 -150 OFFCURVE",
"438.333 -155 OFFCURVE",
"419 -155 CURVE SMOOTH",
"380.333 -155 OFFCURVE",
"361 -136.333 OFFCURVE",
"361 -99 CURVE SMOOTH",
"361 -68.333 OFFCURVE",
"375.667 -34.333 OFFCURVE",
"417 -5 CURVE",
"570.333 19 OFFCURVE",
"618 143 OFFCURVE",
"618 267 CURVE SMOOTH",
"618 586 LINE"
);
}
);
userData = {
assembly = "NPUSHB[ ]	/* 59 values pushed */\01212 1 1 3 13 1 2 1 2 74 8 6 4 3 0 0 5 93 9 1 5 5 89 75 0 7 7 3 95 0 3 3 98 75 0 1 1 2 95 0 2 2 94 2 76 40 39 18 35 17 17 19 21 35 40 16 10 11 29 \012CALL[ ]	/* CallFunction */";
};
width = 719;
}
);
leftKerningGroup = U;
note = uni0172;
rightKerningGroup = U;
unicode = 0172;
},
{
glyphname = Uring;
layers = (
{
layerId = "35E6D5AF-F775-49E3-B2B8-5BA74BD20843";
paths = (
{
closed = 1;
nodes = (
"462 836 OFFCURVE",
"432 874 OFFCURVE",
"364 874 CURVE SMOOTH",
"301.333 874 OFFCURVE",
"265 836.667 OFFCURVE",
"265 782 CURVE SMOOTH",
"265 720.667 OFFCURVE",
"297.667 690 OFFCURVE",
"363 690 CURVE SMOOTH",
"428.333 690 OFFCURVE",
"462 729.333 OFFCURVE",
"462 784 CURVE SMOOTH"
);
},
{
closed = 1;
nodes = (
"413 748 OFFCURVE",
"396.333 730 OFFCURVE",
"363 730 CURVE SMOOTH",
"330.333 730 OFFCURVE",
"314 747.333 OFFCURVE",
"314 782 CURVE SMOOTH",
"314 816.667 OFFCURVE",
"330.333 834 OFFCURVE",
"363 834 CURVE SMOOTH",
"400.333 834 OFFCURVE",
"413 810.667 OFFCURVE",
"413 784 CURVE SMOOTH"
);
},
{
closed = 1;
nodes = (
"680 586 LINE",
"680 650 LINE",
"455 650 LINE",
"455 586 LINE",
"548 586 LINE",
"548 267 LINE SMOOTH",
"548 126.333 OFFCURVE",
"485.667 56 OFFCURVE",
"361 56 CURVE SMOOTH",
"235.667 56 OFFCURVE",
"177 130 OFFCURVE",
"177 258 CURVE SMOOTH",
"177 586 LINE",
"267 586 LINE",
"267 650 LINE",
"36 650 LINE",
"36 586 LINE",
"103 586 LINE",
"103 256 LINE SMOOTH",
"103 116 OFFCURVE",
"163.667 -10 OFFCURVE",
"357 -10 CURVE SMOOTH",
"423.667 -10 OFFCURVE",
"475.833 3.5 OFFCURVE",
"513.5 30.5 CURVE SMOOTH",
"588.833 84.5 OFFCURVE",
"617 175 OFFCURVE",
"617 267 CURVE SMOOTH",
"617 586 LINE"
);
}
);
userData = {
assembly = "NPUSHB[ ]	/* 59 values pushed */\0120 1 0 2 3 1 2 103 0 3 0 0 7 3 0 103 10 8 6 3 4 4 7 93 11 1 7 7 89 75 0 9 9 5 95 0 5 5 98 5 76 45 44 43 42 40 38 17 17 19 36 17 34 36 35 34 12 11 29 \012CALL[ ]	/* CallFunction */";
};
width = 717;
}
);
leftKerningGroup = U;
note = uni016E;
rightKerningGroup = U;
unicode = 016E;
},
{
glyphname = Utilde;
layers = (
{
layerId = "35E6D5AF-F775-49E3-B2B8-5BA74BD20843";
paths = (
{
closed = 1;
nodes = (
"474 807 LINE",
"463.333 769.667 OFFCURVE",
"444.333 765 OFFCURVE",
"427 765 CURVE SMOOTH",
"403 765 OFFCURVE",
"382.667 770.833 OFFCURVE",
"366 782.5 CURVE SMOOTH",
"349.333 794.167 OFFCURVE",
"330 800 OFFCURVE",
"308 800 CURVE SMOOTH",
"257.333 800 OFFCURVE",
"231.333 752.667 OFFCURVE",
"226 718 CURVE",
"259 705 LINE",
"268.333 737 OFFCURVE",
"290.333 744 OFFCURVE",
"309 744 CURVE SMOOTH",
"328.333 744 OFFCURVE",
"347.333 738.167 OFFCURVE",
"366 726.5 CURVE SMOOTH",
"384.667 714.833 OFFCURVE",
"406.667 709 OFFCURVE",
"432 709 CURVE SMOOTH",
"480 709 OFFCURVE",
"499.333 744.667 OFFCURVE",
"510 798 CURVE"
);
},
{
closed = 1;
nodes = (
"680 586 LINE",
"680 650 LINE",
"455 650 LINE",
"455 586 LINE",
"548 586 LINE",
"548 267 LINE SMOOTH",
"548 126.333 OFFCURVE",
"485.667 56 OFFCURVE",
"361 56 CURVE SMOOTH",
"235.667 56 OFFCURVE",
"177 130 OFFCURVE",
"177 258 CURVE SMOOTH",
"177 586 LINE",
"267 586 LINE",
"267 650 LINE",
"36 650 LINE",
"36 586 LINE",
"103 586 LINE",
"103 256 LINE SMOOTH",
"103 116 OFFCURVE",
"163.667 -10 OFFCURVE",
"357 -10 CURVE SMOOTH",
"423.667 -10 OFFCURVE",
"475.833 3.5 OFFCURVE",
"513.5 30.5 CURVE SMOOTH",
"588.833 84.5 OFFCURVE",
"617 175 OFFCURVE",
"617 267 CURVE SMOOTH",
"617 586 LINE"
);
}
);
userData = {
assembly = "NPUSHB[ ]	/* 73 values pushed */\01210 1 0 1 9 1 7 0 2 74 19 1 2 72 0 2 0 1 0 2 1 103 0 3 0 0 7 3 0 103 10 8 6 3 4 4 7 93 11 1 7 7 89 75 0 9 9 5 95 0 5 5 98 5 76 45 44 43 42 40 38 17 17 19 36 19 33 37 33 34 12 11 29 \012CALL[ ]	/* CallFunction */";
};
width = 717;
}
);
leftKerningGroup = U;
note = uni0168;
rightKerningGroup = U;
unicode = 0168;
},
{
glyphname = V;
layers = (
{
layerId = "35E6D5AF-F775-49E3-B2B8-5BA74BD20843";
paths = (
{
closed = 1;
nodes = (
"649 586 LINE",
"649 650 LINE",
"421 650 LINE",
"421 586 LINE",
"513 586 LINE",
"331 108 LINE",
"326 108 LINE",
"140 586 LINE",
"231 586 LINE",
"231 650 LINE",
"-4 650 LINE",
"-4 586 LINE",
"60 586 LINE",
"295 0 LINE",
"353 0 LINE",
"588 586 LINE"
);
}
);
userData = {
assembly = "NPUSHB[ ]	/* 36 values pushed */\01210 1 1 0 1 74 5 4 2 3 0 0 3 93 6 1 3 3 89 75 0 1 1 90 1 76 17 19 17 17 17 17 16 7 11 27 \012CALL[ ]	/* CallFunction */";
};
width = 648;
}
);
leftKerningGroup = V;
note = uni0056;
rightKerningGroup = V;
unicode = 0056;
},
{
glyphname = W;
layers = (
{
layerId = "35E6D5AF-F775-49E3-B2B8-5BA74BD20843";
paths = (
{
closed = 1;
nodes = (
"929 586 LINE",
"929 650 LINE",
"706 650 LINE",
"706 586 LINE",
"800 586 LINE",
"674 116 LINE",
"670 116 LINE",
"518 586 LINE",
"583 586 LINE",
"583 650 LINE",
"359 650 LINE",
"359 586 LINE",
"424 586 LINE",
"274 119 LINE",
"270 119 LINE",
"133 586 LINE",
"225 586 LINE",
"225 650 LINE",
"0 650 LINE",
"0 586 LINE",
"55 586 LINE",
"241 0 LINE",
"300 0 LINE",
"466 520 LINE",
"470 520 LINE",
"641 0 LINE",
"700 0 LINE",
"874 586 LINE"
);
}
);
userData = {
assembly = "NPUSHB[ ]	/* 48 values pushed */\01222 14 4 3 1 0 1 74 9 8 6 5 3 5 0 0 4 93 10 7 2 4 4 89 75 2 1 1 1 90 1 76 27 26 25 24 17 17 19 17 17 17 19 17 16 11 11 29 \012CALL[ ]	/* CallFunction */";
};
width = 934;
}
);
leftKerningGroup = W;
note = uni0057;
rightKerningGroup = W;
unicode = 0057;
},
{
glyphname = Wacute;
layers = (
{
layerId = "35E6D5AF-F775-49E3-B2B8-5BA74BD20843";
paths = (
{
closed = 1;
nodes = (
"608 745 LINE",
"591 813 LINE",
"400 740 LINE",
"411 703 LINE"
);
},
{
closed = 1;
nodes = (
"929 586 LINE",
"929 650 LINE",
"706 650 LINE",
"706 586 LINE",
"800 586 LINE",
"674 116 LINE",
"670 116 LINE",
"518 586 LINE",
"583 586 LINE",
"583 650 LINE",
"359 650 LINE",
"359 586 LINE",
"424 586 LINE",
"274 119 LINE",
"270 119 LINE",
"133 586 LINE",
"225 586 LINE",
"225 650 LINE",
"0 650 LINE",
"0 586 LINE",
"55 586 LINE",
"241 0 LINE",
"300 0 LINE",
"466 520 LINE",
"470 520 LINE",
"641 0 LINE",
"700 0 LINE",
"874 586 LINE"
);
}
);
userData = {
assembly = "NPUSHB[ ]	/* 54 values pushed */\01226 18 8 3 1 0 1 74 3 2 1 3 4 72 9 8 6 5 3 5 0 0 4 93 10 7 2 4 4 89 75 2 1 1 1 90 1 76 31 30 29 28 17 17 19 17 17 17 19 17 20 11 11 29 \012CALL[ ]	/* CallFunction */";
};
width = 934;
}
);
leftKerningGroup = W;
note = uni1E82;
rightKerningGroup = W;
unicode = 1E82;
},
{
glyphname = Wcircumflex;
layers = (
{
layerId = "35E6D5AF-F775-49E3-B2B8-5BA74BD20843";
paths = (
{
closed = 1;
nodes = (
"610 737 LINE",
"484 827 LINE",
"463 827 LINE",
"336 734 LINE",
"355 701 LINE",
"471 764 LINE",
"591 702 LINE"
);
},
{
closed = 1;
nodes = (
"929 586 LINE",
"929 650 LINE",
"706 650 LINE",
"706 586 LINE",
"800 586 LINE",
"674 116 LINE",
"670 116 LINE",
"518 586 LINE",
"583 586 LINE",
"583 650 LINE",
"359 650 LINE",
"359 586 LINE",
"424 586 LINE",
"274 119 LINE",
"270 119 LINE",
"133 586 LINE",
"225 586 LINE",
"225 650 LINE",
"0 650 LINE",
"0 586 LINE",
"55 586 LINE",
"241 0 LINE",
"300 0 LINE",
"466 520 LINE",
"470 520 LINE",
"641 0 LINE",
"700 0 LINE",
"874 586 LINE"
);
}
);
userData = {
assembly = "NPUSHB[ ]	/* 62 values pushed */\0124 3 2 1 4 5 0 29 21 11 3 2 1 2 74 0 0 5 0 131 10 9 7 6 4 5 1 1 5 93 11 8 2 5 5 89 75 3 1 2 2 90 2 76 34 33 32 31 28 27 17 19 17 17 17 19 17 17 21 12 11 29 \012CALL[ ]	/* CallFunction */";
};
width = 934;
}
);
leftKerningGroup = W;
note = uni0174;
rightKerningGroup = W;
unicode = 0174;
},
{
glyphname = Wdieresis;
layers = (
{
layerId = "35E6D5AF-F775-49E3-B2B8-5BA74BD20843";
paths = (
{
closed = 1;
nodes = (
"347 718 LINE",
"428 718 LINE",
"428 803 LINE",
"347 803 LINE"
);
},
{
closed = 1;
nodes = (
"519 718 LINE",
"599 718 LINE",
"599 803 LINE",
"519 803 LINE"
);
},
{
closed = 1;
nodes = (
"929 586 LINE",
"929 650 LINE",
"706 650 LINE",
"706 586 LINE",
"800 586 LINE",
"674 116 LINE",
"670 116 LINE",
"518 586 LINE",
"583 586 LINE",
"583 650 LINE",
"359 650 LINE",
"359 586 LINE",
"424 586 LINE",
"274 119 LINE",
"270 119 LINE",
"133 586 LINE",
"225 586 LINE",
"225 650 LINE",
"0 650 LINE",
"0 586 LINE",
"55 586 LINE",
"241 0 LINE",
"300 0 LINE",
"466 520 LINE",
"470 520 LINE",
"641 0 LINE",
"700 0 LINE",
"874 586 LINE"
);
}
);
userData = {
assembly = "NPUSHB[ ]	/* 84 values pushed */\01230 22 12 3 5 4 1 74 2 1 0 16 3 15 3 1 8 0 1 101 13 12 10 9 7 5 4 4 8 93 14 11 2 8 8 89 75 6 1 5 5 90 5 76 4 4 0 0 35 34 33 32 29 28 27 26 25 24 21 20 19 18 17 16 15 14 11 10 9 8 4 7 4 7 6 5 0 3 0 3 17 17 11 21 \012CALL[ ]	/* CallFunction */";
};
width = 934;
}
);
leftKerningGroup = W;
note = uni1E84;
rightKerningGroup = W;
unicode = 1E84;
},
{
glyphname = Wgrave;
layers = (
{
layerId = "35E6D5AF-F775-49E3-B2B8-5BA74BD20843";
paths = (
{
closed = 1;
nodes = (
"540 740 LINE",
"349 813 LINE",
"332 745 LINE",
"530 703 LINE"
);
},
{
closed = 1;
nodes = (
"929 586 LINE",
"929 650 LINE",
"706 650 LINE",
"706 586 LINE",
"800 586 LINE",
"674 116 LINE",
"670 116 LINE",
"518 586 LINE",
"583 586 LINE",
"583 650 LINE",
"359 650 LINE",
"359 586 LINE",
"424 586 LINE",
"274 119 LINE",
"270 119 LINE",
"133 586 LINE",
"225 586 LINE",
"225 650 LINE",
"0 650 LINE",
"0 586 LINE",
"55 586 LINE",
"241 0 LINE",
"300 0 LINE",
"466 520 LINE",
"470 520 LINE",
"641 0 LINE",
"700 0 LINE",
"874 586 LINE"
);
}
);
userData = {
assembly = "NPUSHB[ ]	/* 54 values pushed */\01226 18 8 3 1 0 1 74 3 2 1 3 4 72 9 8 6 5 3 5 0 0 4 93 10 7 2 4 4 89 75 2 1 1 1 90 1 76 31 30 29 28 17 17 19 17 17 17 19 17 20 11 11 29 \012CALL[ ]	/* CallFunction */";
};
width = 934;
}
);
leftKerningGroup = W;
note = uni1E80;
rightKerningGroup = W;
unicode = 1E80;
},
{
glyphname = X;
layers = (
{
layerId = "35E6D5AF-F775-49E3-B2B8-5BA74BD20843";
paths = (
{
closed = 1;
nodes = (
"625 0 LINE",
"625 64 LINE",
"563 64 LINE",
"354 337 LINE",
"543 586 LINE",
"615 586 LINE",
"615 650 LINE",
"395 650 LINE",
"395 586 LINE",
"461 586 LINE",
"317 386 LINE",
"166 586 LINE",
"239 586 LINE",
"239 650 LINE",
"17 650 LINE",
"17 586 LINE",
"82 586 LINE",
"275 336 LINE",
"73 64 LINE",
"6 64 LINE",
"6 0 LINE",
"230 0 LINE",
"230 64 LINE",
"153 64 LINE",
"312 286 LINE",
"478 64 LINE",
"398 64 LINE",
"398 0 LINE"
);
}
);
userData = {
assembly = "NPUSHB[ ]	/* 56 values pushed */\01225 18 11 4 4 1 5 1 74 10 8 7 3 5 5 6 93 9 1 6 6 89 75 11 4 2 3 1 1 0 93 3 1 0 0 90 0 76 27 26 24 23 22 21 18 17 17 18 17 17 18 17 16 12 11 29 \012CALL[ ]	/* CallFunction */";
};
width = 632;
}
);
leftKerningGroup = X;
note = uni0058;
rightKerningGroup = X;
unicode = 0058;
},
{
glyphname = Y;
layers = (
{
layerId = "35E6D5AF-F775-49E3-B2B8-5BA74BD20843";
paths = (
{
closed = 1;
nodes = (
"610 586 LINE",
"610 650 LINE",
"382 650 LINE",
"382 586 LINE",
"472 586 LINE",
"313 316 LINE",
"308 316 LINE",
"144 586 LINE",
"233 586 LINE",
"233 650 LINE",
"-4 650 LINE",
"-4 586 LINE",
"60 586 LINE",
"271 249 LINE",
"271 64 LINE",
"159 64 LINE",
"159 0 LINE",
"458 0 LINE",
"458 64 LINE",
"344 64 LINE",
"344 248 LINE",
"546 586 LINE"
);
}
);
userData = {
assembly = "NPUSHB[ ]	/* 46 values pushed */\01216 9 2 3 1 0 1 74 7 6 4 3 0 0 5 93 8 1 5 5 89 75 3 1 1 1 2 93 0 2 2 90 2 76 17 19 17 17 18 17 17 18 16 9 11 29 \012CALL[ ]	/* CallFunction */";
};
width = 613;
}
);
leftKerningGroup = Y;
note = uni0059;
rightKerningGroup = Y;
unicode = 0059;
},
{
glyphname = Yacute;
layers = (
{
layerId = "35E6D5AF-F775-49E3-B2B8-5BA74BD20843";
paths = (
{
closed = 1;
nodes = (
"441 745 LINE",
"424 813 LINE",
"233 740 LINE",
"244 703 LINE"
);
},
{
closed = 1;
nodes = (
"610 586 LINE",
"610 650 LINE",
"382 650 LINE",
"382 586 LINE",
"472 586 LINE",
"313 316 LINE",
"308 316 LINE",
"144 586 LINE",
"233 586 LINE",
"233 650 LINE",
"-4 650 LINE",
"-4 586 LINE",
"60 586 LINE",
"271 249 LINE",
"271 64 LINE",
"159 64 LINE",
"159 0 LINE",
"458 0 LINE",
"458 64 LINE",
"344 64 LINE",
"344 248 LINE",
"546 586 LINE"
);
}
);
userData = {
assembly = "NPUSHB[ ]	/* 52 values pushed */\01220 13 6 3 1 0 1 74 3 2 1 3 5 72 7 6 4 3 0 0 5 93 8 1 5 5 89 75 3 1 1 1 2 93 0 2 2 90 2 76 17 19 17 17 18 17 17 18 20 9 11 29 \012CALL[ ]	/* CallFunction */";
};
width = 613;
}
);
leftKerningGroup = Y;
note = uni00DD;
rightKerningGroup = Y;
unicode = 00DD;
},
{
glyphname = Ycircumflex;
layers = (
{
layerId = "35E6D5AF-F775-49E3-B2B8-5BA74BD20843";
paths = (
{
closed = 1;
nodes = (
"449 737 LINE",
"323 827 LINE",
"302 827 LINE",
"175 734 LINE",
"194 701 LINE",
"310 764 LINE",
"430 702 LINE"
);
},
{
closed = 1;
nodes = (
"610 586 LINE",
"610 650 LINE",
"382 650 LINE",
"382 586 LINE",
"472 586 LINE",
"313 316 LINE",
"308 316 LINE",
"144 586 LINE",
"233 586 LINE",
"233 650 LINE",
"-4 650 LINE",
"-4 586 LINE",
"60 586 LINE",
"271 249 LINE",
"271 64 LINE",
"159 64 LINE",
"159 0 LINE",
"458 0 LINE",
"458 64 LINE",
"344 64 LINE",
"344 248 LINE",
"546 586 LINE"
);
}
);
userData = {
assembly = "NPUSHB[ ]	/* 60 values pushed */\0124 3 2 1 4 6 0 23 16 9 3 2 1 2 74 0 0 6 0 131 8 7 5 3 1 1 6 93 9 1 6 6 89 75 4 1 2 2 3 93 0 3 3 90 3 76 28 27 19 17 17 18 17 17 18 17 21 10 11 29 \012CALL[ ]	/* CallFunction */";
};
width = 613;
}
);
leftKerningGroup = Y;
note = uni0176;
rightKerningGroup = Y;
unicode = 0176;
},
{
glyphname = Ydieresis;
layers = (
{
layerId = "35E6D5AF-F775-49E3-B2B8-5BA74BD20843";
paths = (
{
closed = 1;
nodes = (
"182 718 LINE",
"263 718 LINE",
"263 803 LINE",
"182 803 LINE"
);
},
{
closed = 1;
nodes = (
"354 718 LINE",
"434 718 LINE",
"434 803 LINE",
"354 803 LINE"
);
},
{
closed = 1;
nodes = (
"610 586 LINE",
"610 650 LINE",
"382 650 LINE",
"382 586 LINE",
"472 586 LINE",
"313 316 LINE",
"308 316 LINE",
"144 586 LINE",
"233 586 LINE",
"233 650 LINE",
"-4 650 LINE",
"-4 586 LINE",
"60 586 LINE",
"271 249 LINE",
"271 64 LINE",
"159 64 LINE",
"159 0 LINE",
"458 0 LINE",
"458 64 LINE",
"344 64 LINE",
"344 248 LINE",
"546 586 LINE"
);
}
);
userData = {
assembly = "NPUSHB[ ]	/* 82 values pushed */\01224 17 10 3 5 4 1 74 2 1 0 14 3 13 3 1 9 0 1 101 11 10 8 3 4 4 9 93 12 1 9 9 89 75 7 1 5 5 6 93 0 6 6 90 6 76 4 4 0 0 29 28 27 26 23 22 21 20 19 18 16 15 14 13 12 11 9 8 4 7 4 7 6 5 0 3 0 3 17 15 11 21 \012CALL[ ]	/* CallFunction */";
};
width = 613;
}
);
leftKerningGroup = Y;
note = uni0178;
rightKerningGroup = Y;
unicode = 0178;
},
{
glyphname = Ygrave;
layers = (
{
layerId = "35E6D5AF-F775-49E3-B2B8-5BA74BD20843";
paths = (
{
closed = 1;
nodes = (
"370 740 LINE",
"179 813 LINE",
"162 745 LINE",
"360 703 LINE"
);
},
{
closed = 1;
nodes = (
"610 586 LINE",
"610 650 LINE",
"382 650 LINE",
"382 586 LINE",
"472 586 LINE",
"313 316 LINE",
"308 316 LINE",
"144 586 LINE",
"233 586 LINE",
"233 650 LINE",
"-4 650 LINE",
"-4 586 LINE",
"60 586 LINE",
"271 249 LINE",
"271 64 LINE",
"159 64 LINE",
"159 0 LINE",
"458 0 LINE",
"458 64 LINE",
"344 64 LINE",
"344 248 LINE",
"546 586 LINE"
);
}
);
userData = {
assembly = "NPUSHB[ ]	/* 52 values pushed */\01220 13 6 3 1 0 1 74 3 2 1 3 5 72 7 6 4 3 0 0 5 93 8 1 5 5 89 75 3 1 1 1 2 93 0 2 2 90 2 76 17 19 17 17 18 17 17 18 20 9 11 29 \012CALL[ ]	/* CallFunction */";
};
width = 613;
}
);
leftKerningGroup = Y;
note = uni1EF2;
rightKerningGroup = Y;
unicode = 1EF2;
},
{
glyphname = Ymacron;
layers = (
{
layerId = "35E6D5AF-F775-49E3-B2B8-5BA74BD20843";
paths = (
{
closed = 1;
nodes = (
"450 733 LINE",
"450 790 LINE",
"171 790 LINE",
"171 733 LINE"
);
},
{
closed = 1;
nodes = (
"610 586 LINE",
"610 650 LINE",
"382 650 LINE",
"382 586 LINE",
"472 586 LINE",
"313 316 LINE",
"308 316 LINE",
"144 586 LINE",
"233 586 LINE",
"233 650 LINE",
"-4 650 LINE",
"-4 586 LINE",
"60 586 LINE",
"271 249 LINE",
"271 64 LINE",
"159 64 LINE",
"159 0 LINE",
"458 0 LINE",
"458 64 LINE",
"344 64 LINE",
"344 248 LINE",
"546 586 LINE"
);
}
);
userData = {
assembly = "NPUSHB[ ]	/* 58 values pushed */\01220 13 6 3 3 2 1 74 0 1 0 0 7 1 0 101 9 8 6 3 2 2 7 93 10 1 7 7 89 75 5 1 3 3 4 93 0 4 4 90 4 76 25 24 23 22 17 17 18 17 17 18 17 17 16 11 11 29 \012CALL[ ]	/* CallFunction */";
};
width = 613;
}
);
leftKerningGroup = Y;
note = uni0232;
rightKerningGroup = Y;
unicode = 0232;
},
{
glyphname = Z;
layers = (
{
layerId = "35E6D5AF-F775-49E3-B2B8-5BA74BD20843";
paths = (
{
closed = 1;
nodes = (
"514 0 LINE",
"540 193 LINE",
"477 202 LINE",
"449 64 LINE",
"135 64 LINE",
"135 67 LINE",
"521 610 LINE",
"519 650 LINE",
"71 650 LINE",
"46 462 LINE",
"108 453 LINE",
"136 586 LINE",
"416 586 LINE",
"416 583 LINE",
"32 44 LINE",
"34 0 LINE"
);
}
);
userData = {
assembly = "NPUSHB[ ]	/* 45 values pushed */\01210 1 1 2 15 14 7 6 4 3 1 2 1 0 3 3 74 0 1 1 2 93 0 2 2 89 75 0 3 3 0 93 0 0 0 90 0 76 34 19 34 16 4 11 24 \012CALL[ ]	/* CallFunction */";
};
width = 577;
}
);
leftKerningGroup = Z;
note = uni005A;
rightKerningGroup = Z;
unicode = 005A;
},
{
glyphname = Zacute;
layers = (
{
layerId = "35E6D5AF-F775-49E3-B2B8-5BA74BD20843";
paths = (
{
closed = 1;
nodes = (
"434 745 LINE",
"417 813 LINE",
"226 740 LINE",
"237 703 LINE"
);
},
{
closed = 1;
nodes = (
"514 0 LINE",
"540 193 LINE",
"477 202 LINE",
"449 64 LINE",
"135 64 LINE",
"135 67 LINE",
"521 610 LINE",
"519 650 LINE",
"71 650 LINE",
"46 462 LINE",
"108 453 LINE",
"136 586 LINE",
"416 586 LINE",
"416 583 LINE",
"32 44 LINE",
"34 0 LINE"
);
}
);
userData = {
assembly = "NPUSHB[ ]	/* 51 values pushed */\01214 1 1 2 19 18 11 10 4 3 1 6 1 0 3 3 74 3 2 1 3 2 72 0 1 1 2 93 0 2 2 89 75 0 3 3 0 93 0 0 0 90 0 76 34 19 34 20 4 11 24 \012CALL[ ]	/* CallFunction */";
};
width = 577;
}
);
leftKerningGroup = Z;
note = uni0179;
rightKerningGroup = Z;
unicode = 0179;
},
{
glyphname = Zcaron;
layers = (
{
layerId = "35E6D5AF-F775-49E3-B2B8-5BA74BD20843";
paths = (
{
closed = 1;
nodes = (
"430 792 LINE",
"411 827 LINE",
"296 763 LINE",
"176 824 LINE",
"156 790 LINE",
"282 701 LINE",
"304 701 LINE"
);
},
{
closed = 1;
nodes = (
"514 0 LINE",
"540 193 LINE",
"477 202 LINE",
"449 64 LINE",
"135 64 LINE",
"135 67 LINE",
"521 610 LINE",
"519 650 LINE",
"71 650 LINE",
"46 462 LINE",
"108 453 LINE",
"136 586 LINE",
"416 586 LINE",
"416 583 LINE",
"32 44 LINE",
"34 0 LINE"
);
}
);
userData = {
assembly = "NPUSHB[ ]	/* 58 values pushed */\01217 1 2 3 22 21 14 13 4 4 2 9 1 1 4 3 74 6 5 4 3 4 0 72 0 0 3 0 131 0 2 2 3 93 0 3 3 89 75 0 4 4 1 93 0 1 1 90 1 76 34 19 34 21 17 5 11 25 \012CALL[ ]	/* CallFunction */";
};
width = 577;
}
);
leftKerningGroup = Z;
note = uni017D;
rightKerningGroup = Z;
unicode = 017D;
},
{
glyphname = Zdotaccent;
layers = (
{
layerId = "35E6D5AF-F775-49E3-B2B8-5BA74BD20843";
paths = (
{
closed = 1;
nodes = (
"256 718 LINE",
"337 718 LINE",
"337 803 LINE",
"256 803 LINE"
);
},
{
closed = 1;
nodes = (
"514 0 LINE",
"540 193 LINE",
"477 202 LINE",
"449 64 LINE",
"135 64 LINE",
"135 67 LINE",
"521 610 LINE",
"519 650 LINE",
"71 650 LINE",
"46 462 LINE",
"108 453 LINE",
"136 586 LINE",
"416 586 LINE",
"416 583 LINE",
"32 44 LINE",
"34 0 LINE"
);
}
);
userData = {
assembly = "NPUSHB[ ]	/* 65 values pushed */\01214 1 3 4 19 18 11 10 4 5 3 6 1 2 5 3 74 0 0 6 1 1 4 0 1 101 0 3 3 4 93 0 4 4 89 75 0 5 5 2 93 0 2 2 90 2 76 0 0 17 15 13 12 9 7 5 4 0 3 0 3 17 7 11 21 \012CALL[ ]	/* CallFunction */";
};
width = 577;
}
);
leftKerningGroup = Z;
note = uni017B;
rightKerningGroup = Z;
unicode = 017B;
},
{
glyphname = Iacute_Jacute;
layers = (
{
layerId = "35E6D5AF-F775-49E3-B2B8-5BA74BD20843";
paths = (
{
closed = 1;
nodes = (
"283 745 LINE",
"266 813 LINE",
"75 740 LINE",
"86 703 LINE"
);
},
{
closed = 1;
nodes = (
"734 745 LINE",
"717 813 LINE",
"526 740 LINE",
"537 703 LINE"
);
},
{
closed = 1;
nodes = (
"279 0 LINE",
"279 64 LINE",
"198 64 LINE",
"198 586 LINE",
"279 586 LINE",
"279 650 LINE",
"42 650 LINE",
"42 586 LINE",
"124 586 LINE",
"124 64 LINE",
"42 64 LINE",
"42 0 LINE"
);
},
{
closed = 1;
nodes = (
"739 586 LINE",
"739 650 LINE",
"465 650 LINE",
"465 586 LINE",
"594 586 LINE",
"594 166 LINE SMOOTH",
"594 100.667 OFFCURVE",
"564.667 59 OFFCURVE",
"494 59 CURVE SMOOTH",
"450 59 OFFCURVE",
"419 74.333 OFFCURVE",
"391 129 CURVE",
"338 89 LINE",
"366 30.333 OFFCURVE",
"414.667 -10 OFFCURVE",
"500 -10 CURVE SMOOTH",
"605.333 -10 OFFCURVE",
"667 48.667 OFFCURVE",
"667 166 CURVE SMOOTH",
"667 586 LINE"
);
}
);
userData = {
assembly = "NPUSHB[ ]	/* 10 values pushed */\01238 24 14 8 7 5 3 1 4 48 \012CALL[ ]	/* CallFunction */";
};
width = 777;
}
);
leftKerningGroup = B;
note = Iacute_Jacute;
rightKerningGroup = J;
},
{
glyphname = a;
lastChange = "2021-03-20 21:49:53 +0000";
layers = (
{
layerId = "35E6D5AF-F775-49E3-B2B8-5BA74BD20843";
paths = (
{
closed = 1;
nodes = (
"40 20.333 OFFCURVE",
"116.333 -10 OFFCURVE",
"175 -10 CURVE SMOOTH",
"247 -10 OFFCURVE",
"299 34 OFFCURVE",
"327 82 CURVE",
"327 80 LINE SMOOTH",
"327 20 OFFCURVE",
"355.333 -10 OFFCURVE",
"408 -10 CURVE SMOOTH",
"428.667 -10 OFFCURVE",
"448 -5 OFFCURVE",
"466 5 CURVE",
"465 51 LINE",
"456.333 47 OFFCURVE",
"446.333 45 OFFCURVE",
"435 45 CURVE SMOOTH",
"409.667 45 OFFCURVE",
"397 61 OFFCURVE",
"397 93 CURVE SMOOTH",
"397 305 LINE SMOOTH",
"397 404.333 OFFCURVE",
"344 454 OFFCURVE",
"238 454 CURVE SMOOTH",
"191.565 454 OFFCURVE",
"149.515 446.274 OFFCURVE",
"110.859 427.845 CURVE",
"139.855 377.344 LINE",
"164.667 390 OFFCURVE",
"193.333 396 OFFCURVE",
"226 396 CURVE SMOOTH",
"306 396 OFFCURVE",
"327 352 OFFCURVE",
"327 288 CURVE SMOOTH",
"327 248 LINE",
"303 250.667 OFFCURVE",
"274.667 252 OFFCURVE",
"248 252 CURVE SMOOTH",
"148 252 OFFCURVE",
"40 227 OFFCURVE",
"40 115 CURVE SMOOTH"
);
},
{
closed = 1;
nodes = (
"113 192.333 OFFCURVE",
"177.333 206 OFFCURVE",
"244 206 CURVE SMOOTH",
"258.667 206 OFFCURVE",
"273 205.333 OFFCURVE",
"287 204 CURVE SMOOTH",
"327 201 LINE",
"327 167 LINE",
"321.667 93.667 OFFCURVE",
"257.333 48 OFFCURVE",
"196 48 CURVE SMOOTH",
"157.333 48 OFFCURVE",
"113 65.667 OFFCURVE",
"113 123 CURVE SMOOTH"
);
}
);
userData = {
assembly = "MPPEM[ ]	/* MeasurePixelPerEm */\012PUSHB[ ]	/* 1 value pushed */\01245 \012LT[ ]	/* LessThan */\012IF[ ]	/* If */\012NPUSHB[ ]	/* 21 values pushed */\01236 35 2 4 5 28 1 6 4 37 15 10 3 1 6 11 1 2 1 4 74 \012ELSE[ ]	/* Else */\012NPUSHB[ ]	/* 21 values pushed */\01236 35 2 4 5 28 1 7 4 37 15 10 3 1 6 11 1 2 1 4 74 \012EIF[ ]	/* EndIf */\012MPPEM[ ]	/* MeasurePixelPerEm */\012PUSHB[ ]	/* 1 value pushed */\01245 \012LT[ ]	/* LessThan */\012IF[ ]	/* If */\012NPUSHB[ ]	/* 32 values pushed */\0120 4 7 1 6 1 4 6 103 0 5 5 0 95 0 0 0 100 75 8 1 1 1 2 95 3 1 2 2 98 2 76 \012ELSE[ ]	/* Else */\012NPUSHB[ ]	/* 39 values pushed */\0120 6 7 1 7 6 1 126 0 4 0 7 6 4 7 103 0 5 5 0 95 0 0 0 100 75 8 1 1 1 2 95 3 1 2 2 98 2 76 \012EIF[ ]	/* EndIf */\012NPUSHB[ ]	/* 12 values pushed */\01236 33 21 36 52 36 35 35 34 9 11 29 \012CALL[ ]	/* CallFunction */";
};
width = 483;
}
);
leftKerningGroup = a;
note = uni0061;
rightKerningGroup = a;
unicode = 0061;
},
{
glyphname = aacute;
layers = (
{
layerId = "35E6D5AF-F775-49E3-B2B8-5BA74BD20843";
paths = (
{
closed = 1;
nodes = (
"377 624 LINE",
"337 683 LINE",
"183 551 LINE",
"205 520 LINE"
);
},
{
closed = 1;
nodes = (
"65 308 LINE",
"123 301 LINE",
"140 378 LINE",
"164.667 390 OFFCURVE",
"193.333 396 OFFCURVE",
"226 396 CURVE SMOOTH",
"306 396 OFFCURVE",
"327 352 OFFCURVE",
"327 288 CURVE SMOOTH",
"327 248 LINE",
"303 250.667 OFFCURVE",
"274.667 252 OFFCURVE",
"248 252 CURVE SMOOTH",
"148 252 OFFCURVE",
"40 227 OFFCURVE",
"40 115 CURVE SMOOTH",
"40 20.333 OFFCURVE",
"116.333 -10 OFFCURVE",
"175 -10 CURVE SMOOTH",
"247 -10 OFFCURVE",
"299 34 OFFCURVE",
"327 82 CURVE",
"327 80 LINE SMOOTH",
"328.333 20 OFFCURVE",
"355.333 -10 OFFCURVE",
"408 -10 CURVE SMOOTH",
"428.667 -10 OFFCURVE",
"448 -5 OFFCURVE",
"466 5 CURVE",
"465 51 LINE",
"456.333 47 OFFCURVE",
"446.333 45 OFFCURVE",
"435 45 CURVE SMOOTH",
"409.667 45 OFFCURVE",
"397 61 OFFCURVE",
"397 93 CURVE SMOOTH",
"397 305 LINE SMOOTH",
"397 404.333 OFFCURVE",
"344 454 OFFCURVE",
"238 454 CURVE SMOOTH",
"179.333 454 OFFCURVE",
"127.667 441.667 OFFCURVE",
"81 411 CURVE"
);
},
{
closed = 1;
nodes = (
"321.667 93.667 OFFCURVE",
"257.333 48 OFFCURVE",
"196 48 CURVE SMOOTH",
"157.333 48 OFFCURVE",
"113 65.667 OFFCURVE",
"113 123 CURVE SMOOTH",
"113 192.333 OFFCURVE",
"177.333 206 OFFCURVE",
"244 206 CURVE SMOOTH",
"258.667 206 OFFCURVE",
"273 205.333 OFFCURVE",
"287 204 CURVE SMOOTH",
"301 202.667 OFFCURVE",
"314.333 201.667 OFFCURVE",
"327 201 CURVE",
"327 167 LINE"
);
}
);
userData = {
assembly = "MPPEM[ ]	/* MeasurePixelPerEm */\012PUSHB[ ]	/* 1 value pushed */\01245 \012LT[ ]	/* LessThan */\012IF[ ]	/* If */\012NPUSHB[ ]	/* 27 values pushed */\01240 39 2 4 5 32 1 6 4 41 19 14 3 1 6 15 1 2 1 4 74 3 2 1 3 0 72 \012ELSE[ ]	/* Else */\012NPUSHB[ ]	/* 27 values pushed */\01240 39 2 4 5 32 1 7 4 41 19 14 3 1 6 15 1 2 1 4 74 3 2 1 3 0 72 \012EIF[ ]	/* EndIf */\012MPPEM[ ]	/* MeasurePixelPerEm */\012PUSHB[ ]	/* 1 value pushed */\01245 \012LT[ ]	/* LessThan */\012IF[ ]	/* If */\012NPUSHB[ ]	/* 32 values pushed */\0120 4 7 1 6 1 4 6 103 0 5 5 0 95 0 0 0 100 75 8 1 1 1 2 95 3 1 2 2 98 2 76 \012ELSE[ ]	/* Else */\012NPUSHB[ ]	/* 39 values pushed */\0120 6 7 1 7 6 1 126 0 4 0 7 6 4 7 103 0 5 5 0 95 0 0 0 100 75 8 1 1 1 2 95 3 1 2 2 98 2 76 \012EIF[ ]	/* EndIf */\012NPUSHB[ ]	/* 12 values pushed */\01236 33 21 36 52 36 35 35 38 9 11 29 \012CALL[ ]	/* CallFunction */";
};
width = 483;
}
);
leftKerningGroup = a;
note = uni00E1;
rightKerningGroup = a;
unicode = 00E1;
},
{
glyphname = abreve;
layers = (
{
layerId = "35E6D5AF-F775-49E3-B2B8-5BA74BD20843";
paths = (
{
closed = 1;
nodes = (
"295 655 LINE",
"295 605 OFFCURVE",
"274 580 OFFCURVE",
"232 580 CURVE SMOOTH",
"189.333 580 OFFCURVE",
"168 605 OFFCURVE",
"168 655 CURVE",
"109 655 LINE",
"109 573 OFFCURVE",
"149.667 532 OFFCURVE",
"231 532 CURVE SMOOTH",
"313 532 OFFCURVE",
"354 573 OFFCURVE",
"354 655 CURVE"
);
},
{
closed = 1;
nodes = (
"65 308 LINE",
"123 301 LINE",
"140 378 LINE",
"164.667 390 OFFCURVE",
"193.333 396 OFFCURVE",
"226 396 CURVE SMOOTH",
"306 396 OFFCURVE",
"327 352 OFFCURVE",
"327 288 CURVE SMOOTH",
"327 248 LINE",
"303 250.667 OFFCURVE",
"274.667 252 OFFCURVE",
"248 252 CURVE SMOOTH",
"148 252 OFFCURVE",
"40 227 OFFCURVE",
"40 115 CURVE SMOOTH",
"40 20.333 OFFCURVE",
"116.333 -10 OFFCURVE",
"175 -10 CURVE SMOOTH",
"247 -10 OFFCURVE",
"299 34 OFFCURVE",
"327 82 CURVE",
"327 80 LINE SMOOTH",
"328.333 20 OFFCURVE",
"355.333 -10 OFFCURVE",
"408 -10 CURVE SMOOTH",
"428.667 -10 OFFCURVE",
"448 -5 OFFCURVE",
"466 5 CURVE",
"465 51 LINE",
"456.333 47 OFFCURVE",
"446.333 45 OFFCURVE",
"435 45 CURVE SMOOTH",
"409.667 45 OFFCURVE",
"397 61 OFFCURVE",
"397 93 CURVE SMOOTH",
"397 305 LINE SMOOTH",
"397 404.333 OFFCURVE",
"344 454 OFFCURVE",
"238 454 CURVE SMOOTH",
"179.333 454 OFFCURVE",
"127.667 441.667 OFFCURVE",
"81 411 CURVE"
);
},
{
closed = 1;
nodes = (
"321.667 93.667 OFFCURVE",
"257.333 48 OFFCURVE",
"196 48 CURVE SMOOTH",
"157.333 48 OFFCURVE",
"113 65.667 OFFCURVE",
"113 123 CURVE SMOOTH",
"113 192.333 OFFCURVE",
"177.333 206 OFFCURVE",
"244 206 CURVE SMOOTH",
"258.667 206 OFFCURVE",
"273 205.333 OFFCURVE",
"287 204 CURVE SMOOTH",
"301 202.667 OFFCURVE",
"314.333 201.667 OFFCURVE",
"327 201 CURVE",
"327 167 LINE"
);
}
);
userData = {
assembly = "MPPEM[ ]	/* MeasurePixelPerEm */\012PUSHB[ ]	/* 1 value pushed */\01245 \012LT[ ]	/* LessThan */\012IF[ ]	/* If */\012NPUSHB[ ]	/* 21 values pushed */\01246 45 2 8 9 38 1 10 8 47 25 20 3 5 10 21 1 6 5 4 74 \012ELSE[ ]	/* Else */\012NPUSHB[ ]	/* 21 values pushed */\01246 45 2 8 9 38 1 11 8 47 25 20 3 5 10 21 1 6 5 4 74 \012EIF[ ]	/* EndIf */\012MPPEM[ ]	/* MeasurePixelPerEm */\012PUSHB[ ]	/* 1 value pushed */\01245 \012LT[ ]	/* LessThan */\012IF[ ]	/* If */\012NPUSHB[ ]	/* 47 values pushed */\0120 2 0 0 4 2 0 104 0 8 11 1 10 5 8 10 103 13 3 2 1 1 89 75 0 9 9 4 95 0 4 4 100 75 12 1 5 5 6 95 7 1 6 6 98 6 76 \012ELSE[ ]	/* Else */\012NPUSHB[ ]	/* 54 values pushed */\0120 10 11 5 11 10 5 126 0 2 0 0 4 2 0 104 0 8 0 11 10 8 11 103 13 3 2 1 1 89 75 0 9 9 4 95 0 4 4 100 75 12 1 5 5 6 95 7 1 6 6 98 6 76 \012EIF[ ]	/* EndIf */\012NPUSHB[ ]	/* 30 values pushed */\0120 0 58 56 52 50 49 48 43 41 37 34 30 28 24 22 19 17 14 12 0 9 0 9 33 17 33 14 11 23 \012CALL[ ]	/* CallFunction */";
};
width = 483;
}
);
leftKerningGroup = a;
note = uni0103;
rightKerningGroup = a;
unicode = 0103;
},
{
glyphname = acircumflex;
layers = (
{
layerId = "35E6D5AF-F775-49E3-B2B8-5BA74BD20843";
paths = (
{
closed = 1;
nodes = (
"367 553 LINE",
"246 671 LINE",
"224 671 LINE",
"103 551 LINE",
"128 519 LINE",
"229 603 LINE",
"340 519 LINE"
);
},
{
closed = 1;
nodes = (
"65 308 LINE",
"123 301 LINE",
"140 378 LINE",
"164.667 390 OFFCURVE",
"193.333 396 OFFCURVE",
"226 396 CURVE SMOOTH",
"306 396 OFFCURVE",
"327 352 OFFCURVE",
"327 288 CURVE SMOOTH",
"327 248 LINE",
"303 250.667 OFFCURVE",
"274.667 252 OFFCURVE",
"248 252 CURVE SMOOTH",
"148 252 OFFCURVE",
"40 227 OFFCURVE",
"40 115 CURVE SMOOTH",
"40 20.333 OFFCURVE",
"116.333 -10 OFFCURVE",
"175 -10 CURVE SMOOTH",
"247 -10 OFFCURVE",
"299 34 OFFCURVE",
"327 82 CURVE",
"327 80 LINE SMOOTH",
"328.333 20 OFFCURVE",
"355.333 -10 OFFCURVE",
"408 -10 CURVE SMOOTH",
"428.667 -10 OFFCURVE",
"448 -5 OFFCURVE",
"466 5 CURVE",
"465 51 LINE",
"456.333 47 OFFCURVE",
"446.333 45 OFFCURVE",
"435 45 CURVE SMOOTH",
"409.667 45 OFFCURVE",
"397 61 OFFCURVE",
"397 93 CURVE SMOOTH",
"397 305 LINE SMOOTH",
"397 404.333 OFFCURVE",
"344 454 OFFCURVE",
"238 454 CURVE SMOOTH",
"179.333 454 OFFCURVE",
"127.667 441.667 OFFCURVE",
"81 411 CURVE"
);
},
{
closed = 1;
nodes = (
"321.667 93.667 OFFCURVE",
"257.333 48 OFFCURVE",
"196 48 CURVE SMOOTH",
"157.333 48 OFFCURVE",
"113 65.667 OFFCURVE",
"113 123 CURVE SMOOTH",
"113 192.333 OFFCURVE",
"177.333 206 OFFCURVE",
"244 206 CURVE SMOOTH",
"258.667 206 OFFCURVE",
"273 205.333 OFFCURVE",
"287 204 CURVE SMOOTH",
"301 202.667 OFFCURVE",
"314.333 201.667 OFFCURVE",
"327 201 CURVE",
"327 167 LINE"
);
}
);
userData = {
assembly = "MPPEM[ ]	/* MeasurePixelPerEm */\012PUSHB[ ]	/* 1 value pushed */\01245 \012LT[ ]	/* LessThan */\012IF[ ]	/* If */\012NPUSHB[ ]	/* 28 values pushed */\0124 3 2 1 4 1 0 43 42 2 5 6 35 1 7 5 44 22 17 3 2 7 18 1 3 2 5 74 \012ELSE[ ]	/* Else */\012NPUSHB[ ]	/* 28 values pushed */\0124 3 2 1 4 1 0 43 42 2 5 6 35 1 8 5 44 22 17 3 2 7 18 1 3 2 5 74 \012EIF[ ]	/* EndIf */\012MPPEM[ ]	/* MeasurePixelPerEm */\012PUSHB[ ]	/* 1 value pushed */\01230 \012LT[ ]	/* LessThan */\012IF[ ]	/* If */\012NPUSHB[ ]	/* 37 values pushed */\0120 5 8 1 7 2 5 7 103 0 0 0 91 75 0 6 6 1 95 0 1 1 100 75 9 1 2 2 3 95 4 1 3 3 98 3 76 \012ELSE[ ]	/* Else */\012MPPEM[ ]	/* MeasurePixelPerEm */\012PUSHB[ ]	/* 1 value pushed */\01245 \012LT[ ]	/* LessThan */\012IF[ ]	/* If */\012NPUSHB[ ]	/* 37 values pushed */\0120 0 1 0 131 0 5 8 1 7 2 5 7 103 0 6 6 1 95 0 1 1 100 75 9 1 2 2 3 95 4 1 3 3 98 3 76 \012ELSE[ ]	/* Else */\012NPUSHB[ ]	/* 44 values pushed */\0120 0 1 0 131 0 7 8 2 8 7 2 126 0 5 0 8 7 5 8 103 0 6 6 1 95 0 1 1 100 75 9 1 2 2 3 95 4 1 3 3 98 3 76 \012EIF[ ]	/* EndIf */\012EIF[ ]	/* EndIf */\012NPUSHB[ ]	/* 14 values pushed */\01255 53 33 21 36 52 36 35 35 35 21 10 11 29 \012CALL[ ]	/* CallFunction */";
};
width = 483;
}
);
leftKerningGroup = a;
note = uni00E2;
rightKerningGroup = a;
unicode = 00E2;
},
{
glyphname = adieresis;
layers = (
{
layerId = "35E6D5AF-F775-49E3-B2B8-5BA74BD20843";
paths = (
{
closed = 1;
nodes = (
"108 555 LINE",
"189 555 LINE",
"189 640 LINE",
"108 640 LINE"
);
},
{
closed = 1;
nodes = (
"279 555 LINE",
"360 555 LINE",
"360 640 LINE",
"279 640 LINE"
);
},
{
closed = 1;
nodes = (
"65 308 LINE",
"123 301 LINE",
"140 378 LINE",
"164.667 390 OFFCURVE",
"193.333 396 OFFCURVE",
"226 396 CURVE SMOOTH",
"306 396 OFFCURVE",
"327 352 OFFCURVE",
"327 288 CURVE SMOOTH",
"327 248 LINE",
"303 250.667 OFFCURVE",
"274.667 252 OFFCURVE",
"248 252 CURVE SMOOTH",
"148 252 OFFCURVE",
"40 227 OFFCURVE",
"40 115 CURVE SMOOTH",
"40 20.333 OFFCURVE",
"116.333 -10 OFFCURVE",
"175 -10 CURVE SMOOTH",
"247 -10 OFFCURVE",
"299 34 OFFCURVE",
"327 82 CURVE",
"327 80 LINE SMOOTH",
"328.333 20 OFFCURVE",
"355.333 -10 OFFCURVE",
"408 -10 CURVE SMOOTH",
"428.667 -10 OFFCURVE",
"448 -5 OFFCURVE",
"466 5 CURVE",
"465 51 LINE",
"456.333 47 OFFCURVE",
"446.333 45 OFFCURVE",
"435 45 CURVE SMOOTH",
"409.667 45 OFFCURVE",
"397 61 OFFCURVE",
"397 93 CURVE SMOOTH",
"397 305 LINE SMOOTH",
"397 404.333 OFFCURVE",
"344 454 OFFCURVE",
"238 454 CURVE SMOOTH",
"179.333 454 OFFCURVE",
"127.667 441.667 OFFCURVE",
"81 411 CURVE"
);
},
{
closed = 1;
nodes = (
"321.667 93.667 OFFCURVE",
"257.333 48 OFFCURVE",
"196 48 CURVE SMOOTH",
"157.333 48 OFFCURVE",
"113 65.667 OFFCURVE",
"113 123 CURVE SMOOTH",
"113 192.333 OFFCURVE",
"177.333 206 OFFCURVE",
"244 206 CURVE SMOOTH",
"258.667 206 OFFCURVE",
"273 205.333 OFFCURVE",
"287 204 CURVE SMOOTH",
"301 202.667 OFFCURVE",
"314.333 201.667 OFFCURVE",
"327 201 CURVE",
"327 167 LINE"
);
}
);
userData = {
assembly = "MPPEM[ ]	/* MeasurePixelPerEm */\012PUSHB[ ]	/* 1 value pushed */\01245 \012LT[ ]	/* LessThan */\012IF[ ]	/* If */\012NPUSHB[ ]	/* 21 values pushed */\01244 43 2 8 9 36 1 10 8 45 23 18 3 5 10 19 1 6 5 4 74 \012ELSE[ ]	/* Else */\012NPUSHB[ ]	/* 21 values pushed */\01244 43 2 8 9 36 1 11 8 45 23 18 3 5 10 19 1 6 5 4 74 \012EIF[ ]	/* EndIf */\012MPPEM[ ]	/* MeasurePixelPerEm */\012PUSHB[ ]	/* 1 value pushed */\01245 \012LT[ ]	/* LessThan */\012IF[ ]	/* If */\012NPUSHB[ ]	/* 46 values pushed */\0120 8 11 1 10 5 8 10 103 14 3 13 3 1 1 0 93 2 1 0 0 89 75 0 9 9 4 95 0 4 4 100 75 12 1 5 5 6 95 7 1 6 6 98 6 76 \012ELSE[ ]	/* Else */\012MPPEM[ ]	/* MeasurePixelPerEm */\012PUSHB[ ]	/* 1 value pushed */\01250 \012LT[ ]	/* LessThan */\012IF[ ]	/* If */\012NPUSHB[ ]	/* 53 values pushed */\0120 10 11 5 11 10 5 126 0 8 0 11 10 8 11 103 14 3 13 3 1 1 0 93 2 1 0 0 89 75 0 9 9 4 95 0 4 4 100 75 12 1 5 5 6 95 7 1 6 6 98 6 76 \012ELSE[ ]	/* Else */\012NPUSHB[ ]	/* 51 values pushed */\0120 10 11 5 11 10 5 126 2 1 0 14 3 13 3 1 4 0 1 101 0 8 0 11 10 8 11 103 0 9 9 4 95 0 4 4 100 75 12 1 5 5 6 95 7 1 6 6 98 6 76 \012EIF[ ]	/* EndIf */\012EIF[ ]	/* EndIf */\012NPUSHB[ ]	/* 36 values pushed */\0124 4 0 0 56 54 50 48 47 46 41 39 35 32 28 26 22 20 17 15 12 10 4 7 4 7 6 5 0 3 0 3 17 15 11 21 \012CALL[ ]	/* CallFunction */";
};
width = 483;
}
);
leftKerningGroup = a;
note = uni00E4;
rightKerningGroup = a;
unicode = 00E4;
},
{
glyphname = agrave;
layers = (
{
layerId = "35E6D5AF-F775-49E3-B2B8-5BA74BD20843";
paths = (
{
closed = 1;
nodes = (
"295 551 LINE",
"141 683 LINE",
"101 624 LINE",
"274 520 LINE"
);
},
{
closed = 1;
nodes = (
"65 308 LINE",
"123 301 LINE",
"140 378 LINE",
"164.667 390 OFFCURVE",
"193.333 396 OFFCURVE",
"226 396 CURVE SMOOTH",
"306 396 OFFCURVE",
"327 352 OFFCURVE",
"327 288 CURVE SMOOTH",
"327 248 LINE",
"303 250.667 OFFCURVE",
"274.667 252 OFFCURVE",
"248 252 CURVE SMOOTH",
"148 252 OFFCURVE",
"40 227 OFFCURVE",
"40 115 CURVE SMOOTH",
"40 20.333 OFFCURVE",
"116.333 -10 OFFCURVE",
"175 -10 CURVE SMOOTH",
"247 -10 OFFCURVE",
"299 34 OFFCURVE",
"327 82 CURVE",
"327 80 LINE SMOOTH",
"328.333 20 OFFCURVE",
"355.333 -10 OFFCURVE",
"408 -10 CURVE SMOOTH",
"428.667 -10 OFFCURVE",
"448 -5 OFFCURVE",
"466 5 CURVE",
"465 51 LINE",
"456.333 47 OFFCURVE",
"446.333 45 OFFCURVE",
"435 45 CURVE SMOOTH",
"409.667 45 OFFCURVE",
"397 61 OFFCURVE",
"397 93 CURVE SMOOTH",
"397 305 LINE SMOOTH",
"397 404.333 OFFCURVE",
"344 454 OFFCURVE",
"238 454 CURVE SMOOTH",
"179.333 454 OFFCURVE",
"127.667 441.667 OFFCURVE",
"81 411 CURVE"
);
},
{
closed = 1;
nodes = (
"321.667 93.667 OFFCURVE",
"257.333 48 OFFCURVE",
"196 48 CURVE SMOOTH",
"157.333 48 OFFCURVE",
"113 65.667 OFFCURVE",
"113 123 CURVE SMOOTH",
"113 192.333 OFFCURVE",
"177.333 206 OFFCURVE",
"244 206 CURVE SMOOTH",
"258.667 206 OFFCURVE",
"273 205.333 OFFCURVE",
"287 204 CURVE SMOOTH",
"301 202.667 OFFCURVE",
"314.333 201.667 OFFCURVE",
"327 201 CURVE",
"327 167 LINE"
);
}
);
userData = {
assembly = "MPPEM[ ]	/* MeasurePixelPerEm */\012PUSHB[ ]	/* 1 value pushed */\01245 \012LT[ ]	/* LessThan */\012IF[ ]	/* If */\012NPUSHB[ ]	/* 27 values pushed */\01240 39 2 4 5 32 1 6 4 41 19 14 3 1 6 15 1 2 1 4 74 3 2 1 3 0 72 \012ELSE[ ]	/* Else */\012NPUSHB[ ]	/* 27 values pushed */\01240 39 2 4 5 32 1 7 4 41 19 14 3 1 6 15 1 2 1 4 74 3 2 1 3 0 72 \012EIF[ ]	/* EndIf */\012MPPEM[ ]	/* MeasurePixelPerEm */\012PUSHB[ ]	/* 1 value pushed */\01245 \012LT[ ]	/* LessThan */\012IF[ ]	/* If */\012NPUSHB[ ]	/* 32 values pushed */\0120 4 7 1 6 1 4 6 103 0 5 5 0 95 0 0 0 100 75 8 1 1 1 2 95 3 1 2 2 98 2 76 \012ELSE[ ]	/* Else */\012NPUSHB[ ]	/* 39 values pushed */\0120 6 7 1 7 6 1 126 0 4 0 7 6 4 7 103 0 5 5 0 95 0 0 0 100 75 8 1 1 1 2 95 3 1 2 2 98 2 76 \012EIF[ ]	/* EndIf */\012NPUSHB[ ]	/* 12 values pushed */\01236 33 21 36 52 36 35 35 38 9 11 29 \012CALL[ ]	/* CallFunction */";
};
width = 483;
}
);
leftKerningGroup = a;
note = uni00E0;
rightKerningGroup = a;
unicode = 00E0;
},
{
glyphname = amacron;
layers = (
{
layerId = "35E6D5AF-F775-49E3-B2B8-5BA74BD20843";
paths = (
{
closed = 1;
nodes = (
"353 564 LINE",
"353 621 LINE",
"109 621 LINE",
"109 564 LINE"
);
},
{
closed = 1;
nodes = (
"65 308 LINE",
"123 301 LINE",
"140 378 LINE",
"164.667 390 OFFCURVE",
"193.333 396 OFFCURVE",
"226 396 CURVE SMOOTH",
"306 396 OFFCURVE",
"327 352 OFFCURVE",
"327 288 CURVE SMOOTH",
"327 248 LINE",
"303 250.667 OFFCURVE",
"274.667 252 OFFCURVE",
"248 252 CURVE SMOOTH",
"148 252 OFFCURVE",
"40 227 OFFCURVE",
"40 115 CURVE SMOOTH",
"40 20.333 OFFCURVE",
"116.333 -10 OFFCURVE",
"175 -10 CURVE SMOOTH",
"247 -10 OFFCURVE",
"299 34 OFFCURVE",
"327 82 CURVE",
"327 80 LINE SMOOTH",
"328.333 20 OFFCURVE",
"355.333 -10 OFFCURVE",
"408 -10 CURVE SMOOTH",
"428.667 -10 OFFCURVE",
"448 -5 OFFCURVE",
"466 5 CURVE",
"465 51 LINE",
"456.333 47 OFFCURVE",
"446.333 45 OFFCURVE",
"435 45 CURVE SMOOTH",
"409.667 45 OFFCURVE",
"397 61 OFFCURVE",
"397 93 CURVE SMOOTH",
"397 305 LINE SMOOTH",
"397 404.333 OFFCURVE",
"344 454 OFFCURVE",
"238 454 CURVE SMOOTH",
"179.333 454 OFFCURVE",
"127.667 441.667 OFFCURVE",
"81 411 CURVE"
);
},
{
closed = 1;
nodes = (
"321.667 93.667 OFFCURVE",
"257.333 48 OFFCURVE",
"196 48 CURVE SMOOTH",
"157.333 48 OFFCURVE",
"113 65.667 OFFCURVE",
"113 123 CURVE SMOOTH",
"113 192.333 OFFCURVE",
"177.333 206 OFFCURVE",
"244 206 CURVE SMOOTH",
"258.667 206 OFFCURVE",
"273 205.333 OFFCURVE",
"287 204 CURVE SMOOTH",
"301 202.667 OFFCURVE",
"314.333 201.667 OFFCURVE",
"327 201 CURVE",
"327 167 LINE"
);
}
);
userData = {
assembly = "MPPEM[ ]	/* MeasurePixelPerEm */\012PUSHB[ ]	/* 1 value pushed */\01245 \012LT[ ]	/* LessThan */\012IF[ ]	/* If */\012NPUSHB[ ]	/* 21 values pushed */\01240 39 2 6 7 32 1 8 6 41 19 14 3 3 8 15 1 4 3 4 74 \012ELSE[ ]	/* Else */\012NPUSHB[ ]	/* 21 values pushed */\01240 39 2 6 7 32 1 9 6 41 19 14 3 3 8 15 1 4 3 4 74 \012EIF[ ]	/* EndIf */\012MPPEM[ ]	/* MeasurePixelPerEm */\012PUSHB[ ]	/* 1 value pushed */\01245 \012LT[ ]	/* LessThan */\012IF[ ]	/* If */\012NPUSHB[ ]	/* 40 values pushed */\0120 1 0 0 2 1 0 101 0 6 9 1 8 3 6 8 103 0 7 7 2 95 0 2 2 100 75 10 1 3 3 4 95 5 1 4 4 98 4 76 \012ELSE[ ]	/* Else */\012NPUSHB[ ]	/* 47 values pushed */\0120 8 9 3 9 8 3 126 0 1 0 0 2 1 0 101 0 6 0 9 8 6 9 103 0 7 7 2 95 0 2 2 100 75 10 1 3 3 4 95 5 1 4 4 98 4 76 \012EIF[ ]	/* EndIf */\012NPUSHB[ ]	/* 16 values pushed */\01252 50 46 44 21 36 52 36 35 35 35 17 16 11 11 29 \012CALL[ ]	/* CallFunction */";
};
width = 483;
}
);
leftKerningGroup = a;
note = uni0101;
rightKerningGroup = a;
unicode = 0101;
},
{
glyphname = aogonek;
layers = (
{
layerId = "35E6D5AF-F775-49E3-B2B8-5BA74BD20843";
paths = (
{
closed = 1;
nodes = (
"471 -140 LINE",
"454.333 -150 OFFCURVE",
"436.333 -155 OFFCURVE",
"417 -155 CURVE SMOOTH",
"378.333 -155 OFFCURVE",
"359 -136.333 OFFCURVE",
"359 -99 CURVE SMOOTH",
"359 -68.333 OFFCURVE",
"370.667 -36.667 OFFCURVE",
"408 -10 CURVE",
"428.667 -10 OFFCURVE",
"448 -5 OFFCURVE",
"466 5 CURVE",
"465 51 LINE",
"456.333 47 OFFCURVE",
"446.333 45 OFFCURVE",
"435 45 CURVE SMOOTH",
"409.667 45 OFFCURVE",
"397 61 OFFCURVE",
"397 93 CURVE SMOOTH",
"397 305 LINE SMOOTH",
"397 404.333 OFFCURVE",
"344 454 OFFCURVE",
"238 454 CURVE SMOOTH",
"179.333 454 OFFCURVE",
"127.667 441.667 OFFCURVE",
"81 411 CURVE",
"65 308 LINE",
"123 301 LINE",
"140 378 LINE",
"164.667 390 OFFCURVE",
"193.333 396 OFFCURVE",
"226 396 CURVE SMOOTH",
"306 396 OFFCURVE",
"327 352 OFFCURVE",
"327 288 CURVE SMOOTH",
"327 248 LINE",
"303 250.667 OFFCURVE",
"274.667 252 OFFCURVE",
"248 252 CURVE SMOOTH",
"148 252 OFFCURVE",
"40 227 OFFCURVE",
"40 115 CURVE SMOOTH",
"40 20.333 OFFCURVE",
"116.333 -10 OFFCURVE",
"175 -10 CURVE SMOOTH",
"247 -10 OFFCURVE",
"299 34 OFFCURVE",
"327 82 CURVE",
"327 80 LINE SMOOTH",
"327 39.333 OFFCURVE",
"340.667 12.333 OFFCURVE",
"368 -1 CURVE",
"326.667 -26.333 OFFCURVE",
"297 -67.333 OFFCURVE",
"297 -118 CURVE SMOOTH",
"297 -175.333 OFFCURVE",
"338.333 -209 OFFCURVE",
"401 -209 CURVE SMOOTH",
"429 -209 OFFCURVE",
"455.333 -202.333 OFFCURVE",
"480 -189 CURVE"
);
},
{
closed = 1;
nodes = (
"321.667 93.667 OFFCURVE",
"257.333 48 OFFCURVE",
"196 48 CURVE SMOOTH",
"157.333 48 OFFCURVE",
"113 65.667 OFFCURVE",
"113 123 CURVE SMOOTH",
"113 192.333 OFFCURVE",
"177.333 206 OFFCURVE",
"244 206 CURVE SMOOTH",
"258.667 206 OFFCURVE",
"273 205.333 OFFCURVE",
"287 204 CURVE SMOOTH",
"301 202.667 OFFCURVE",
"314.333 201.667 OFFCURVE",
"327 201 CURVE",
"327 167 LINE"
);
}
);
userData = {
assembly = "MPPEM[ ]	/* MeasurePixelPerEm */\012PUSHB[ ]	/* 1 value pushed */\01245 \012LT[ ]	/* LessThan */\012IF[ ]	/* If */\012NPUSHB[ ]	/* 26 values pushed */\01231 30 2 2 3 23 1 8 2 53 42 10 3 5 8 43 8 2 1 5 52 1 7 1 5 74 \012ELSE[ ]	/* Else */\012NPUSHB[ ]	/* 26 values pushed */\01231 30 2 2 3 23 1 9 2 53 42 10 3 5 8 43 8 2 1 5 52 1 7 1 5 74 \012EIF[ ]	/* EndIf */\012MPPEM[ ]	/* MeasurePixelPerEm */\012PUSHB[ ]	/* 1 value pushed */\01245 \012LT[ ]	/* LessThan */\012IF[ ]	/* If */\012NPUSHB[ ]	/* 42 values pushed */\0120 2 9 1 8 5 2 8 103 0 3 3 4 95 0 4 4 100 75 10 1 5 5 1 95 6 1 1 1 98 75 0 7 7 0 95 0 0 0 94 0 76 \012ELSE[ ]	/* Else */\012NPUSHB[ ]	/* 49 values pushed */\0120 8 9 5 9 8 5 126 0 2 0 9 8 2 9 103 0 3 3 4 95 0 4 4 100 75 10 1 5 5 1 95 6 1 1 1 98 75 0 7 7 0 95 0 0 0 94 0 76 \012EIF[ ]	/* EndIf */\012NPUSHB[ ]	/* 16 values pushed */\01264 62 58 56 19 36 19 35 38 36 52 42 33 11 11 29 \012CALL[ ]	/* CallFunction */";
};
width = 483;
}
);
leftKerningGroup = a;
note = uni0105;
rightKerningGroup = a;
unicode = 0105;
},
{
glyphname = aring;
layers = (
{
layerId = "35E6D5AF-F775-49E3-B2B8-5BA74BD20843";
paths = (
{
closed = 1;
nodes = (
"334 660.333 OFFCURVE",
"304 698 OFFCURVE",
"236 698 CURVE SMOOTH",
"173.333 698 OFFCURVE",
"137 659.333 OFFCURVE",
"137 606 CURVE SMOOTH",
"137 544.667 OFFCURVE",
"169.667 514 OFFCURVE",
"235 514 CURVE SMOOTH",
"300.333 514 OFFCURVE",
"334 552.333 OFFCURVE",
"334 607 CURVE SMOOTH"
);
},
{
closed = 1;
nodes = (
"285 578.667 OFFCURVE",
"269.667 554 OFFCURVE",
"235 554 CURVE SMOOTH",
"202.333 554 OFFCURVE",
"186 571.333 OFFCURVE",
"186 606 CURVE SMOOTH",
"186 635.333 OFFCURVE",
"201.667 658 OFFCURVE",
"235 658 CURVE SMOOTH",
"272.333 658 OFFCURVE",
"285 634.667 OFFCURVE",
"285 608 CURVE SMOOTH"
);
},
{
closed = 1;
nodes = (
"65 308 LINE",
"123 301 LINE",
"140 378 LINE",
"164.667 390 OFFCURVE",
"193.333 396 OFFCURVE",
"226 396 CURVE SMOOTH",
"306 396 OFFCURVE",
"327 352 OFFCURVE",
"327 288 CURVE SMOOTH",
"327 248 LINE",
"303 250.667 OFFCURVE",
"274.667 252 OFFCURVE",
"248 252 CURVE SMOOTH",
"148 252 OFFCURVE",
"40 227 OFFCURVE",
"40 115 CURVE SMOOTH",
"40 20.333 OFFCURVE",
"116.333 -10 OFFCURVE",
"175 -10 CURVE SMOOTH",
"247 -10 OFFCURVE",
"299 34 OFFCURVE",
"327 82 CURVE",
"327 80 LINE SMOOTH",
"328.333 20 OFFCURVE",
"355.333 -10 OFFCURVE",
"408 -10 CURVE SMOOTH",
"428.667 -10 OFFCURVE",
"448 -5 OFFCURVE",
"466 5 CURVE",
"465 51 LINE",
"456.333 47 OFFCURVE",
"446.333 45 OFFCURVE",
"435 45 CURVE SMOOTH",
"409.667 45 OFFCURVE",
"397 61 OFFCURVE",
"397 93 CURVE SMOOTH",
"397 305 LINE SMOOTH",
"397 404.333 OFFCURVE",
"344 454 OFFCURVE",
"238 454 CURVE SMOOTH",
"179.333 454 OFFCURVE",
"127.667 441.667 OFFCURVE",
"81 411 CURVE"
);
},
{
closed = 1;
nodes = (
"321.667 93.667 OFFCURVE",
"257.333 48 OFFCURVE",
"196 48 CURVE SMOOTH",
"157.333 48 OFFCURVE",
"113 65.667 OFFCURVE",
"113 123 CURVE SMOOTH",
"113 192.333 OFFCURVE",
"177.333 206 OFFCURVE",
"244 206 CURVE SMOOTH",
"258.667 206 OFFCURVE",
"273 205.333 OFFCURVE",
"287 204 CURVE SMOOTH",
"301 202.667 OFFCURVE",
"314.333 201.667 OFFCURVE",
"327 201 CURVE",
"327 167 LINE"
);
}
);
userData = {
assembly = "MPPEM[ ]	/* MeasurePixelPerEm */\012PUSHB[ ]	/* 1 value pushed */\01245 \012LT[ ]	/* LessThan */\012IF[ ]	/* If */\012NPUSHB[ ]	/* 21 values pushed */\01258 57 2 8 9 50 1 10 8 59 37 32 3 5 10 33 1 6 5 4 74 \012ELSE[ ]	/* Else */\012NPUSHB[ ]	/* 21 values pushed */\01258 57 2 8 9 50 1 11 8 59 37 32 3 5 10 33 1 6 5 4 74 \012EIF[ ]	/* EndIf */\012MPPEM[ ]	/* MeasurePixelPerEm */\012PUSHB[ ]	/* 1 value pushed */\01245 \012LT[ ]	/* LessThan */\012IF[ ]	/* If */\012NPUSHB[ ]	/* 50 values pushed */\0120 3 0 0 4 3 0 103 0 8 11 1 10 5 8 10 103 0 2 2 1 95 0 1 1 99 75 0 9 9 4 95 0 4 4 100 75 12 1 5 5 6 95 7 1 6 6 98 6 76 \012ELSE[ ]	/* Else */\012NPUSHB[ ]	/* 57 values pushed */\0120 10 11 5 11 10 5 126 0 3 0 0 4 3 0 103 0 8 0 11 10 8 11 103 0 2 2 1 95 0 1 1 99 75 0 9 9 4 95 0 4 4 100 75 12 1 5 5 6 95 7 1 6 6 98 6 76 \012EIF[ ]	/* EndIf */\012NPUSHB[ ]	/* 20 values pushed */\01270 68 64 62 61 60 55 53 52 36 35 35 36 35 36 35 34 13 11 29 \012CALL[ ]	/* CallFunction */";
};
width = 483;
}
);
leftKerningGroup = a;
note = uni00E5;
rightKerningGroup = a;
unicode = 00E5;
},
